G75*
%IPPOS*%
%FSLAX44Y44*%
%MOIN*%
%ADD10C,0.00100*%
%ADD11C,0.00200*%
%ADD12C,0.00400*%
%ADD13C,0.00800*%
%ADD14C,0.01500*%
%ADD15C,0.02500*%
%ADD16C,0.04000*%
%ADD17C,60.00000*%
%ADD18C,80.00000*%
%ADD19C,100.00000*%
%ADD20C,0.00000*%
%LNCOND5*%
%LPD*%
G54D18*
X22100000Y10000000D03*
X2900000D03*
X5400000D03*
X19600000D03*
X12500000Y17100000D03*
G54D10*
X1000005Y11500005D02*
X6750005D01*
Y8399995D01*
X1000005D01*
Y1000005D01*
X23999995D01*
Y8399995D01*
X18249995D01*
Y11500005D01*
X23999995D01*
Y18999995D01*
X13990875D01*
Y15999995D01*
X10999995D01*
Y18999995D01*
X1000005D01*
Y11500005D01*
X1000010Y11500010D02*
X6750010D01*
Y8399990D01*
X1000010D01*
Y1000010D01*
X23999990D01*
Y8399990D01*
X18249990D01*
Y11500010D01*
X23999990D01*
Y18999990D01*
X13990880D01*
Y15999990D01*
X10999990D01*
Y18999990D01*
X1000010D01*
Y11500010D01*
G54D11*
X1000020Y11500020D02*
X6750020D01*
Y8399980D01*
X1000020D01*
Y1000020D01*
X23999980D01*
Y8399980D01*
X18249980D01*
Y11500020D01*
X23999980D01*
Y18999980D01*
X13990890D01*
Y15999980D01*
X10999980D01*
Y18999980D01*
X1000020D01*
Y11500020D01*
G54D12*
X1000040Y11500040D02*
X6750040D01*
Y8399960D01*
X1000040D01*
Y1000040D01*
X23999960D01*
Y8399960D01*
X18249960D01*
Y11500040D01*
X23999960D01*
Y18999960D01*
X13990910D01*
Y15999960D01*
X10999960D01*
Y18999960D01*
X1000040D01*
Y11500040D01*
G54D13*
X1000080Y11500080D02*
X6750080D01*
Y8399920D01*
X1000080D01*
Y1000080D01*
X23999920D01*
Y8399920D01*
X18249920D01*
Y11500080D01*
X23999920D01*
Y18999920D01*
X13990950D01*
Y15999920D01*
X10999920D01*
Y18999920D01*
X1000080D01*
Y11500080D01*
G54D14*
X1000155Y11500155D02*
X6750155D01*
Y8399845D01*
X1000155D01*
Y1000155D01*
X23999845D01*
Y8399845D01*
X18249845D01*
Y11500155D01*
X23999845D01*
Y18999845D01*
X13991025D01*
Y15999845D01*
X10999845D01*
Y18999845D01*
X1000155D01*
Y11500155D01*
G54D15*
X1000280Y11500280D02*
X6750280D01*
Y8399720D01*
X1000280D01*
Y1000280D01*
X23999720D01*
Y8399720D01*
X18249720D01*
Y11500280D01*
X23999720D01*
Y18999720D01*
X13991150D01*
Y15999720D01*
X10999720D01*
Y18999720D01*
X1000280D01*
Y11500280D01*
G54D16*
X1000480Y11500480D02*
X6750480D01*
Y8399520D01*
X1000480D01*
Y1000480D01*
X23999520D01*
Y8399520D01*
X18249520D01*
Y11500480D01*
X23999520D01*
Y18999520D01*
X13991350D01*
Y15999520D01*
X10999520D01*
Y18999520D01*
X1000480D01*
Y11500480D01*
X1000680Y11500680D02*
X6750680D01*
Y8399320D01*
X1000680D01*
Y1000680D01*
X23999320D01*
Y8399320D01*
X18249320D01*
Y11500680D01*
X23999320D01*
Y18999320D01*
X13991550D01*
Y15999320D01*
X10999320D01*
Y18999320D01*
X1000680D01*
Y11500680D01*
X1000880Y11500880D02*
X6750880D01*
Y8399120D01*
X1000880D01*
Y1000880D01*
X23999120D01*
Y8399120D01*
X18249120D01*
Y11500880D01*
X23999120D01*
Y18999120D01*
X13991750D01*
Y15999120D01*
X10999120D01*
Y18999120D01*
X1000880D01*
Y11500880D01*
X1001080Y11501080D02*
X6751080D01*
Y8398920D01*
X1001080D01*
Y1001080D01*
X23998920D01*
Y8398920D01*
X18248920D01*
Y11501080D01*
X23998920D01*
Y18998920D01*
X13991950D01*
Y15998920D01*
X10998920D01*
Y18998920D01*
X1001080D01*
Y11501080D01*
X1001280Y11501280D02*
X6751280D01*
Y8398720D01*
X1001280D01*
Y1001280D01*
X23998720D01*
Y8398720D01*
X18248720D01*
Y11501280D01*
X23998720D01*
Y18998720D01*
X13992150D01*
Y15998720D01*
X10998720D01*
Y18998720D01*
X1001280D01*
Y11501280D01*
X1001480Y11501480D02*
X6751480D01*
Y8398520D01*
X1001480D01*
Y1001480D01*
X23998520D01*
Y8398520D01*
X18248520D01*
Y11501480D01*
X23998520D01*
Y18998520D01*
X13992350D01*
Y15998520D01*
X10998520D01*
Y18998520D01*
X1001480D01*
Y11501480D01*
X1001680Y11501680D02*
X6751680D01*
Y8398320D01*
X1001680D01*
Y1001680D01*
X23998320D01*
Y8398320D01*
X18248320D01*
Y11501680D01*
X23998320D01*
Y18998320D01*
X13992550D01*
Y15998320D01*
X10998320D01*
Y18998320D01*
X1001680D01*
Y11501680D01*
X1001880Y11501880D02*
X6751880D01*
Y8398120D01*
X1001880D01*
Y1001880D01*
X23998120D01*
Y8398120D01*
X18248120D01*
Y11501880D01*
X23998120D01*
Y18998120D01*
X13992750D01*
Y15998120D01*
X10998120D01*
Y18998120D01*
X1001880D01*
Y11501880D01*
X1002080Y11502080D02*
X6752080D01*
Y8397920D01*
X1002080D01*
Y1002080D01*
X23997920D01*
Y8397920D01*
X18247920D01*
Y11502080D01*
X23997920D01*
Y18997920D01*
X13992950D01*
Y15997920D01*
X10997920D01*
Y18997920D01*
X1002080D01*
Y11502080D01*
X1002280Y11502280D02*
X6752280D01*
Y8397720D01*
X1002280D01*
Y1002280D01*
X23997720D01*
Y8397720D01*
X18247720D01*
Y11502280D01*
X23997720D01*
Y18997720D01*
X13993150D01*
Y15997720D01*
X10997720D01*
Y18997720D01*
X1002280D01*
Y11502280D01*
X1002480Y11502480D02*
X6752480D01*
Y8397520D01*
X1002480D01*
Y1002480D01*
X23997520D01*
Y8397520D01*
X18247520D01*
Y11502480D01*
X23997520D01*
Y18997520D01*
X13993350D01*
Y15997520D01*
X10997520D01*
Y18997520D01*
X1002480D01*
Y11502480D01*
X1002680Y11502680D02*
X6752680D01*
Y8397320D01*
X1002680D01*
Y1002680D01*
X23997320D01*
Y8397320D01*
X18247320D01*
Y11502680D01*
X23997320D01*
Y18997320D01*
X13993550D01*
Y15997320D01*
X10997320D01*
Y18997320D01*
X1002680D01*
Y11502680D01*
X1002880Y11502880D02*
X6752880D01*
Y8397120D01*
X1002880D01*
Y1002880D01*
X23997120D01*
Y8397120D01*
X18247120D01*
Y11502880D01*
X23997120D01*
Y18997120D01*
X13993750D01*
Y15997120D01*
X10997120D01*
Y18997120D01*
X1002880D01*
Y11502880D01*
X1003080Y11503080D02*
X6753080D01*
Y8396920D01*
X1003080D01*
Y1003080D01*
X23996920D01*
Y8396920D01*
X18246920D01*
Y11503080D01*
X23996920D01*
Y18996920D01*
X13993950D01*
Y15996920D01*
X10996920D01*
Y18996920D01*
X1003080D01*
Y11503080D01*
X1003280Y11503280D02*
X6753280D01*
Y8396720D01*
X1003280D01*
Y1003280D01*
X23996720D01*
Y8396720D01*
X18246720D01*
Y11503280D01*
X23996720D01*
Y18996720D01*
X13994150D01*
Y15996720D01*
X10996720D01*
Y18996720D01*
X1003280D01*
Y11503280D01*
X1003480Y11503480D02*
X6753480D01*
Y8396520D01*
X1003480D01*
Y1003480D01*
X23996520D01*
Y8396520D01*
X18246520D01*
Y11503480D01*
X23996520D01*
Y18996520D01*
X13994350D01*
Y15996520D01*
X10996520D01*
Y18996520D01*
X1003480D01*
Y11503480D01*
X1003680Y11503680D02*
X6753680D01*
Y8396320D01*
X1003680D01*
Y1003680D01*
X23996320D01*
Y8396320D01*
X18246320D01*
Y11503680D01*
X23996320D01*
Y18996320D01*
X13994550D01*
Y15996320D01*
X10996320D01*
Y18996320D01*
X1003680D01*
Y11503680D01*
X1003880Y11503880D02*
X6753880D01*
Y8396120D01*
X1003880D01*
Y1003880D01*
X23996120D01*
Y8396120D01*
X18246120D01*
Y11503880D01*
X23996120D01*
Y18996120D01*
X13994750D01*
Y15996120D01*
X10996120D01*
Y18996120D01*
X1003880D01*
Y11503880D01*
X1004080Y11504080D02*
X6754080D01*
Y8395920D01*
X1004080D01*
Y1004080D01*
X23995920D01*
Y8395920D01*
X18245920D01*
Y11504080D01*
X23995920D01*
Y18995920D01*
X13994950D01*
Y15995920D01*
X10995920D01*
Y18995920D01*
X1004080D01*
Y11504080D01*
X1004280Y11504280D02*
X6754280D01*
Y8395720D01*
X1004280D01*
Y1004280D01*
X23995720D01*
Y8395720D01*
X18245720D01*
Y11504280D01*
X23995720D01*
Y18995720D01*
X13995150D01*
Y15995720D01*
X10995720D01*
Y18995720D01*
X1004280D01*
Y11504280D01*
X1004480Y11504480D02*
X6754480D01*
Y8395520D01*
X1004480D01*
Y1004480D01*
X23995520D01*
Y8395520D01*
X18245520D01*
Y11504480D01*
X23995520D01*
Y18995520D01*
X13995350D01*
Y15995520D01*
X10995520D01*
Y18995520D01*
X1004480D01*
Y11504480D01*
X1004680Y11504680D02*
X6754680D01*
Y8395320D01*
X1004680D01*
Y1004680D01*
X23995320D01*
Y8395320D01*
X18245320D01*
Y11504680D01*
X23995320D01*
Y18995320D01*
X13995550D01*
Y15995320D01*
X10995320D01*
Y18995320D01*
X1004680D01*
Y11504680D01*
X1004880Y11504880D02*
X6754880D01*
Y8395120D01*
X1004880D01*
Y1004880D01*
X23995120D01*
Y8395120D01*
X18245120D01*
Y11504880D01*
X23995120D01*
Y18995120D01*
X13995750D01*
Y15995120D01*
X10995120D01*
Y18995120D01*
X1004880D01*
Y11504880D01*
X1005080Y11505080D02*
X6755080D01*
Y8394920D01*
X1005080D01*
Y1005080D01*
X23994920D01*
Y8394920D01*
X18244920D01*
Y11505080D01*
X23994920D01*
Y18994920D01*
X13995950D01*
Y15994920D01*
X10994920D01*
Y18994920D01*
X1005080D01*
Y11505080D01*
X1005280Y11505280D02*
X6755280D01*
Y8394720D01*
X1005280D01*
Y1005280D01*
X23994720D01*
Y8394720D01*
X18244720D01*
Y11505280D01*
X23994720D01*
Y18994720D01*
X13996150D01*
Y15994720D01*
X10994720D01*
Y18994720D01*
X1005280D01*
Y11505280D01*
X1005480Y11505480D02*
X6755480D01*
Y8394520D01*
X1005480D01*
Y1005480D01*
X23994520D01*
Y8394520D01*
X18244520D01*
Y11505480D01*
X23994520D01*
Y18994520D01*
X13996350D01*
Y15994520D01*
X10994520D01*
Y18994520D01*
X1005480D01*
Y11505480D01*
X1005680Y11505680D02*
X6755680D01*
Y8394320D01*
X1005680D01*
Y1005680D01*
X23994320D01*
Y8394320D01*
X18244320D01*
Y11505680D01*
X23994320D01*
Y18994320D01*
X13996550D01*
Y15994320D01*
X10994320D01*
Y18994320D01*
X1005680D01*
Y11505680D01*
X1005880Y11505880D02*
X6755880D01*
Y8394120D01*
X1005880D01*
Y1005880D01*
X23994120D01*
Y8394120D01*
X18244120D01*
Y11505880D01*
X23994120D01*
Y18994120D01*
X13996750D01*
Y15994120D01*
X10994120D01*
Y18994120D01*
X1005880D01*
Y11505880D01*
X1006080Y11506080D02*
X6756080D01*
Y8393920D01*
X1006080D01*
Y1006080D01*
X23993920D01*
Y8393920D01*
X18243920D01*
Y11506080D01*
X23993920D01*
Y18993920D01*
X13996950D01*
Y15993920D01*
X10993920D01*
Y18993920D01*
X1006080D01*
Y11506080D01*
X1006280Y11506280D02*
X6756280D01*
Y8393720D01*
X1006280D01*
Y1006280D01*
X23993720D01*
Y8393720D01*
X18243720D01*
Y11506280D01*
X23993720D01*
Y18993720D01*
X13997150D01*
Y15993720D01*
X10993720D01*
Y18993720D01*
X1006280D01*
Y11506280D01*
X1006480Y11506480D02*
X6756480D01*
Y8393520D01*
X1006480D01*
Y1006480D01*
X23993520D01*
Y8393520D01*
X18243520D01*
Y11506480D01*
X23993520D01*
Y18993520D01*
X13997350D01*
Y15993520D01*
X10993520D01*
Y18993520D01*
X1006480D01*
Y11506480D01*
X1006680Y11506680D02*
X6756680D01*
Y8393320D01*
X1006680D01*
Y1006680D01*
X23993320D01*
Y8393320D01*
X18243320D01*
Y11506680D01*
X23993320D01*
Y18993320D01*
X13997550D01*
Y15993320D01*
X10993320D01*
Y18993320D01*
X1006680D01*
Y11506680D01*
X1006880Y11506880D02*
X6756880D01*
Y8393120D01*
X1006880D01*
Y1006880D01*
X23993120D01*
Y8393120D01*
X18243120D01*
Y11506880D01*
X23993120D01*
Y18993120D01*
X13997750D01*
Y15993120D01*
X10993120D01*
Y18993120D01*
X1006880D01*
Y11506880D01*
X1007080Y11507080D02*
X6757080D01*
Y8392920D01*
X1007080D01*
Y1007080D01*
X23992920D01*
Y8392920D01*
X18242920D01*
Y11507080D01*
X23992920D01*
Y18992920D01*
X13997950D01*
Y15992920D01*
X10992920D01*
Y18992920D01*
X1007080D01*
Y11507080D01*
X1007280Y11507280D02*
X6757280D01*
Y8392720D01*
X1007280D01*
Y1007280D01*
X23992720D01*
Y8392720D01*
X18242720D01*
Y11507280D01*
X23992720D01*
Y18992720D01*
X13998150D01*
Y15992720D01*
X10992720D01*
Y18992720D01*
X1007280D01*
Y11507280D01*
X1007480Y11507480D02*
X6757480D01*
Y8392520D01*
X1007480D01*
Y1007480D01*
X23992520D01*
Y8392520D01*
X18242520D01*
Y11507480D01*
X23992520D01*
Y18992520D01*
X13998350D01*
Y15992520D01*
X10992520D01*
Y18992520D01*
X1007480D01*
Y11507480D01*
X1007680Y11507680D02*
X6757680D01*
Y8392320D01*
X1007680D01*
Y1007680D01*
X23992320D01*
Y8392320D01*
X18242320D01*
Y11507680D01*
X23992320D01*
Y18992320D01*
X13998550D01*
Y15992320D01*
X10992320D01*
Y18992320D01*
X1007680D01*
Y11507680D01*
X1007880Y11507880D02*
X6757880D01*
Y8392120D01*
X1007880D01*
Y1007880D01*
X23992120D01*
Y8392120D01*
X18242120D01*
Y11507880D01*
X23992120D01*
Y18992120D01*
X13998750D01*
Y15992120D01*
X10992120D01*
Y18992120D01*
X1007880D01*
Y11507880D01*
X1008080Y11508080D02*
X6758080D01*
Y8391920D01*
X1008080D01*
Y1008080D01*
X23991920D01*
Y8391920D01*
X18241920D01*
Y11508080D01*
X23991920D01*
Y18991920D01*
X13998950D01*
Y15991920D01*
X10991920D01*
Y18991920D01*
X1008080D01*
Y11508080D01*
X1008280Y11508280D02*
X6758280D01*
Y8391720D01*
X1008280D01*
Y1008280D01*
X23991720D01*
Y8391720D01*
X18241720D01*
Y11508280D01*
X23991720D01*
Y18991720D01*
X13999150D01*
Y15991720D01*
X10991720D01*
Y18991720D01*
X1008280D01*
Y11508280D01*
X1008480Y11508480D02*
X6758480D01*
Y8391520D01*
X1008480D01*
Y1008480D01*
X23991520D01*
Y8391520D01*
X18241520D01*
Y11508480D01*
X23991520D01*
Y18991520D01*
X13999350D01*
Y15991520D01*
X10991520D01*
Y18991520D01*
X1008480D01*
Y11508480D01*
X1008680Y11508680D02*
X6758680D01*
Y8391320D01*
X1008680D01*
Y1008680D01*
X23991320D01*
Y8391320D01*
X18241320D01*
Y11508680D01*
X23991320D01*
Y18991320D01*
X13999550D01*
Y15991320D01*
X10991320D01*
Y18991320D01*
X1008680D01*
Y11508680D01*
X1008880Y11508880D02*
X6758880D01*
Y8391120D01*
X1008880D01*
Y1008880D01*
X23991120D01*
Y8391120D01*
X18241120D01*
Y11508880D01*
X23991120D01*
Y18991120D01*
X13999750D01*
Y15991120D01*
X10991120D01*
Y18991120D01*
X1008880D01*
Y11508880D01*
X1009080Y11509080D02*
X6759080D01*
Y8390920D01*
X1009080D01*
Y1009080D01*
X23990920D01*
Y8390920D01*
X18240920D01*
Y11509080D01*
X23990920D01*
Y18990920D01*
X13999950D01*
Y15990920D01*
X10990920D01*
Y18990920D01*
X1009080D01*
Y11509080D01*
X1009280Y11509280D02*
X6759280D01*
Y8390720D01*
X1009280D01*
Y1009280D01*
X23990720D01*
Y8390720D01*
X18240720D01*
Y11509280D01*
X23990720D01*
Y18990720D01*
X14000150D01*
Y15990720D01*
X10990720D01*
Y18990720D01*
X1009280D01*
Y11509280D01*
X1009480Y11509480D02*
X6759480D01*
Y8390520D01*
X1009480D01*
Y1009480D01*
X23990520D01*
Y8390520D01*
X18240520D01*
Y11509480D01*
X23990520D01*
Y18990520D01*
X14000350D01*
Y15990520D01*
X10990520D01*
Y18990520D01*
X1009480D01*
Y11509480D01*
X1009680Y11509680D02*
X6759680D01*
Y8390320D01*
X1009680D01*
Y1009680D01*
X23990320D01*
Y8390320D01*
X18240320D01*
Y11509680D01*
X23990320D01*
Y18990320D01*
X14000550D01*
Y15990320D01*
X10990320D01*
Y18990320D01*
X1009680D01*
Y11509680D01*
X1009880Y11509880D02*
X6759880D01*
Y8390120D01*
X1009880D01*
Y1009880D01*
X23990120D01*
Y8390120D01*
X18240120D01*
Y11509880D01*
X23990120D01*
Y18990120D01*
X14000750D01*
Y15990120D01*
X10990120D01*
Y18990120D01*
X1009880D01*
Y11509880D01*
X1010080Y11510080D02*
X6760080D01*
Y8389920D01*
X1010080D01*
Y1010080D01*
X23989920D01*
Y8389920D01*
X18239920D01*
Y11510080D01*
X23989920D01*
Y18989920D01*
X14000950D01*
Y15989920D01*
X10989920D01*
Y18989920D01*
X1010080D01*
Y11510080D01*
X1010280Y11510280D02*
X6760280D01*
Y8389720D01*
X1010280D01*
Y1010280D01*
X23989720D01*
Y8389720D01*
X18239720D01*
Y11510280D01*
X23989720D01*
Y18989720D01*
X14001150D01*
Y15989720D01*
X10989720D01*
Y18989720D01*
X1010280D01*
Y11510280D01*
X1010480Y11510480D02*
X6760480D01*
Y8389520D01*
X1010480D01*
Y1010480D01*
X23989520D01*
Y8389520D01*
X18239520D01*
Y11510480D01*
X23989520D01*
Y18989520D01*
X14001350D01*
Y15989520D01*
X10989520D01*
Y18989520D01*
X1010480D01*
Y11510480D01*
X1010680Y11510680D02*
X6760680D01*
Y8389320D01*
X1010680D01*
Y1010680D01*
X23989320D01*
Y8389320D01*
X18239320D01*
Y11510680D01*
X23989320D01*
Y18989320D01*
X14001550D01*
Y15989320D01*
X10989320D01*
Y18989320D01*
X1010680D01*
Y11510680D01*
X1010880Y11510880D02*
X6760880D01*
Y8389120D01*
X1010880D01*
Y1010880D01*
X23989120D01*
Y8389120D01*
X18239120D01*
Y11510880D01*
X23989120D01*
Y18989120D01*
X14001750D01*
Y15989120D01*
X10989120D01*
Y18989120D01*
X1010880D01*
Y11510880D01*
X1011080Y11511080D02*
X6761080D01*
Y8388920D01*
X1011080D01*
Y1011080D01*
X23988920D01*
Y8388920D01*
X18238920D01*
Y11511080D01*
X23988920D01*
Y18988920D01*
X14001950D01*
Y15988920D01*
X10988920D01*
Y18988920D01*
X1011080D01*
Y11511080D01*
X1011280Y11511280D02*
X6761280D01*
Y8388720D01*
X1011280D01*
Y1011280D01*
X23988720D01*
Y8388720D01*
X18238720D01*
Y11511280D01*
X23988720D01*
Y18988720D01*
X14002150D01*
Y15988720D01*
X10988720D01*
Y18988720D01*
X1011280D01*
Y11511280D01*
X1011480Y11511480D02*
X6761480D01*
Y8388520D01*
X1011480D01*
Y1011480D01*
X23988520D01*
Y8388520D01*
X18238520D01*
Y11511480D01*
X23988520D01*
Y18988520D01*
X14002350D01*
Y15988520D01*
X10988520D01*
Y18988520D01*
X1011480D01*
Y11511480D01*
X1011680Y11511680D02*
X6761680D01*
Y8388320D01*
X1011680D01*
Y1011680D01*
X23988320D01*
Y8388320D01*
X18238320D01*
Y11511680D01*
X23988320D01*
Y18988320D01*
X14002550D01*
Y15988320D01*
X10988320D01*
Y18988320D01*
X1011680D01*
Y11511680D01*
X1011880Y11511880D02*
X6761880D01*
Y8388120D01*
X1011880D01*
Y1011880D01*
X23988120D01*
Y8388120D01*
X18238120D01*
Y11511880D01*
X23988120D01*
Y18988120D01*
X14002750D01*
Y15988120D01*
X10988120D01*
Y18988120D01*
X1011880D01*
Y11511880D01*
X1012080Y11512080D02*
X6762080D01*
Y8387920D01*
X1012080D01*
Y1012080D01*
X23987920D01*
Y8387920D01*
X18237920D01*
Y11512080D01*
X23987920D01*
Y18987920D01*
X14002950D01*
Y15987920D01*
X10987920D01*
Y18987920D01*
X1012080D01*
Y11512080D01*
X1012280Y11512280D02*
X6762280D01*
Y8387720D01*
X1012280D01*
Y1012280D01*
X23987720D01*
Y8387720D01*
X18237720D01*
Y11512280D01*
X23987720D01*
Y18987720D01*
X14003150D01*
Y15987720D01*
X10987720D01*
Y18987720D01*
X1012280D01*
Y11512280D01*
X1012480Y11512480D02*
X6762480D01*
Y8387520D01*
X1012480D01*
Y1012480D01*
X23987520D01*
Y8387520D01*
X18237520D01*
Y11512480D01*
X23987520D01*
Y18987520D01*
X14003350D01*
Y15987520D01*
X10987520D01*
Y18987520D01*
X1012480D01*
Y11512480D01*
X1012680Y11512680D02*
X6762680D01*
Y8387320D01*
X1012680D01*
Y1012680D01*
X23987320D01*
Y8387320D01*
X18237320D01*
Y11512680D01*
X23987320D01*
Y18987320D01*
X14003550D01*
Y15987320D01*
X10987320D01*
Y18987320D01*
X1012680D01*
Y11512680D01*
X1012880Y11512880D02*
X6762880D01*
Y8387120D01*
X1012880D01*
Y1012880D01*
X23987120D01*
Y8387120D01*
X18237120D01*
Y11512880D01*
X23987120D01*
Y18987120D01*
X14003750D01*
Y15987120D01*
X10987120D01*
Y18987120D01*
X1012880D01*
Y11512880D01*
X1013080Y11513080D02*
X6763080D01*
Y8386920D01*
X1013080D01*
Y1013080D01*
X23986920D01*
Y8386920D01*
X18236920D01*
Y11513080D01*
X23986920D01*
Y18986920D01*
X14003950D01*
Y15986920D01*
X10986920D01*
Y18986920D01*
X1013080D01*
Y11513080D01*
X1013280Y11513280D02*
X6763280D01*
Y8386720D01*
X1013280D01*
Y1013280D01*
X23986720D01*
Y8386720D01*
X18236720D01*
Y11513280D01*
X23986720D01*
Y18986720D01*
X14004150D01*
Y15986720D01*
X10986720D01*
Y18986720D01*
X1013280D01*
Y11513280D01*
X1013480Y11513480D02*
X6763480D01*
Y8386520D01*
X1013480D01*
Y1013480D01*
X23986520D01*
Y8386520D01*
X18236520D01*
Y11513480D01*
X23986520D01*
Y18986520D01*
X14004350D01*
Y15986520D01*
X10986520D01*
Y18986520D01*
X1013480D01*
Y11513480D01*
X1013680Y11513680D02*
X6763680D01*
Y8386320D01*
X1013680D01*
Y1013680D01*
X23986320D01*
Y8386320D01*
X18236320D01*
Y11513680D01*
X23986320D01*
Y18986320D01*
X14004550D01*
Y15986320D01*
X10986320D01*
Y18986320D01*
X1013680D01*
Y11513680D01*
X1013880Y11513880D02*
X6763880D01*
Y8386120D01*
X1013880D01*
Y1013880D01*
X23986120D01*
Y8386120D01*
X18236120D01*
Y11513880D01*
X23986120D01*
Y18986120D01*
X14004750D01*
Y15986120D01*
X10986120D01*
Y18986120D01*
X1013880D01*
Y11513880D01*
X1014080Y11514080D02*
X6764080D01*
Y8385920D01*
X1014080D01*
Y1014080D01*
X23985920D01*
Y8385920D01*
X18235920D01*
Y11514080D01*
X23985920D01*
Y18985920D01*
X14004950D01*
Y15985920D01*
X10985920D01*
Y18985920D01*
X1014080D01*
Y11514080D01*
X1014280Y11514280D02*
X6764280D01*
Y8385720D01*
X1014280D01*
Y1014280D01*
X23985720D01*
Y8385720D01*
X18235720D01*
Y11514280D01*
X23985720D01*
Y18985720D01*
X14005150D01*
Y15985720D01*
X10985720D01*
Y18985720D01*
X1014280D01*
Y11514280D01*
X1014480Y11514480D02*
X6764480D01*
Y8385520D01*
X1014480D01*
Y1014480D01*
X23985520D01*
Y8385520D01*
X18235520D01*
Y11514480D01*
X23985520D01*
Y18985520D01*
X14005350D01*
Y15985520D01*
X10985520D01*
Y18985520D01*
X1014480D01*
Y11514480D01*
X1014680Y11514680D02*
X6764680D01*
Y8385320D01*
X1014680D01*
Y1014680D01*
X23985320D01*
Y8385320D01*
X18235320D01*
Y11514680D01*
X23985320D01*
Y18985320D01*
X14005550D01*
Y15985320D01*
X10985320D01*
Y18985320D01*
X1014680D01*
Y11514680D01*
X1014880Y11514880D02*
X6764880D01*
Y8385120D01*
X1014880D01*
Y1014880D01*
X23985120D01*
Y8385120D01*
X18235120D01*
Y11514880D01*
X23985120D01*
Y18985120D01*
X14005750D01*
Y15985120D01*
X10985120D01*
Y18985120D01*
X1014880D01*
Y11514880D01*
X1015080Y11515080D02*
X6765080D01*
Y8384920D01*
X1015080D01*
Y1015080D01*
X23984920D01*
Y8384920D01*
X18234920D01*
Y11515080D01*
X23984920D01*
Y18984920D01*
X14005950D01*
Y15984920D01*
X10984920D01*
Y18984920D01*
X1015080D01*
Y11515080D01*
X1015280Y11515280D02*
X6765280D01*
Y8384720D01*
X1015280D01*
Y1015280D01*
X23984720D01*
Y8384720D01*
X18234720D01*
Y11515280D01*
X23984720D01*
Y18984720D01*
X14006150D01*
Y15984720D01*
X10984720D01*
Y18984720D01*
X1015280D01*
Y11515280D01*
X1015480Y11515480D02*
X6765480D01*
Y8384520D01*
X1015480D01*
Y1015480D01*
X23984520D01*
Y8384520D01*
X18234520D01*
Y11515480D01*
X23984520D01*
Y18984520D01*
X14006350D01*
Y15984520D01*
X10984520D01*
Y18984520D01*
X1015480D01*
Y11515480D01*
X1015680Y11515680D02*
X6765680D01*
Y8384320D01*
X1015680D01*
Y1015680D01*
X23984320D01*
Y8384320D01*
X18234320D01*
Y11515680D01*
X23984320D01*
Y18984320D01*
X14006550D01*
Y15984320D01*
X10984320D01*
Y18984320D01*
X1015680D01*
Y11515680D01*
X1015880Y11515880D02*
X6765880D01*
Y8384120D01*
X1015880D01*
Y1015880D01*
X23984120D01*
Y8384120D01*
X18234120D01*
Y11515880D01*
X23984120D01*
Y18984120D01*
X14006750D01*
Y15984120D01*
X10984120D01*
Y18984120D01*
X1015880D01*
Y11515880D01*
X1016080Y11516080D02*
X6766080D01*
Y8383920D01*
X1016080D01*
Y1016080D01*
X23983920D01*
Y8383920D01*
X18233920D01*
Y11516080D01*
X23983920D01*
Y18983920D01*
X14006950D01*
Y15983920D01*
X10983920D01*
Y18983920D01*
X1016080D01*
Y11516080D01*
X1016280Y11516280D02*
X6766280D01*
Y8383720D01*
X1016280D01*
Y1016280D01*
X23983720D01*
Y8383720D01*
X18233720D01*
Y11516280D01*
X23983720D01*
Y18983720D01*
X14007150D01*
Y15983720D01*
X10983720D01*
Y18983720D01*
X1016280D01*
Y11516280D01*
X1016480Y11516480D02*
X6766480D01*
Y8383520D01*
X1016480D01*
Y1016480D01*
X23983520D01*
Y8383520D01*
X18233520D01*
Y11516480D01*
X23983520D01*
Y18983520D01*
X14007350D01*
Y15983520D01*
X10983520D01*
Y18983520D01*
X1016480D01*
Y11516480D01*
X1016680Y11516680D02*
X6766680D01*
Y8383320D01*
X1016680D01*
Y1016680D01*
X23983320D01*
Y8383320D01*
X18233320D01*
Y11516680D01*
X23983320D01*
Y18983320D01*
X14007550D01*
Y15983320D01*
X10983320D01*
Y18983320D01*
X1016680D01*
Y11516680D01*
X1016880Y11516880D02*
X6766880D01*
Y8383120D01*
X1016880D01*
Y1016880D01*
X23983120D01*
Y8383120D01*
X18233120D01*
Y11516880D01*
X23983120D01*
Y18983120D01*
X14007750D01*
Y15983120D01*
X10983120D01*
Y18983120D01*
X1016880D01*
Y11516880D01*
X1017080Y11517080D02*
X6767080D01*
Y8382920D01*
X1017080D01*
Y1017080D01*
X23982920D01*
Y8382920D01*
X18232920D01*
Y11517080D01*
X23982920D01*
Y18982920D01*
X14007950D01*
Y15982920D01*
X10982920D01*
Y18982920D01*
X1017080D01*
Y11517080D01*
X1017280Y11517280D02*
X6767280D01*
Y8382720D01*
X1017280D01*
Y1017280D01*
X23982720D01*
Y8382720D01*
X18232720D01*
Y11517280D01*
X23982720D01*
Y18982720D01*
X14008150D01*
Y15982720D01*
X10982720D01*
Y18982720D01*
X1017280D01*
Y11517280D01*
X1017480Y11517480D02*
X6767480D01*
Y8382520D01*
X1017480D01*
Y1017480D01*
X23982520D01*
Y8382520D01*
X18232520D01*
Y11517480D01*
X23982520D01*
Y18982520D01*
X14008350D01*
Y15982520D01*
X10982520D01*
Y18982520D01*
X1017480D01*
Y11517480D01*
X1017680Y11517680D02*
X6767680D01*
Y8382320D01*
X1017680D01*
Y1017680D01*
X23982320D01*
Y8382320D01*
X18232320D01*
Y11517680D01*
X23982320D01*
Y18982320D01*
X14008550D01*
Y15982320D01*
X10982320D01*
Y18982320D01*
X1017680D01*
Y11517680D01*
X1017880Y11517880D02*
X6767880D01*
Y8382120D01*
X1017880D01*
Y1017880D01*
X23982120D01*
Y8382120D01*
X18232120D01*
Y11517880D01*
X23982120D01*
Y18982120D01*
X14008750D01*
Y15982120D01*
X10982120D01*
Y18982120D01*
X1017880D01*
Y11517880D01*
X1018080Y11518080D02*
X6768080D01*
Y8381920D01*
X1018080D01*
Y1018080D01*
X23981920D01*
Y8381920D01*
X18231920D01*
Y11518080D01*
X23981920D01*
Y18981920D01*
X14008950D01*
Y15981920D01*
X10981920D01*
Y18981920D01*
X1018080D01*
Y11518080D01*
X1018280Y11518280D02*
X6768280D01*
Y8381720D01*
X1018280D01*
Y1018280D01*
X23981720D01*
Y8381720D01*
X18231720D01*
Y11518280D01*
X23981720D01*
Y18981720D01*
X14009150D01*
Y15981720D01*
X10981720D01*
Y18981720D01*
X1018280D01*
Y11518280D01*
X1018480Y11518480D02*
X6768480D01*
Y8381520D01*
X1018480D01*
Y1018480D01*
X23981520D01*
Y8381520D01*
X18231520D01*
Y11518480D01*
X23981520D01*
Y18981520D01*
X14009350D01*
Y15981520D01*
X10981520D01*
Y18981520D01*
X1018480D01*
Y11518480D01*
X1018680Y11518680D02*
X6768680D01*
Y8381320D01*
X1018680D01*
Y1018680D01*
X23981320D01*
Y8381320D01*
X18231320D01*
Y11518680D01*
X23981320D01*
Y18981320D01*
X14009550D01*
Y15981320D01*
X10981320D01*
Y18981320D01*
X1018680D01*
Y11518680D01*
X1018880Y11518880D02*
X6768880D01*
Y8381120D01*
X1018880D01*
Y1018880D01*
X23981120D01*
Y8381120D01*
X18231120D01*
Y11518880D01*
X23981120D01*
Y18981120D01*
X14009750D01*
Y15981120D01*
X10981120D01*
Y18981120D01*
X1018880D01*
Y11518880D01*
X1019080Y11519080D02*
X6769080D01*
Y8380920D01*
X1019080D01*
Y1019080D01*
X23980920D01*
Y8380920D01*
X18230920D01*
Y11519080D01*
X23980920D01*
Y18980920D01*
X14009950D01*
Y15980920D01*
X10980920D01*
Y18980920D01*
X1019080D01*
Y11519080D01*
X1019280Y11519280D02*
X6769280D01*
Y8380720D01*
X1019280D01*
Y1019280D01*
X23980720D01*
Y8380720D01*
X18230720D01*
Y11519280D01*
X23980720D01*
Y18980720D01*
X14010150D01*
Y15980720D01*
X10980720D01*
Y18980720D01*
X1019280D01*
Y11519280D01*
X1019480Y11519480D02*
X6769480D01*
Y8380520D01*
X1019480D01*
Y1019480D01*
X23980520D01*
Y8380520D01*
X18230520D01*
Y11519480D01*
X23980520D01*
Y18980520D01*
X14010350D01*
Y15980520D01*
X10980520D01*
Y18980520D01*
X1019480D01*
Y11519480D01*
X1019680Y11519680D02*
X6769680D01*
Y8380320D01*
X1019680D01*
Y1019680D01*
X23980320D01*
Y8380320D01*
X18230320D01*
Y11519680D01*
X23980320D01*
Y18980320D01*
X14010550D01*
Y15980320D01*
X10980320D01*
Y18980320D01*
X1019680D01*
Y11519680D01*
X1019880Y11519880D02*
X6769880D01*
Y8380120D01*
X1019880D01*
Y1019880D01*
X23980120D01*
Y8380120D01*
X18230120D01*
Y11519880D01*
X23980120D01*
Y18980120D01*
X14010750D01*
Y15980120D01*
X10980120D01*
Y18980120D01*
X1019880D01*
Y11519880D01*
X1020080Y11520080D02*
X6770080D01*
Y8379920D01*
X1020080D01*
Y1020080D01*
X23979920D01*
Y8379920D01*
X18229920D01*
Y11520080D01*
X23979920D01*
Y18979920D01*
X14010950D01*
Y15979920D01*
X10979920D01*
Y18979920D01*
X1020080D01*
Y11520080D01*
X1020280Y11520280D02*
X6770280D01*
Y8379720D01*
X1020280D01*
Y1020280D01*
X23979720D01*
Y8379720D01*
X18229720D01*
Y11520280D01*
X23979720D01*
Y18979720D01*
X14011150D01*
Y15979720D01*
X10979720D01*
Y18979720D01*
X1020280D01*
Y11520280D01*
X1020480Y11520480D02*
X6770480D01*
Y8379520D01*
X1020480D01*
Y1020480D01*
X23979520D01*
Y8379520D01*
X18229520D01*
Y11520480D01*
X23979520D01*
Y18979520D01*
X14011350D01*
Y15979520D01*
X10979520D01*
Y18979520D01*
X1020480D01*
Y11520480D01*
X1020680Y11520680D02*
X6770680D01*
Y8379320D01*
X1020680D01*
Y1020680D01*
X23979320D01*
Y8379320D01*
X18229320D01*
Y11520680D01*
X23979320D01*
Y18979320D01*
X14011550D01*
Y15979320D01*
X10979320D01*
Y18979320D01*
X1020680D01*
Y11520680D01*
X1020880Y11520880D02*
X6770880D01*
Y8379120D01*
X1020880D01*
Y1020880D01*
X23979120D01*
Y8379120D01*
X18229120D01*
Y11520880D01*
X23979120D01*
Y18979120D01*
X14011750D01*
Y15979120D01*
X10979120D01*
Y18979120D01*
X1020880D01*
Y11520880D01*
X1021080Y11521080D02*
X6771080D01*
Y8378920D01*
X1021080D01*
Y1021080D01*
X23978920D01*
Y8378920D01*
X18228920D01*
Y11521080D01*
X23978920D01*
Y18978920D01*
X14011950D01*
Y15978920D01*
X10978920D01*
Y18978920D01*
X1021080D01*
Y11521080D01*
X1021280Y11521280D02*
X6771280D01*
Y8378720D01*
X1021280D01*
Y1021280D01*
X23978720D01*
Y8378720D01*
X18228720D01*
Y11521280D01*
X23978720D01*
Y18978720D01*
X14012150D01*
Y15978720D01*
X10978720D01*
Y18978720D01*
X1021280D01*
Y11521280D01*
X1021480Y11521480D02*
X6771480D01*
Y8378520D01*
X1021480D01*
Y1021480D01*
X23978520D01*
Y8378520D01*
X18228520D01*
Y11521480D01*
X23978520D01*
Y18978520D01*
X14012350D01*
Y15978520D01*
X10978520D01*
Y18978520D01*
X1021480D01*
Y11521480D01*
X1021680Y11521680D02*
X6771680D01*
Y8378320D01*
X1021680D01*
Y1021680D01*
X23978320D01*
Y8378320D01*
X18228320D01*
Y11521680D01*
X23978320D01*
Y18978320D01*
X14012550D01*
Y15978320D01*
X10978320D01*
Y18978320D01*
X1021680D01*
Y11521680D01*
X1021880Y11521880D02*
X6771880D01*
Y8378120D01*
X1021880D01*
Y1021880D01*
X23978120D01*
Y8378120D01*
X18228120D01*
Y11521880D01*
X23978120D01*
Y18978120D01*
X14012750D01*
Y15978120D01*
X10978120D01*
Y18978120D01*
X1021880D01*
Y11521880D01*
X1022080Y11522080D02*
X6772080D01*
Y8377920D01*
X1022080D01*
Y1022080D01*
X23977920D01*
Y8377920D01*
X18227920D01*
Y11522080D01*
X23977920D01*
Y18977920D01*
X14012950D01*
Y15977920D01*
X10977920D01*
Y18977920D01*
X1022080D01*
Y11522080D01*
X1022280Y11522280D02*
X6772280D01*
Y8377720D01*
X1022280D01*
Y1022280D01*
X23977720D01*
Y8377720D01*
X18227720D01*
Y11522280D01*
X23977720D01*
Y18977720D01*
X14013150D01*
Y15977720D01*
X10977720D01*
Y18977720D01*
X1022280D01*
Y11522280D01*
X1022480Y11522480D02*
X6772480D01*
Y8377520D01*
X1022480D01*
Y1022480D01*
X23977520D01*
Y8377520D01*
X18227520D01*
Y11522480D01*
X23977520D01*
Y18977520D01*
X14013350D01*
Y15977520D01*
X10977520D01*
Y18977520D01*
X1022480D01*
Y11522480D01*
X1022680Y11522680D02*
X6772680D01*
Y8377320D01*
X1022680D01*
Y1022680D01*
X23977320D01*
Y8377320D01*
X18227320D01*
Y11522680D01*
X23977320D01*
Y18977320D01*
X14013550D01*
Y15977320D01*
X10977320D01*
Y18977320D01*
X1022680D01*
Y11522680D01*
X1022880Y11522880D02*
X6772880D01*
Y8377120D01*
X1022880D01*
Y1022880D01*
X23977120D01*
Y8377120D01*
X18227120D01*
Y11522880D01*
X23977120D01*
Y18977120D01*
X14013750D01*
Y15977120D01*
X10977120D01*
Y18977120D01*
X1022880D01*
Y11522880D01*
X1023080Y11523080D02*
X6773080D01*
Y8376920D01*
X1023080D01*
Y1023080D01*
X23976920D01*
Y8376920D01*
X18226920D01*
Y11523080D01*
X23976920D01*
Y18976920D01*
X14013950D01*
Y15976920D01*
X10976920D01*
Y18976920D01*
X1023080D01*
Y11523080D01*
X1023280Y11523280D02*
X6773280D01*
Y8376720D01*
X1023280D01*
Y1023280D01*
X23976720D01*
Y8376720D01*
X18226720D01*
Y11523280D01*
X23976720D01*
Y18976720D01*
X14014150D01*
Y15976720D01*
X10976720D01*
Y18976720D01*
X1023280D01*
Y11523280D01*
X1023480Y11523480D02*
X6773480D01*
Y8376520D01*
X1023480D01*
Y1023480D01*
X23976520D01*
Y8376520D01*
X18226520D01*
Y11523480D01*
X23976520D01*
Y18976520D01*
X14014350D01*
Y15976520D01*
X10976520D01*
Y18976520D01*
X1023480D01*
Y11523480D01*
X1023680Y11523680D02*
X6773680D01*
Y8376320D01*
X1023680D01*
Y1023680D01*
X23976320D01*
Y8376320D01*
X18226320D01*
Y11523680D01*
X23976320D01*
Y18976320D01*
X14014550D01*
Y15976320D01*
X10976320D01*
Y18976320D01*
X1023680D01*
Y11523680D01*
X1023880Y11523880D02*
X6773880D01*
Y8376120D01*
X1023880D01*
Y1023880D01*
X23976120D01*
Y8376120D01*
X18226120D01*
Y11523880D01*
X23976120D01*
Y18976120D01*
X14014750D01*
Y15976120D01*
X10976120D01*
Y18976120D01*
X1023880D01*
Y11523880D01*
X1024080Y11524080D02*
X6774080D01*
Y8375920D01*
X1024080D01*
Y1024080D01*
X23975920D01*
Y8375920D01*
X18225920D01*
Y11524080D01*
X23975920D01*
Y18975920D01*
X14014950D01*
Y15975920D01*
X10975920D01*
Y18975920D01*
X1024080D01*
Y11524080D01*
X1024280Y11524280D02*
X6774280D01*
Y8375720D01*
X1024280D01*
Y1024280D01*
X23975720D01*
Y8375720D01*
X18225720D01*
Y11524280D01*
X23975720D01*
Y18975720D01*
X14015150D01*
Y15975720D01*
X10975720D01*
Y18975720D01*
X1024280D01*
Y11524280D01*
X1024480Y11524480D02*
X6774480D01*
Y8375520D01*
X1024480D01*
Y1024480D01*
X23975520D01*
Y8375520D01*
X18225520D01*
Y11524480D01*
X23975520D01*
Y18975520D01*
X14015350D01*
Y15975520D01*
X10975520D01*
Y18975520D01*
X1024480D01*
Y11524480D01*
X1024680Y11524680D02*
X6774680D01*
Y8375320D01*
X1024680D01*
Y1024680D01*
X23975320D01*
Y8375320D01*
X18225320D01*
Y11524680D01*
X23975320D01*
Y18975320D01*
X14015550D01*
Y15975320D01*
X10975320D01*
Y18975320D01*
X1024680D01*
Y11524680D01*
X1024880Y11524880D02*
X6774880D01*
Y8375120D01*
X1024880D01*
Y1024880D01*
X23975120D01*
Y8375120D01*
X18225120D01*
Y11524880D01*
X23975120D01*
Y18975120D01*
X14015750D01*
Y15975120D01*
X10975120D01*
Y18975120D01*
X1024880D01*
Y11524880D01*
X1025080Y11525080D02*
X6775080D01*
Y8374920D01*
X1025080D01*
Y1025080D01*
X23974920D01*
Y8374920D01*
X18224920D01*
Y11525080D01*
X23974920D01*
Y18974920D01*
X14015950D01*
Y15974920D01*
X10974920D01*
Y18974920D01*
X1025080D01*
Y11525080D01*
X1025280Y11525280D02*
X6775280D01*
Y8374720D01*
X1025280D01*
Y1025280D01*
X23974720D01*
Y8374720D01*
X18224720D01*
Y11525280D01*
X23974720D01*
Y18974720D01*
X14016150D01*
Y15974720D01*
X10974720D01*
Y18974720D01*
X1025280D01*
Y11525280D01*
X1025480Y11525480D02*
X6775480D01*
Y8374520D01*
X1025480D01*
Y1025480D01*
X23974520D01*
Y8374520D01*
X18224520D01*
Y11525480D01*
X23974520D01*
Y18974520D01*
X14016350D01*
Y15974520D01*
X10974520D01*
Y18974520D01*
X1025480D01*
Y11525480D01*
X1025680Y11525680D02*
X6775680D01*
Y8374320D01*
X1025680D01*
Y1025680D01*
X23974320D01*
Y8374320D01*
X18224320D01*
Y11525680D01*
X23974320D01*
Y18974320D01*
X14016550D01*
Y15974320D01*
X10974320D01*
Y18974320D01*
X1025680D01*
Y11525680D01*
X1025880Y11525880D02*
X6775880D01*
Y8374120D01*
X1025880D01*
Y1025880D01*
X23974120D01*
Y8374120D01*
X18224120D01*
Y11525880D01*
X23974120D01*
Y18974120D01*
X14016750D01*
Y15974120D01*
X10974120D01*
Y18974120D01*
X1025880D01*
Y11525880D01*
X1026080Y11526080D02*
X6776080D01*
Y8373920D01*
X1026080D01*
Y1026080D01*
X23973920D01*
Y8373920D01*
X18223920D01*
Y11526080D01*
X23973920D01*
Y18973920D01*
X14016950D01*
Y15973920D01*
X10973920D01*
Y18973920D01*
X1026080D01*
Y11526080D01*
X1026280Y11526280D02*
X6776280D01*
Y8373720D01*
X1026280D01*
Y1026280D01*
X23973720D01*
Y8373720D01*
X18223720D01*
Y11526280D01*
X23973720D01*
Y18973720D01*
X14017150D01*
Y15973720D01*
X10973720D01*
Y18973720D01*
X1026280D01*
Y11526280D01*
X1026480Y11526480D02*
X6776480D01*
Y8373520D01*
X1026480D01*
Y1026480D01*
X23973520D01*
Y8373520D01*
X18223520D01*
Y11526480D01*
X23973520D01*
Y18973520D01*
X14017350D01*
Y15973520D01*
X10973520D01*
Y18973520D01*
X1026480D01*
Y11526480D01*
X1026680Y11526680D02*
X6776680D01*
Y8373320D01*
X1026680D01*
Y1026680D01*
X23973320D01*
Y8373320D01*
X18223320D01*
Y11526680D01*
X23973320D01*
Y18973320D01*
X14017550D01*
Y15973320D01*
X10973320D01*
Y18973320D01*
X1026680D01*
Y11526680D01*
X1026880Y11526880D02*
X6776880D01*
Y8373120D01*
X1026880D01*
Y1026880D01*
X23973120D01*
Y8373120D01*
X18223120D01*
Y11526880D01*
X23973120D01*
Y18973120D01*
X14017750D01*
Y15973120D01*
X10973120D01*
Y18973120D01*
X1026880D01*
Y11526880D01*
X1027080Y11527080D02*
X6777080D01*
Y8372920D01*
X1027080D01*
Y1027080D01*
X23972920D01*
Y8372920D01*
X18222920D01*
Y11527080D01*
X23972920D01*
Y18972920D01*
X14017950D01*
Y15972920D01*
X10972920D01*
Y18972920D01*
X1027080D01*
Y11527080D01*
X1027280Y11527280D02*
X6777280D01*
Y8372720D01*
X1027280D01*
Y1027280D01*
X23972720D01*
Y8372720D01*
X18222720D01*
Y11527280D01*
X23972720D01*
Y18972720D01*
X14018150D01*
Y15972720D01*
X10972720D01*
Y18972720D01*
X1027280D01*
Y11527280D01*
X1027480Y11527480D02*
X6777480D01*
Y8372520D01*
X1027480D01*
Y1027480D01*
X23972520D01*
Y8372520D01*
X18222520D01*
Y11527480D01*
X23972520D01*
Y18972520D01*
X14018350D01*
Y15972520D01*
X10972520D01*
Y18972520D01*
X1027480D01*
Y11527480D01*
X1027680Y11527680D02*
X6777680D01*
Y8372320D01*
X1027680D01*
Y1027680D01*
X23972320D01*
Y8372320D01*
X18222320D01*
Y11527680D01*
X23972320D01*
Y18972320D01*
X14018550D01*
Y15972320D01*
X10972320D01*
Y18972320D01*
X1027680D01*
Y11527680D01*
X1027880Y11527880D02*
X6777880D01*
Y8372120D01*
X1027880D01*
Y1027880D01*
X23972120D01*
Y8372120D01*
X18222120D01*
Y11527880D01*
X23972120D01*
Y18972120D01*
X14018750D01*
Y15972120D01*
X10972120D01*
Y18972120D01*
X1027880D01*
Y11527880D01*
X1028080Y11528080D02*
X6778080D01*
Y8371920D01*
X1028080D01*
Y1028080D01*
X23971920D01*
Y8371920D01*
X18221920D01*
Y11528080D01*
X23971920D01*
Y18971920D01*
X14018950D01*
Y15971920D01*
X10971920D01*
Y18971920D01*
X1028080D01*
Y11528080D01*
X1028280Y11528280D02*
X6778280D01*
Y8371720D01*
X1028280D01*
Y1028280D01*
X23971720D01*
Y8371720D01*
X18221720D01*
Y11528280D01*
X23971720D01*
Y18971720D01*
X14019150D01*
Y15971720D01*
X10971720D01*
Y18971720D01*
X1028280D01*
Y11528280D01*
X1028480Y11528480D02*
X6778480D01*
Y8371520D01*
X1028480D01*
Y1028480D01*
X23971520D01*
Y8371520D01*
X18221520D01*
Y11528480D01*
X23971520D01*
Y18971520D01*
X14019350D01*
Y15971520D01*
X10971520D01*
Y18971520D01*
X1028480D01*
Y11528480D01*
X1028680Y11528680D02*
X6778680D01*
Y8371320D01*
X1028680D01*
Y1028680D01*
X23971320D01*
Y8371320D01*
X18221320D01*
Y11528680D01*
X23971320D01*
Y18971320D01*
X14019550D01*
Y15971320D01*
X10971320D01*
Y18971320D01*
X1028680D01*
Y11528680D01*
X1028880Y11528880D02*
X6778880D01*
Y8371120D01*
X1028880D01*
Y1028880D01*
X23971120D01*
Y8371120D01*
X18221120D01*
Y11528880D01*
X23971120D01*
Y18971120D01*
X14019750D01*
Y15971120D01*
X10971120D01*
Y18971120D01*
X1028880D01*
Y11528880D01*
X1029080Y11529080D02*
X6779080D01*
Y8370920D01*
X1029080D01*
Y1029080D01*
X23970920D01*
Y8370920D01*
X18220920D01*
Y11529080D01*
X23970920D01*
Y18970920D01*
X14019950D01*
Y15970920D01*
X10970920D01*
Y18970920D01*
X1029080D01*
Y11529080D01*
X1029280Y11529280D02*
X6779280D01*
Y8370720D01*
X1029280D01*
Y1029280D01*
X23970720D01*
Y8370720D01*
X18220720D01*
Y11529280D01*
X23970720D01*
Y18970720D01*
X14020150D01*
Y15970720D01*
X10970720D01*
Y18970720D01*
X1029280D01*
Y11529280D01*
X1029480Y11529480D02*
X6779480D01*
Y8370520D01*
X1029480D01*
Y1029480D01*
X23970520D01*
Y8370520D01*
X18220520D01*
Y11529480D01*
X23970520D01*
Y18970520D01*
X14020350D01*
Y15970520D01*
X10970520D01*
Y18970520D01*
X1029480D01*
Y11529480D01*
X1029680Y11529680D02*
X6779680D01*
Y8370320D01*
X1029680D01*
Y1029680D01*
X23970320D01*
Y8370320D01*
X18220320D01*
Y11529680D01*
X23970320D01*
Y18970320D01*
X14020550D01*
Y15970320D01*
X10970320D01*
Y18970320D01*
X1029680D01*
Y11529680D01*
X1029880Y11529880D02*
X6779880D01*
Y8370120D01*
X1029880D01*
Y1029880D01*
X23970120D01*
Y8370120D01*
X18220120D01*
Y11529880D01*
X23970120D01*
Y18970120D01*
X14020750D01*
Y15970120D01*
X10970120D01*
Y18970120D01*
X1029880D01*
Y11529880D01*
X1030080Y11530080D02*
X6780080D01*
Y8369920D01*
X1030080D01*
Y1030080D01*
X23969920D01*
Y8369920D01*
X18219920D01*
Y11530080D01*
X23969920D01*
Y18969920D01*
X14020950D01*
Y15969920D01*
X10969920D01*
Y18969920D01*
X1030080D01*
Y11530080D01*
X1030280Y11530280D02*
X6780280D01*
Y8369720D01*
X1030280D01*
Y1030280D01*
X23969720D01*
Y8369720D01*
X18219720D01*
Y11530280D01*
X23969720D01*
Y18969720D01*
X14021150D01*
Y15969720D01*
X10969720D01*
Y18969720D01*
X1030280D01*
Y11530280D01*
X1030480Y11530480D02*
X6780480D01*
Y8369520D01*
X1030480D01*
Y1030480D01*
X23969520D01*
Y8369520D01*
X18219520D01*
Y11530480D01*
X23969520D01*
Y18969520D01*
X14021350D01*
Y15969520D01*
X10969520D01*
Y18969520D01*
X1030480D01*
Y11530480D01*
X1030680Y11530680D02*
X6780680D01*
Y8369320D01*
X1030680D01*
Y1030680D01*
X23969320D01*
Y8369320D01*
X18219320D01*
Y11530680D01*
X23969320D01*
Y18969320D01*
X14021550D01*
Y15969320D01*
X10969320D01*
Y18969320D01*
X1030680D01*
Y11530680D01*
X1030880Y11530880D02*
X6780880D01*
Y8369120D01*
X1030880D01*
Y1030880D01*
X23969120D01*
Y8369120D01*
X18219120D01*
Y11530880D01*
X23969120D01*
Y18969120D01*
X14021750D01*
Y15969120D01*
X10969120D01*
Y18969120D01*
X1030880D01*
Y11530880D01*
X1031080Y11531080D02*
X6781080D01*
Y8368920D01*
X1031080D01*
Y1031080D01*
X23968920D01*
Y8368920D01*
X18218920D01*
Y11531080D01*
X23968920D01*
Y18968920D01*
X14021950D01*
Y15968920D01*
X10968920D01*
Y18968920D01*
X1031080D01*
Y11531080D01*
X1031280Y11531280D02*
X6781280D01*
Y8368720D01*
X1031280D01*
Y1031280D01*
X23968720D01*
Y8368720D01*
X18218720D01*
Y11531280D01*
X23968720D01*
Y18968720D01*
X14022150D01*
Y15968720D01*
X10968720D01*
Y18968720D01*
X1031280D01*
Y11531280D01*
X1031480Y11531480D02*
X6781480D01*
Y8368520D01*
X1031480D01*
Y1031480D01*
X23968520D01*
Y8368520D01*
X18218520D01*
Y11531480D01*
X23968520D01*
Y18968520D01*
X14022350D01*
Y15968520D01*
X10968520D01*
Y18968520D01*
X1031480D01*
Y11531480D01*
X1031680Y11531680D02*
X6781680D01*
Y8368320D01*
X1031680D01*
Y1031680D01*
X23968320D01*
Y8368320D01*
X18218320D01*
Y11531680D01*
X23968320D01*
Y18968320D01*
X14022550D01*
Y15968320D01*
X10968320D01*
Y18968320D01*
X1031680D01*
Y11531680D01*
X1031880Y11531880D02*
X6781880D01*
Y8368120D01*
X1031880D01*
Y1031880D01*
X23968120D01*
Y8368120D01*
X18218120D01*
Y11531880D01*
X23968120D01*
Y18968120D01*
X14022750D01*
Y15968120D01*
X10968120D01*
Y18968120D01*
X1031880D01*
Y11531880D01*
X1032080Y11532080D02*
X6782080D01*
Y8367920D01*
X1032080D01*
Y1032080D01*
X23967920D01*
Y8367920D01*
X18217920D01*
Y11532080D01*
X23967920D01*
Y18967920D01*
X14022950D01*
Y15967920D01*
X10967920D01*
Y18967920D01*
X1032080D01*
Y11532080D01*
X1032280Y11532280D02*
X6782280D01*
Y8367720D01*
X1032280D01*
Y1032280D01*
X23967720D01*
Y8367720D01*
X18217720D01*
Y11532280D01*
X23967720D01*
Y18967720D01*
X14023150D01*
Y15967720D01*
X10967720D01*
Y18967720D01*
X1032280D01*
Y11532280D01*
X1032480Y11532480D02*
X6782480D01*
Y8367520D01*
X1032480D01*
Y1032480D01*
X23967520D01*
Y8367520D01*
X18217520D01*
Y11532480D01*
X23967520D01*
Y18967520D01*
X14023350D01*
Y15967520D01*
X10967520D01*
Y18967520D01*
X1032480D01*
Y11532480D01*
X1032680Y11532680D02*
X6782680D01*
Y8367320D01*
X1032680D01*
Y1032680D01*
X23967320D01*
Y8367320D01*
X18217320D01*
Y11532680D01*
X23967320D01*
Y18967320D01*
X14023550D01*
Y15967320D01*
X10967320D01*
Y18967320D01*
X1032680D01*
Y11532680D01*
X1032880Y11532880D02*
X6782880D01*
Y8367120D01*
X1032880D01*
Y1032880D01*
X23967120D01*
Y8367120D01*
X18217120D01*
Y11532880D01*
X23967120D01*
Y18967120D01*
X14023750D01*
Y15967120D01*
X10967120D01*
Y18967120D01*
X1032880D01*
Y11532880D01*
X1033080Y11533080D02*
X6783080D01*
Y8366920D01*
X1033080D01*
Y1033080D01*
X23966920D01*
Y8366920D01*
X18216920D01*
Y11533080D01*
X23966920D01*
Y18966920D01*
X14023950D01*
Y15966920D01*
X10966920D01*
Y18966920D01*
X1033080D01*
Y11533080D01*
X1033280Y11533280D02*
X6783280D01*
Y8366720D01*
X1033280D01*
Y1033280D01*
X23966720D01*
Y8366720D01*
X18216720D01*
Y11533280D01*
X23966720D01*
Y18966720D01*
X14024150D01*
Y15966720D01*
X10966720D01*
Y18966720D01*
X1033280D01*
Y11533280D01*
X1033480Y11533480D02*
X6783480D01*
Y8366520D01*
X1033480D01*
Y1033480D01*
X23966520D01*
Y8366520D01*
X18216520D01*
Y11533480D01*
X23966520D01*
Y18966520D01*
X14024350D01*
Y15966520D01*
X10966520D01*
Y18966520D01*
X1033480D01*
Y11533480D01*
X1033680Y11533680D02*
X6783680D01*
Y8366320D01*
X1033680D01*
Y1033680D01*
X23966320D01*
Y8366320D01*
X18216320D01*
Y11533680D01*
X23966320D01*
Y18966320D01*
X14024550D01*
Y15966320D01*
X10966320D01*
Y18966320D01*
X1033680D01*
Y11533680D01*
X1033880Y11533880D02*
X6783880D01*
Y8366120D01*
X1033880D01*
Y1033880D01*
X23966120D01*
Y8366120D01*
X18216120D01*
Y11533880D01*
X23966120D01*
Y18966120D01*
X14024750D01*
Y15966120D01*
X10966120D01*
Y18966120D01*
X1033880D01*
Y11533880D01*
X1034080Y11534080D02*
X6784080D01*
Y8365920D01*
X1034080D01*
Y1034080D01*
X23965920D01*
Y8365920D01*
X18215920D01*
Y11534080D01*
X23965920D01*
Y18965920D01*
X14024950D01*
Y15965920D01*
X10965920D01*
Y18965920D01*
X1034080D01*
Y11534080D01*
X1034280Y11534280D02*
X6784280D01*
Y8365720D01*
X1034280D01*
Y1034280D01*
X23965720D01*
Y8365720D01*
X18215720D01*
Y11534280D01*
X23965720D01*
Y18965720D01*
X14025150D01*
Y15965720D01*
X10965720D01*
Y18965720D01*
X1034280D01*
Y11534280D01*
X1034480Y11534480D02*
X6784480D01*
Y8365520D01*
X1034480D01*
Y1034480D01*
X23965520D01*
Y8365520D01*
X18215520D01*
Y11534480D01*
X23965520D01*
Y18965520D01*
X14025350D01*
Y15965520D01*
X10965520D01*
Y18965520D01*
X1034480D01*
Y11534480D01*
X1034680Y11534680D02*
X6784680D01*
Y8365320D01*
X1034680D01*
Y1034680D01*
X23965320D01*
Y8365320D01*
X18215320D01*
Y11534680D01*
X23965320D01*
Y18965320D01*
X14025550D01*
Y15965320D01*
X10965320D01*
Y18965320D01*
X1034680D01*
Y11534680D01*
X1034880Y11534880D02*
X6784880D01*
Y8365120D01*
X1034880D01*
Y1034880D01*
X23965120D01*
Y8365120D01*
X18215120D01*
Y11534880D01*
X23965120D01*
Y18965120D01*
X14025750D01*
Y15965120D01*
X10965120D01*
Y18965120D01*
X1034880D01*
Y11534880D01*
X1035080Y11535080D02*
X6785080D01*
Y8364920D01*
X1035080D01*
Y1035080D01*
X23964920D01*
Y8364920D01*
X18214920D01*
Y11535080D01*
X23964920D01*
Y18964920D01*
X14025950D01*
Y15964920D01*
X10964920D01*
Y18964920D01*
X1035080D01*
Y11535080D01*
X1035280Y11535280D02*
X6785280D01*
Y8364720D01*
X1035280D01*
Y1035280D01*
X23964720D01*
Y8364720D01*
X18214720D01*
Y11535280D01*
X23964720D01*
Y18964720D01*
X14026150D01*
Y15964720D01*
X10964720D01*
Y18964720D01*
X1035280D01*
Y11535280D01*
X1035480Y11535480D02*
X6785480D01*
Y8364520D01*
X1035480D01*
Y1035480D01*
X23964520D01*
Y8364520D01*
X18214520D01*
Y11535480D01*
X23964520D01*
Y18964520D01*
X14026350D01*
Y15964520D01*
X10964520D01*
Y18964520D01*
X1035480D01*
Y11535480D01*
X1035680Y11535680D02*
X6785680D01*
Y8364320D01*
X1035680D01*
Y1035680D01*
X23964320D01*
Y8364320D01*
X18214320D01*
Y11535680D01*
X23964320D01*
Y18964320D01*
X14026550D01*
Y15964320D01*
X10964320D01*
Y18964320D01*
X1035680D01*
Y11535680D01*
X1035880Y11535880D02*
X6785880D01*
Y8364120D01*
X1035880D01*
Y1035880D01*
X23964120D01*
Y8364120D01*
X18214120D01*
Y11535880D01*
X23964120D01*
Y18964120D01*
X14026750D01*
Y15964120D01*
X10964120D01*
Y18964120D01*
X1035880D01*
Y11535880D01*
X1036080Y11536080D02*
X6786080D01*
Y8363920D01*
X1036080D01*
Y1036080D01*
X23963920D01*
Y8363920D01*
X18213920D01*
Y11536080D01*
X23963920D01*
Y18963920D01*
X14026950D01*
Y15963920D01*
X10963920D01*
Y18963920D01*
X1036080D01*
Y11536080D01*
X1036280Y11536280D02*
X6786280D01*
Y8363720D01*
X1036280D01*
Y1036280D01*
X23963720D01*
Y8363720D01*
X18213720D01*
Y11536280D01*
X23963720D01*
Y18963720D01*
X14027150D01*
Y15963720D01*
X10963720D01*
Y18963720D01*
X1036280D01*
Y11536280D01*
X1036480Y11536480D02*
X6786480D01*
Y8363520D01*
X1036480D01*
Y1036480D01*
X23963520D01*
Y8363520D01*
X18213520D01*
Y11536480D01*
X23963520D01*
Y18963520D01*
X14027350D01*
Y15963520D01*
X10963520D01*
Y18963520D01*
X1036480D01*
Y11536480D01*
X1036680Y11536680D02*
X6786680D01*
Y8363320D01*
X1036680D01*
Y1036680D01*
X23963320D01*
Y8363320D01*
X18213320D01*
Y11536680D01*
X23963320D01*
Y18963320D01*
X14027550D01*
Y15963320D01*
X10963320D01*
Y18963320D01*
X1036680D01*
Y11536680D01*
X1036880Y11536880D02*
X6786880D01*
Y8363120D01*
X1036880D01*
Y1036880D01*
X23963120D01*
Y8363120D01*
X18213120D01*
Y11536880D01*
X23963120D01*
Y18963120D01*
X14027750D01*
Y15963120D01*
X10963120D01*
Y18963120D01*
X1036880D01*
Y11536880D01*
X1037080Y11537080D02*
X6787080D01*
Y8362920D01*
X1037080D01*
Y1037080D01*
X23962920D01*
Y8362920D01*
X18212920D01*
Y11537080D01*
X23962920D01*
Y18962920D01*
X14027950D01*
Y15962920D01*
X10962920D01*
Y18962920D01*
X1037080D01*
Y11537080D01*
X1037280Y11537280D02*
X6787280D01*
Y8362720D01*
X1037280D01*
Y1037280D01*
X23962720D01*
Y8362720D01*
X18212720D01*
Y11537280D01*
X23962720D01*
Y18962720D01*
X14028150D01*
Y15962720D01*
X10962720D01*
Y18962720D01*
X1037280D01*
Y11537280D01*
X1037480Y11537480D02*
X6787480D01*
Y8362520D01*
X1037480D01*
Y1037480D01*
X23962520D01*
Y8362520D01*
X18212520D01*
Y11537480D01*
X23962520D01*
Y18962520D01*
X14028350D01*
Y15962520D01*
X10962520D01*
Y18962520D01*
X1037480D01*
Y11537480D01*
X1037680Y11537680D02*
X6787680D01*
Y8362320D01*
X1037680D01*
Y1037680D01*
X23962320D01*
Y8362320D01*
X18212320D01*
Y11537680D01*
X23962320D01*
Y18962320D01*
X14028550D01*
Y15962320D01*
X10962320D01*
Y18962320D01*
X1037680D01*
Y11537680D01*
X1037880Y11537880D02*
X6787880D01*
Y8362120D01*
X1037880D01*
Y1037880D01*
X23962120D01*
Y8362120D01*
X18212120D01*
Y11537880D01*
X23962120D01*
Y18962120D01*
X14028750D01*
Y15962120D01*
X10962120D01*
Y18962120D01*
X1037880D01*
Y11537880D01*
X1038080Y11538080D02*
X6788080D01*
Y8361920D01*
X1038080D01*
Y1038080D01*
X23961920D01*
Y8361920D01*
X18211920D01*
Y11538080D01*
X23961920D01*
Y18961920D01*
X14028950D01*
Y15961920D01*
X10961920D01*
Y18961920D01*
X1038080D01*
Y11538080D01*
X1038280Y11538280D02*
X6788280D01*
Y8361720D01*
X1038280D01*
Y1038280D01*
X23961720D01*
Y8361720D01*
X18211720D01*
Y11538280D01*
X23961720D01*
Y18961720D01*
X14029150D01*
Y15961720D01*
X10961720D01*
Y18961720D01*
X1038280D01*
Y11538280D01*
X1038480Y11538480D02*
X6788480D01*
Y8361520D01*
X1038480D01*
Y1038480D01*
X23961520D01*
Y8361520D01*
X18211520D01*
Y11538480D01*
X23961520D01*
Y18961520D01*
X14029350D01*
Y15961520D01*
X10961520D01*
Y18961520D01*
X1038480D01*
Y11538480D01*
X1038680Y11538680D02*
X6788680D01*
Y8361320D01*
X1038680D01*
Y1038680D01*
X23961320D01*
Y8361320D01*
X18211320D01*
Y11538680D01*
X23961320D01*
Y18961320D01*
X14029550D01*
Y15961320D01*
X10961320D01*
Y18961320D01*
X1038680D01*
Y11538680D01*
X1038880Y11538880D02*
X6788880D01*
Y8361120D01*
X1038880D01*
Y1038880D01*
X23961120D01*
Y8361120D01*
X18211120D01*
Y11538880D01*
X23961120D01*
Y18961120D01*
X14029750D01*
Y15961120D01*
X10961120D01*
Y18961120D01*
X1038880D01*
Y11538880D01*
X1039080Y11539080D02*
X6789080D01*
Y8360920D01*
X1039080D01*
Y1039080D01*
X23960920D01*
Y8360920D01*
X18210920D01*
Y11539080D01*
X23960920D01*
Y18960920D01*
X14029950D01*
Y15960920D01*
X10960920D01*
Y18960920D01*
X1039080D01*
Y11539080D01*
X1039280Y11539280D02*
X6789280D01*
Y8360720D01*
X1039280D01*
Y1039280D01*
X23960720D01*
Y8360720D01*
X18210720D01*
Y11539280D01*
X23960720D01*
Y18960720D01*
X14030150D01*
Y15960720D01*
X10960720D01*
Y18960720D01*
X1039280D01*
Y11539280D01*
X1039480Y11539480D02*
X6789480D01*
Y8360520D01*
X1039480D01*
Y1039480D01*
X23960520D01*
Y8360520D01*
X18210520D01*
Y11539480D01*
X23960520D01*
Y18960520D01*
X14030350D01*
Y15960520D01*
X10960520D01*
Y18960520D01*
X1039480D01*
Y11539480D01*
X1039680Y11539680D02*
X6789680D01*
Y8360320D01*
X1039680D01*
Y1039680D01*
X23960320D01*
Y8360320D01*
X18210320D01*
Y11539680D01*
X23960320D01*
Y18960320D01*
X14030550D01*
Y15960320D01*
X10960320D01*
Y18960320D01*
X1039680D01*
Y11539680D01*
X1039880Y11539880D02*
X6789880D01*
Y8360120D01*
X1039880D01*
Y1039880D01*
X23960120D01*
Y8360120D01*
X18210120D01*
Y11539880D01*
X23960120D01*
Y18960120D01*
X14030750D01*
Y15960120D01*
X10960120D01*
Y18960120D01*
X1039880D01*
Y11539880D01*
X1040080Y11540080D02*
X6790080D01*
Y8359920D01*
X1040080D01*
Y1040080D01*
X23959920D01*
Y8359920D01*
X18209920D01*
Y11540080D01*
X23959920D01*
Y18959920D01*
X14030950D01*
Y15959920D01*
X10959920D01*
Y18959920D01*
X1040080D01*
Y11540080D01*
X1040280Y11540280D02*
X6790280D01*
Y8359720D01*
X1040280D01*
Y1040280D01*
X23959720D01*
Y8359720D01*
X18209720D01*
Y11540280D01*
X23959720D01*
Y18959720D01*
X14031150D01*
Y15959720D01*
X10959720D01*
Y18959720D01*
X1040280D01*
Y11540280D01*
X1040480Y11540480D02*
X6790480D01*
Y8359520D01*
X1040480D01*
Y1040480D01*
X23959520D01*
Y8359520D01*
X18209520D01*
Y11540480D01*
X23959520D01*
Y18959520D01*
X14031350D01*
Y15959520D01*
X10959520D01*
Y18959520D01*
X1040480D01*
Y11540480D01*
X1040680Y11540680D02*
X6790680D01*
Y8359320D01*
X1040680D01*
Y1040680D01*
X23959320D01*
Y8359320D01*
X18209320D01*
Y11540680D01*
X23959320D01*
Y18959320D01*
X14031550D01*
Y15959320D01*
X10959320D01*
Y18959320D01*
X1040680D01*
Y11540680D01*
X1040880Y11540880D02*
X6790880D01*
Y8359120D01*
X1040880D01*
Y1040880D01*
X23959120D01*
Y8359120D01*
X18209120D01*
Y11540880D01*
X23959120D01*
Y18959120D01*
X14031750D01*
Y15959120D01*
X10959120D01*
Y18959120D01*
X1040880D01*
Y11540880D01*
X1041080Y11541080D02*
X6791080D01*
Y8358920D01*
X1041080D01*
Y1041080D01*
X23958920D01*
Y8358920D01*
X18208920D01*
Y11541080D01*
X23958920D01*
Y18958920D01*
X14031950D01*
Y15958920D01*
X10958920D01*
Y18958920D01*
X1041080D01*
Y11541080D01*
X1041280Y11541280D02*
X6791280D01*
Y8358720D01*
X1041280D01*
Y1041280D01*
X23958720D01*
Y8358720D01*
X18208720D01*
Y11541280D01*
X23958720D01*
Y18958720D01*
X14032150D01*
Y15958720D01*
X10958720D01*
Y18958720D01*
X1041280D01*
Y11541280D01*
X1041480Y11541480D02*
X6791480D01*
Y8358520D01*
X1041480D01*
Y1041480D01*
X23958520D01*
Y8358520D01*
X18208520D01*
Y11541480D01*
X23958520D01*
Y18958520D01*
X14032350D01*
Y15958520D01*
X10958520D01*
Y18958520D01*
X1041480D01*
Y11541480D01*
X1041680Y11541680D02*
X6791680D01*
Y8358320D01*
X1041680D01*
Y1041680D01*
X23958320D01*
Y8358320D01*
X18208320D01*
Y11541680D01*
X23958320D01*
Y18958320D01*
X14032550D01*
Y15958320D01*
X10958320D01*
Y18958320D01*
X1041680D01*
Y11541680D01*
X1041880Y11541880D02*
X6791880D01*
Y8358120D01*
X1041880D01*
Y1041880D01*
X23958120D01*
Y8358120D01*
X18208120D01*
Y11541880D01*
X23958120D01*
Y18958120D01*
X14032750D01*
Y15958120D01*
X10958120D01*
Y18958120D01*
X1041880D01*
Y11541880D01*
X1042080Y11542080D02*
X6792080D01*
Y8357920D01*
X1042080D01*
Y1042080D01*
X23957920D01*
Y8357920D01*
X18207920D01*
Y11542080D01*
X23957920D01*
Y18957920D01*
X14032950D01*
Y15957920D01*
X10957920D01*
Y18957920D01*
X1042080D01*
Y11542080D01*
X1042280Y11542280D02*
X6792280D01*
Y8357720D01*
X1042280D01*
Y1042280D01*
X23957720D01*
Y8357720D01*
X18207720D01*
Y11542280D01*
X23957720D01*
Y18957720D01*
X14033150D01*
Y15957720D01*
X10957720D01*
Y18957720D01*
X1042280D01*
Y11542280D01*
X1042480Y11542480D02*
X6792480D01*
Y8357520D01*
X1042480D01*
Y1042480D01*
X23957520D01*
Y8357520D01*
X18207520D01*
Y11542480D01*
X23957520D01*
Y18957520D01*
X14033350D01*
Y15957520D01*
X10957520D01*
Y18957520D01*
X1042480D01*
Y11542480D01*
X1042680Y11542680D02*
X6792680D01*
Y8357320D01*
X1042680D01*
Y1042680D01*
X23957320D01*
Y8357320D01*
X18207320D01*
Y11542680D01*
X23957320D01*
Y18957320D01*
X14033550D01*
Y15957320D01*
X10957320D01*
Y18957320D01*
X1042680D01*
Y11542680D01*
X1042880Y11542880D02*
X6792880D01*
Y8357120D01*
X1042880D01*
Y1042880D01*
X23957120D01*
Y8357120D01*
X18207120D01*
Y11542880D01*
X23957120D01*
Y18957120D01*
X14033750D01*
Y15957120D01*
X10957120D01*
Y18957120D01*
X1042880D01*
Y11542880D01*
X1043080Y11543080D02*
X6793080D01*
Y8356920D01*
X1043080D01*
Y1043080D01*
X23956920D01*
Y8356920D01*
X18206920D01*
Y11543080D01*
X23956920D01*
Y18956920D01*
X14033950D01*
Y15956920D01*
X10956920D01*
Y18956920D01*
X1043080D01*
Y11543080D01*
X1043280Y11543280D02*
X6793280D01*
Y8356720D01*
X1043280D01*
Y1043280D01*
X23956720D01*
Y8356720D01*
X18206720D01*
Y11543280D01*
X23956720D01*
Y18956720D01*
X14034150D01*
Y15956720D01*
X10956720D01*
Y18956720D01*
X1043280D01*
Y11543280D01*
X1043480Y11543480D02*
X6793480D01*
Y8356520D01*
X1043480D01*
Y1043480D01*
X23956520D01*
Y8356520D01*
X18206520D01*
Y11543480D01*
X23956520D01*
Y18956520D01*
X14034350D01*
Y15956520D01*
X10956520D01*
Y18956520D01*
X1043480D01*
Y11543480D01*
X1043680Y11543680D02*
X6793680D01*
Y8356320D01*
X1043680D01*
Y1043680D01*
X23956320D01*
Y8356320D01*
X18206320D01*
Y11543680D01*
X23956320D01*
Y18956320D01*
X14034550D01*
Y15956320D01*
X10956320D01*
Y18956320D01*
X1043680D01*
Y11543680D01*
X1043880Y11543880D02*
X6793880D01*
Y8356120D01*
X1043880D01*
Y1043880D01*
X23956120D01*
Y8356120D01*
X18206120D01*
Y11543880D01*
X23956120D01*
Y18956120D01*
X14034750D01*
Y15956120D01*
X10956120D01*
Y18956120D01*
X1043880D01*
Y11543880D01*
X1044080Y11544080D02*
X6794080D01*
Y8355920D01*
X1044080D01*
Y1044080D01*
X23955920D01*
Y8355920D01*
X18205920D01*
Y11544080D01*
X23955920D01*
Y18955920D01*
X14034950D01*
Y15955920D01*
X10955920D01*
Y18955920D01*
X1044080D01*
Y11544080D01*
X1044280Y11544280D02*
X6794280D01*
Y8355720D01*
X1044280D01*
Y1044280D01*
X23955720D01*
Y8355720D01*
X18205720D01*
Y11544280D01*
X23955720D01*
Y18955720D01*
X14035150D01*
Y15955720D01*
X10955720D01*
Y18955720D01*
X1044280D01*
Y11544280D01*
X1044480Y11544480D02*
X6794480D01*
Y8355520D01*
X1044480D01*
Y1044480D01*
X23955520D01*
Y8355520D01*
X18205520D01*
Y11544480D01*
X23955520D01*
Y18955520D01*
X14035350D01*
Y15955520D01*
X10955520D01*
Y18955520D01*
X1044480D01*
Y11544480D01*
X1044680Y11544680D02*
X6794680D01*
Y8355320D01*
X1044680D01*
Y1044680D01*
X23955320D01*
Y8355320D01*
X18205320D01*
Y11544680D01*
X23955320D01*
Y18955320D01*
X14035550D01*
Y15955320D01*
X10955320D01*
Y18955320D01*
X1044680D01*
Y11544680D01*
X1044880Y11544880D02*
X6794880D01*
Y8355120D01*
X1044880D01*
Y1044880D01*
X23955120D01*
Y8355120D01*
X18205120D01*
Y11544880D01*
X23955120D01*
Y18955120D01*
X14035750D01*
Y15955120D01*
X10955120D01*
Y18955120D01*
X1044880D01*
Y11544880D01*
X1045080Y11545080D02*
X6795080D01*
Y8354920D01*
X1045080D01*
Y1045080D01*
X23954920D01*
Y8354920D01*
X18204920D01*
Y11545080D01*
X23954920D01*
Y18954920D01*
X14035950D01*
Y15954920D01*
X10954920D01*
Y18954920D01*
X1045080D01*
Y11545080D01*
X1045280Y11545280D02*
X6795280D01*
Y8354720D01*
X1045280D01*
Y1045280D01*
X23954720D01*
Y8354720D01*
X18204720D01*
Y11545280D01*
X23954720D01*
Y18954720D01*
X14036150D01*
Y15954720D01*
X10954720D01*
Y18954720D01*
X1045280D01*
Y11545280D01*
X1045480Y11545480D02*
X6795480D01*
Y8354520D01*
X1045480D01*
Y1045480D01*
X23954520D01*
Y8354520D01*
X18204520D01*
Y11545480D01*
X23954520D01*
Y18954520D01*
X14036350D01*
Y15954520D01*
X10954520D01*
Y18954520D01*
X1045480D01*
Y11545480D01*
X1045680Y11545680D02*
X6795680D01*
Y8354320D01*
X1045680D01*
Y1045680D01*
X23954320D01*
Y8354320D01*
X18204320D01*
Y11545680D01*
X23954320D01*
Y18954320D01*
X14036550D01*
Y15954320D01*
X10954320D01*
Y18954320D01*
X1045680D01*
Y11545680D01*
X1045880Y11545880D02*
X6795880D01*
Y8354120D01*
X1045880D01*
Y1045880D01*
X23954120D01*
Y8354120D01*
X18204120D01*
Y11545880D01*
X23954120D01*
Y18954120D01*
X14036750D01*
Y15954120D01*
X10954120D01*
Y18954120D01*
X1045880D01*
Y11545880D01*
X1046080Y11546080D02*
X6796080D01*
Y8353920D01*
X1046080D01*
Y1046080D01*
X23953920D01*
Y8353920D01*
X18203920D01*
Y11546080D01*
X23953920D01*
Y18953920D01*
X14036950D01*
Y15953920D01*
X10953920D01*
Y18953920D01*
X1046080D01*
Y11546080D01*
X1046280Y11546280D02*
X6796280D01*
Y8353720D01*
X1046280D01*
Y1046280D01*
X23953720D01*
Y8353720D01*
X18203720D01*
Y11546280D01*
X23953720D01*
Y18953720D01*
X14037150D01*
Y15953720D01*
X10953720D01*
Y18953720D01*
X1046280D01*
Y11546280D01*
X1046480Y11546480D02*
X6796480D01*
Y8353520D01*
X1046480D01*
Y1046480D01*
X23953520D01*
Y8353520D01*
X18203520D01*
Y11546480D01*
X23953520D01*
Y18953520D01*
X14037350D01*
Y15953520D01*
X10953520D01*
Y18953520D01*
X1046480D01*
Y11546480D01*
X1046680Y11546680D02*
X6796680D01*
Y8353320D01*
X1046680D01*
Y1046680D01*
X23953320D01*
Y8353320D01*
X18203320D01*
Y11546680D01*
X23953320D01*
Y18953320D01*
X14037550D01*
Y15953320D01*
X10953320D01*
Y18953320D01*
X1046680D01*
Y11546680D01*
X1046880Y11546880D02*
X6796880D01*
Y8353120D01*
X1046880D01*
Y1046880D01*
X23953120D01*
Y8353120D01*
X18203120D01*
Y11546880D01*
X23953120D01*
Y18953120D01*
X14037750D01*
Y15953120D01*
X10953120D01*
Y18953120D01*
X1046880D01*
Y11546880D01*
X1047080Y11547080D02*
X6797080D01*
Y8352920D01*
X1047080D01*
Y1047080D01*
X23952920D01*
Y8352920D01*
X18202920D01*
Y11547080D01*
X23952920D01*
Y18952920D01*
X14037950D01*
Y15952920D01*
X10952920D01*
Y18952920D01*
X1047080D01*
Y11547080D01*
X1047280Y11547280D02*
X6797280D01*
Y8352720D01*
X1047280D01*
Y1047280D01*
X23952720D01*
Y8352720D01*
X18202720D01*
Y11547280D01*
X23952720D01*
Y18952720D01*
X14038150D01*
Y15952720D01*
X10952720D01*
Y18952720D01*
X1047280D01*
Y11547280D01*
X1047480Y11547480D02*
X6797480D01*
Y8352520D01*
X1047480D01*
Y1047480D01*
X23952520D01*
Y8352520D01*
X18202520D01*
Y11547480D01*
X23952520D01*
Y18952520D01*
X14038350D01*
Y15952520D01*
X10952520D01*
Y18952520D01*
X1047480D01*
Y11547480D01*
X1047680Y11547680D02*
X6797680D01*
Y8352320D01*
X1047680D01*
Y1047680D01*
X23952320D01*
Y8352320D01*
X18202320D01*
Y11547680D01*
X23952320D01*
Y18952320D01*
X14038550D01*
Y15952320D01*
X10952320D01*
Y18952320D01*
X1047680D01*
Y11547680D01*
X1047880Y11547880D02*
X6797880D01*
Y8352120D01*
X1047880D01*
Y1047880D01*
X23952120D01*
Y8352120D01*
X18202120D01*
Y11547880D01*
X23952120D01*
Y18952120D01*
X14038750D01*
Y15952120D01*
X10952120D01*
Y18952120D01*
X1047880D01*
Y11547880D01*
X1048080Y11548080D02*
X6798080D01*
Y8351920D01*
X1048080D01*
Y1048080D01*
X23951920D01*
Y8351920D01*
X18201920D01*
Y11548080D01*
X23951920D01*
Y18951920D01*
X14038950D01*
Y15951920D01*
X10951920D01*
Y18951920D01*
X1048080D01*
Y11548080D01*
X1048280Y11548280D02*
X6798280D01*
Y8351720D01*
X1048280D01*
Y1048280D01*
X23951720D01*
Y8351720D01*
X18201720D01*
Y11548280D01*
X23951720D01*
Y18951720D01*
X14039150D01*
Y15951720D01*
X10951720D01*
Y18951720D01*
X1048280D01*
Y11548280D01*
X1048480Y11548480D02*
X6798480D01*
Y8351520D01*
X1048480D01*
Y1048480D01*
X23951520D01*
Y8351520D01*
X18201520D01*
Y11548480D01*
X23951520D01*
Y18951520D01*
X14039350D01*
Y15951520D01*
X10951520D01*
Y18951520D01*
X1048480D01*
Y11548480D01*
X1048680Y11548680D02*
X6798680D01*
Y8351320D01*
X1048680D01*
Y1048680D01*
X23951320D01*
Y8351320D01*
X18201320D01*
Y11548680D01*
X23951320D01*
Y18951320D01*
X14039550D01*
Y15951320D01*
X10951320D01*
Y18951320D01*
X1048680D01*
Y11548680D01*
X1048880Y11548880D02*
X6798880D01*
Y8351120D01*
X1048880D01*
Y1048880D01*
X23951120D01*
Y8351120D01*
X18201120D01*
Y11548880D01*
X23951120D01*
Y18951120D01*
X14039750D01*
Y15951120D01*
X10951120D01*
Y18951120D01*
X1048880D01*
Y11548880D01*
X1049080Y11549080D02*
X6799080D01*
Y8350920D01*
X1049080D01*
Y1049080D01*
X23950920D01*
Y8350920D01*
X18200920D01*
Y11549080D01*
X23950920D01*
Y18950920D01*
X14039950D01*
Y15950920D01*
X10950920D01*
Y18950920D01*
X1049080D01*
Y11549080D01*
X1049280Y11549280D02*
X6799280D01*
Y8350720D01*
X1049280D01*
Y1049280D01*
X23950720D01*
Y8350720D01*
X18200720D01*
Y11549280D01*
X23950720D01*
Y18950720D01*
X14040150D01*
Y15950720D01*
X10950720D01*
Y18950720D01*
X1049280D01*
Y11549280D01*
X1049480Y11549480D02*
X6799480D01*
Y8350520D01*
X1049480D01*
Y1049480D01*
X23950520D01*
Y8350520D01*
X18200520D01*
Y11549480D01*
X23950520D01*
Y18950520D01*
X14040350D01*
Y15950520D01*
X10950520D01*
Y18950520D01*
X1049480D01*
Y11549480D01*
X1049680Y11549680D02*
X6799680D01*
Y8350320D01*
X1049680D01*
Y1049680D01*
X23950320D01*
Y8350320D01*
X18200320D01*
Y11549680D01*
X23950320D01*
Y18950320D01*
X14040550D01*
Y15950320D01*
X10950320D01*
Y18950320D01*
X1049680D01*
Y11549680D01*
X1049880Y11549880D02*
X6799880D01*
Y8350120D01*
X1049880D01*
Y1049880D01*
X23950120D01*
Y8350120D01*
X18200120D01*
Y11549880D01*
X23950120D01*
Y18950120D01*
X14040750D01*
Y15950120D01*
X10950120D01*
Y18950120D01*
X1049880D01*
Y11549880D01*
X1050080Y11550080D02*
X6800080D01*
Y8349920D01*
X1050080D01*
Y1050080D01*
X23949920D01*
Y8349920D01*
X18199920D01*
Y11550080D01*
X23949920D01*
Y18949920D01*
X14040950D01*
Y15949920D01*
X10949920D01*
Y18949920D01*
X1050080D01*
Y11550080D01*
X1050280Y11550280D02*
X6800280D01*
Y8349720D01*
X1050280D01*
Y1050280D01*
X23949720D01*
Y8349720D01*
X18199720D01*
Y11550280D01*
X23949720D01*
Y18949720D01*
X14041150D01*
Y15949720D01*
X10949720D01*
Y18949720D01*
X1050280D01*
Y11550280D01*
X1050480Y11550480D02*
X6800480D01*
Y8349520D01*
X1050480D01*
Y1050480D01*
X23949520D01*
Y8349520D01*
X18199520D01*
Y11550480D01*
X23949520D01*
Y18949520D01*
X14041350D01*
Y15949520D01*
X10949520D01*
Y18949520D01*
X1050480D01*
Y11550480D01*
X1050680Y11550680D02*
X6800680D01*
Y8349320D01*
X1050680D01*
Y1050680D01*
X23949320D01*
Y8349320D01*
X18199320D01*
Y11550680D01*
X23949320D01*
Y18949320D01*
X14041550D01*
Y15949320D01*
X10949320D01*
Y18949320D01*
X1050680D01*
Y11550680D01*
X1050880Y11550880D02*
X6800880D01*
Y8349120D01*
X1050880D01*
Y1050880D01*
X23949120D01*
Y8349120D01*
X18199120D01*
Y11550880D01*
X23949120D01*
Y18949120D01*
X14041750D01*
Y15949120D01*
X10949120D01*
Y18949120D01*
X1050880D01*
Y11550880D01*
X1051080Y11551080D02*
X6801080D01*
Y8348920D01*
X1051080D01*
Y1051080D01*
X23948920D01*
Y8348920D01*
X18198920D01*
Y11551080D01*
X23948920D01*
Y18948920D01*
X14041950D01*
Y15948920D01*
X10948920D01*
Y18948920D01*
X1051080D01*
Y11551080D01*
X1051280Y11551280D02*
X6801280D01*
Y8348720D01*
X1051280D01*
Y1051280D01*
X23948720D01*
Y8348720D01*
X18198720D01*
Y11551280D01*
X23948720D01*
Y18948720D01*
X14042150D01*
Y15948720D01*
X10948720D01*
Y18948720D01*
X1051280D01*
Y11551280D01*
X1051480Y11551480D02*
X6801480D01*
Y8348520D01*
X1051480D01*
Y1051480D01*
X23948520D01*
Y8348520D01*
X18198520D01*
Y11551480D01*
X23948520D01*
Y18948520D01*
X14042350D01*
Y15948520D01*
X10948520D01*
Y18948520D01*
X1051480D01*
Y11551480D01*
X1051680Y11551680D02*
X6801680D01*
Y8348320D01*
X1051680D01*
Y1051680D01*
X23948320D01*
Y8348320D01*
X18198320D01*
Y11551680D01*
X23948320D01*
Y18948320D01*
X14042550D01*
Y15948320D01*
X10948320D01*
Y18948320D01*
X1051680D01*
Y11551680D01*
X1051880Y11551880D02*
X6801880D01*
Y8348120D01*
X1051880D01*
Y1051880D01*
X23948120D01*
Y8348120D01*
X18198120D01*
Y11551880D01*
X23948120D01*
Y18948120D01*
X14042750D01*
Y15948120D01*
X10948120D01*
Y18948120D01*
X1051880D01*
Y11551880D01*
X1052080Y11552080D02*
X6802080D01*
Y8347920D01*
X1052080D01*
Y1052080D01*
X23947920D01*
Y8347920D01*
X18197920D01*
Y11552080D01*
X23947920D01*
Y18947920D01*
X14042950D01*
Y15947920D01*
X10947920D01*
Y18947920D01*
X1052080D01*
Y11552080D01*
X1052280Y11552280D02*
X6802280D01*
Y8347720D01*
X1052280D01*
Y1052280D01*
X23947720D01*
Y8347720D01*
X18197720D01*
Y11552280D01*
X23947720D01*
Y18947720D01*
X14043150D01*
Y15947720D01*
X10947720D01*
Y18947720D01*
X1052280D01*
Y11552280D01*
X1052480Y11552480D02*
X6802480D01*
Y8347520D01*
X1052480D01*
Y1052480D01*
X23947520D01*
Y8347520D01*
X18197520D01*
Y11552480D01*
X23947520D01*
Y18947520D01*
X14043350D01*
Y15947520D01*
X10947520D01*
Y18947520D01*
X1052480D01*
Y11552480D01*
X1052680Y11552680D02*
X6802680D01*
Y8347320D01*
X1052680D01*
Y1052680D01*
X23947320D01*
Y8347320D01*
X18197320D01*
Y11552680D01*
X23947320D01*
Y18947320D01*
X14043550D01*
Y15947320D01*
X10947320D01*
Y18947320D01*
X1052680D01*
Y11552680D01*
X1052880Y11552880D02*
X6802880D01*
Y8347120D01*
X1052880D01*
Y1052880D01*
X23947120D01*
Y8347120D01*
X18197120D01*
Y11552880D01*
X23947120D01*
Y18947120D01*
X14043750D01*
Y15947120D01*
X10947120D01*
Y18947120D01*
X1052880D01*
Y11552880D01*
X1053080Y11553080D02*
X6803080D01*
Y8346920D01*
X1053080D01*
Y1053080D01*
X23946920D01*
Y8346920D01*
X18196920D01*
Y11553080D01*
X23946920D01*
Y18946920D01*
X14043950D01*
Y15946920D01*
X10946920D01*
Y18946920D01*
X1053080D01*
Y11553080D01*
X1053280Y11553280D02*
X6803280D01*
Y8346720D01*
X1053280D01*
Y1053280D01*
X23946720D01*
Y8346720D01*
X18196720D01*
Y11553280D01*
X23946720D01*
Y18946720D01*
X14044150D01*
Y15946720D01*
X10946720D01*
Y18946720D01*
X1053280D01*
Y11553280D01*
X1053480Y11553480D02*
X6803480D01*
Y8346520D01*
X1053480D01*
Y1053480D01*
X23946520D01*
Y8346520D01*
X18196520D01*
Y11553480D01*
X23946520D01*
Y18946520D01*
X14044350D01*
Y15946520D01*
X10946520D01*
Y18946520D01*
X1053480D01*
Y11553480D01*
X1053680Y11553680D02*
X6803680D01*
Y8346320D01*
X1053680D01*
Y1053680D01*
X23946320D01*
Y8346320D01*
X18196320D01*
Y11553680D01*
X23946320D01*
Y18946320D01*
X14044550D01*
Y15946320D01*
X10946320D01*
Y18946320D01*
X1053680D01*
Y11553680D01*
X1053880Y11553880D02*
X6803880D01*
Y8346120D01*
X1053880D01*
Y1053880D01*
X23946120D01*
Y8346120D01*
X18196120D01*
Y11553880D01*
X23946120D01*
Y18946120D01*
X14044750D01*
Y15946120D01*
X10946120D01*
Y18946120D01*
X1053880D01*
Y11553880D01*
X1054080Y11554080D02*
X6804080D01*
Y8345920D01*
X1054080D01*
Y1054080D01*
X23945920D01*
Y8345920D01*
X18195920D01*
Y11554080D01*
X23945920D01*
Y18945920D01*
X14044950D01*
Y15945920D01*
X10945920D01*
Y18945920D01*
X1054080D01*
Y11554080D01*
X1054280Y11554280D02*
X6804280D01*
Y8345720D01*
X1054280D01*
Y1054280D01*
X23945720D01*
Y8345720D01*
X18195720D01*
Y11554280D01*
X23945720D01*
Y18945720D01*
X14045150D01*
Y15945720D01*
X10945720D01*
Y18945720D01*
X1054280D01*
Y11554280D01*
X1054480Y11554480D02*
X6804480D01*
Y8345520D01*
X1054480D01*
Y1054480D01*
X23945520D01*
Y8345520D01*
X18195520D01*
Y11554480D01*
X23945520D01*
Y18945520D01*
X14045350D01*
Y15945520D01*
X10945520D01*
Y18945520D01*
X1054480D01*
Y11554480D01*
X1054680Y11554680D02*
X6804680D01*
Y8345320D01*
X1054680D01*
Y1054680D01*
X23945320D01*
Y8345320D01*
X18195320D01*
Y11554680D01*
X23945320D01*
Y18945320D01*
X14045550D01*
Y15945320D01*
X10945320D01*
Y18945320D01*
X1054680D01*
Y11554680D01*
X1054880Y11554880D02*
X6804880D01*
Y8345120D01*
X1054880D01*
Y1054880D01*
X23945120D01*
Y8345120D01*
X18195120D01*
Y11554880D01*
X23945120D01*
Y18945120D01*
X14045750D01*
Y15945120D01*
X10945120D01*
Y18945120D01*
X1054880D01*
Y11554880D01*
X1055080Y11555080D02*
X6805080D01*
Y8344920D01*
X1055080D01*
Y1055080D01*
X23944920D01*
Y8344920D01*
X18194920D01*
Y11555080D01*
X23944920D01*
Y18944920D01*
X14045950D01*
Y15944920D01*
X10944920D01*
Y18944920D01*
X1055080D01*
Y11555080D01*
X1055280Y11555280D02*
X6805280D01*
Y8344720D01*
X1055280D01*
Y1055280D01*
X23944720D01*
Y8344720D01*
X18194720D01*
Y11555280D01*
X23944720D01*
Y18944720D01*
X14046150D01*
Y15944720D01*
X10944720D01*
Y18944720D01*
X1055280D01*
Y11555280D01*
X1055480Y11555480D02*
X6805480D01*
Y8344520D01*
X1055480D01*
Y1055480D01*
X23944520D01*
Y8344520D01*
X18194520D01*
Y11555480D01*
X23944520D01*
Y18944520D01*
X14046350D01*
Y15944520D01*
X10944520D01*
Y18944520D01*
X1055480D01*
Y11555480D01*
X1055680Y11555680D02*
X6805680D01*
Y8344320D01*
X1055680D01*
Y1055680D01*
X23944320D01*
Y8344320D01*
X18194320D01*
Y11555680D01*
X23944320D01*
Y18944320D01*
X14046550D01*
Y15944320D01*
X10944320D01*
Y18944320D01*
X1055680D01*
Y11555680D01*
X1055880Y11555880D02*
X6805880D01*
Y8344120D01*
X1055880D01*
Y1055880D01*
X23944120D01*
Y8344120D01*
X18194120D01*
Y11555880D01*
X23944120D01*
Y18944120D01*
X14046750D01*
Y15944120D01*
X10944120D01*
Y18944120D01*
X1055880D01*
Y11555880D01*
X1056080Y11556080D02*
X6806080D01*
Y8343920D01*
X1056080D01*
Y1056080D01*
X23943920D01*
Y8343920D01*
X18193920D01*
Y11556080D01*
X23943920D01*
Y18943920D01*
X14046950D01*
Y15943920D01*
X10943920D01*
Y18943920D01*
X1056080D01*
Y11556080D01*
X1056280Y11556280D02*
X6806280D01*
Y8343720D01*
X1056280D01*
Y1056280D01*
X23943720D01*
Y8343720D01*
X18193720D01*
Y11556280D01*
X23943720D01*
Y18943720D01*
X14047150D01*
Y15943720D01*
X10943720D01*
Y18943720D01*
X1056280D01*
Y11556280D01*
X1056480Y11556480D02*
X6806480D01*
Y8343520D01*
X1056480D01*
Y1056480D01*
X23943520D01*
Y8343520D01*
X18193520D01*
Y11556480D01*
X23943520D01*
Y18943520D01*
X14047350D01*
Y15943520D01*
X10943520D01*
Y18943520D01*
X1056480D01*
Y11556480D01*
X1056680Y11556680D02*
X6806680D01*
Y8343320D01*
X1056680D01*
Y1056680D01*
X23943320D01*
Y8343320D01*
X18193320D01*
Y11556680D01*
X23943320D01*
Y18943320D01*
X14047550D01*
Y15943320D01*
X10943320D01*
Y18943320D01*
X1056680D01*
Y11556680D01*
X1056880Y11556880D02*
X6806880D01*
Y8343120D01*
X1056880D01*
Y1056880D01*
X23943120D01*
Y8343120D01*
X18193120D01*
Y11556880D01*
X23943120D01*
Y18943120D01*
X14047750D01*
Y15943120D01*
X10943120D01*
Y18943120D01*
X1056880D01*
Y11556880D01*
X1057080Y11557080D02*
X6807080D01*
Y8342920D01*
X1057080D01*
Y1057080D01*
X23942920D01*
Y8342920D01*
X18192920D01*
Y11557080D01*
X23942920D01*
Y18942920D01*
X14047950D01*
Y15942920D01*
X10942920D01*
Y18942920D01*
X1057080D01*
Y11557080D01*
X1057280Y11557280D02*
X6807280D01*
Y8342720D01*
X1057280D01*
Y1057280D01*
X23942720D01*
Y8342720D01*
X18192720D01*
Y11557280D01*
X23942720D01*
Y18942720D01*
X14048150D01*
Y15942720D01*
X10942720D01*
Y18942720D01*
X1057280D01*
Y11557280D01*
X1057480Y11557480D02*
X6807480D01*
Y8342520D01*
X1057480D01*
Y1057480D01*
X23942520D01*
Y8342520D01*
X18192520D01*
Y11557480D01*
X23942520D01*
Y18942520D01*
X14048350D01*
Y15942520D01*
X10942520D01*
Y18942520D01*
X1057480D01*
Y11557480D01*
X1057680Y11557680D02*
X6807680D01*
Y8342320D01*
X1057680D01*
Y1057680D01*
X23942320D01*
Y8342320D01*
X18192320D01*
Y11557680D01*
X23942320D01*
Y18942320D01*
X14048550D01*
Y15942320D01*
X10942320D01*
Y18942320D01*
X1057680D01*
Y11557680D01*
X1057880Y11557880D02*
X6807880D01*
Y8342120D01*
X1057880D01*
Y1057880D01*
X23942120D01*
Y8342120D01*
X18192120D01*
Y11557880D01*
X23942120D01*
Y18942120D01*
X14048750D01*
Y15942120D01*
X10942120D01*
Y18942120D01*
X1057880D01*
Y11557880D01*
X1058080Y11558080D02*
X6808080D01*
Y8341920D01*
X1058080D01*
Y1058080D01*
X23941920D01*
Y8341920D01*
X18191920D01*
Y11558080D01*
X23941920D01*
Y18941920D01*
X14048950D01*
Y15941920D01*
X10941920D01*
Y18941920D01*
X1058080D01*
Y11558080D01*
X1058280Y11558280D02*
X6808280D01*
Y8341720D01*
X1058280D01*
Y1058280D01*
X23941720D01*
Y8341720D01*
X18191720D01*
Y11558280D01*
X23941720D01*
Y18941720D01*
X14049150D01*
Y15941720D01*
X10941720D01*
Y18941720D01*
X1058280D01*
Y11558280D01*
X1058480Y11558480D02*
X6808480D01*
Y8341520D01*
X1058480D01*
Y1058480D01*
X23941520D01*
Y8341520D01*
X18191520D01*
Y11558480D01*
X23941520D01*
Y18941520D01*
X14049350D01*
Y15941520D01*
X10941520D01*
Y18941520D01*
X1058480D01*
Y11558480D01*
X1058680Y11558680D02*
X6808680D01*
Y8341320D01*
X1058680D01*
Y1058680D01*
X23941320D01*
Y8341320D01*
X18191320D01*
Y11558680D01*
X23941320D01*
Y18941320D01*
X14049550D01*
Y15941320D01*
X10941320D01*
Y18941320D01*
X1058680D01*
Y11558680D01*
X1058880Y11558880D02*
X6808880D01*
Y8341120D01*
X1058880D01*
Y1058880D01*
X23941120D01*
Y8341120D01*
X18191120D01*
Y11558880D01*
X23941120D01*
Y18941120D01*
X14049750D01*
Y15941120D01*
X10941120D01*
Y18941120D01*
X1058880D01*
Y11558880D01*
X1059080Y11559080D02*
X6809080D01*
Y8340920D01*
X1059080D01*
Y1059080D01*
X23940920D01*
Y8340920D01*
X18190920D01*
Y11559080D01*
X23940920D01*
Y18940920D01*
X14049950D01*
Y15940920D01*
X10940920D01*
Y18940920D01*
X1059080D01*
Y11559080D01*
X1059280Y11559280D02*
X6809280D01*
Y8340720D01*
X1059280D01*
Y1059280D01*
X23940720D01*
Y8340720D01*
X18190720D01*
Y11559280D01*
X23940720D01*
Y18940720D01*
X14050150D01*
Y15940720D01*
X10940720D01*
Y18940720D01*
X1059280D01*
Y11559280D01*
X1059480Y11559480D02*
X6809480D01*
Y8340520D01*
X1059480D01*
Y1059480D01*
X23940520D01*
Y8340520D01*
X18190520D01*
Y11559480D01*
X23940520D01*
Y18940520D01*
X14050350D01*
Y15940520D01*
X10940520D01*
Y18940520D01*
X1059480D01*
Y11559480D01*
X1059680Y11559680D02*
X6809680D01*
Y8340320D01*
X1059680D01*
Y1059680D01*
X23940320D01*
Y8340320D01*
X18190320D01*
Y11559680D01*
X23940320D01*
Y18940320D01*
X14050550D01*
Y15940320D01*
X10940320D01*
Y18940320D01*
X1059680D01*
Y11559680D01*
X1059880Y11559880D02*
X6809880D01*
Y8340120D01*
X1059880D01*
Y1059880D01*
X23940120D01*
Y8340120D01*
X18190120D01*
Y11559880D01*
X23940120D01*
Y18940120D01*
X14050750D01*
Y15940120D01*
X10940120D01*
Y18940120D01*
X1059880D01*
Y11559880D01*
X1060080Y11560080D02*
X6810080D01*
Y8339920D01*
X1060080D01*
Y1060080D01*
X23939920D01*
Y8339920D01*
X18189920D01*
Y11560080D01*
X23939920D01*
Y18939920D01*
X14050950D01*
Y15939920D01*
X10939920D01*
Y18939920D01*
X1060080D01*
Y11560080D01*
X1060280Y11560280D02*
X6810280D01*
Y8339720D01*
X1060280D01*
Y1060280D01*
X23939720D01*
Y8339720D01*
X18189720D01*
Y11560280D01*
X23939720D01*
Y18939720D01*
X14051150D01*
Y15939720D01*
X10939720D01*
Y18939720D01*
X1060280D01*
Y11560280D01*
X1060480Y11560480D02*
X6810480D01*
Y8339520D01*
X1060480D01*
Y1060480D01*
X23939520D01*
Y8339520D01*
X18189520D01*
Y11560480D01*
X23939520D01*
Y18939520D01*
X14051350D01*
Y15939520D01*
X10939520D01*
Y18939520D01*
X1060480D01*
Y11560480D01*
X1060680Y11560680D02*
X6810680D01*
Y8339320D01*
X1060680D01*
Y1060680D01*
X23939320D01*
Y8339320D01*
X18189320D01*
Y11560680D01*
X23939320D01*
Y18939320D01*
X14051550D01*
Y15939320D01*
X10939320D01*
Y18939320D01*
X1060680D01*
Y11560680D01*
X1060880Y11560880D02*
X6810880D01*
Y8339120D01*
X1060880D01*
Y1060880D01*
X23939120D01*
Y8339120D01*
X18189120D01*
Y11560880D01*
X23939120D01*
Y18939120D01*
X14051750D01*
Y15939120D01*
X10939120D01*
Y18939120D01*
X1060880D01*
Y11560880D01*
X1061080Y11561080D02*
X6811080D01*
Y8338920D01*
X1061080D01*
Y1061080D01*
X23938920D01*
Y8338920D01*
X18188920D01*
Y11561080D01*
X23938920D01*
Y18938920D01*
X14051950D01*
Y15938920D01*
X10938920D01*
Y18938920D01*
X1061080D01*
Y11561080D01*
X1061280Y11561280D02*
X6811280D01*
Y8338720D01*
X1061280D01*
Y1061280D01*
X23938720D01*
Y8338720D01*
X18188720D01*
Y11561280D01*
X23938720D01*
Y18938720D01*
X14052150D01*
Y15938720D01*
X10938720D01*
Y18938720D01*
X1061280D01*
Y11561280D01*
X1061480Y11561480D02*
X6811480D01*
Y8338520D01*
X1061480D01*
Y1061480D01*
X23938520D01*
Y8338520D01*
X18188520D01*
Y11561480D01*
X23938520D01*
Y18938520D01*
X14052350D01*
Y15938520D01*
X10938520D01*
Y18938520D01*
X1061480D01*
Y11561480D01*
X1061680Y11561680D02*
X6811680D01*
Y8338320D01*
X1061680D01*
Y1061680D01*
X23938320D01*
Y8338320D01*
X18188320D01*
Y11561680D01*
X23938320D01*
Y18938320D01*
X14052550D01*
Y15938320D01*
X10938320D01*
Y18938320D01*
X1061680D01*
Y11561680D01*
X1061880Y11561880D02*
X6811880D01*
Y8338120D01*
X1061880D01*
Y1061880D01*
X23938120D01*
Y8338120D01*
X18188120D01*
Y11561880D01*
X23938120D01*
Y18938120D01*
X14052750D01*
Y15938120D01*
X10938120D01*
Y18938120D01*
X1061880D01*
Y11561880D01*
X1062080Y11562080D02*
X6812080D01*
Y8337920D01*
X1062080D01*
Y1062080D01*
X23937920D01*
Y8337920D01*
X18187920D01*
Y11562080D01*
X23937920D01*
Y18937920D01*
X14052950D01*
Y15937920D01*
X10937920D01*
Y18937920D01*
X1062080D01*
Y11562080D01*
X1062280Y11562280D02*
X6812280D01*
Y8337720D01*
X1062280D01*
Y1062280D01*
X23937720D01*
Y8337720D01*
X18187720D01*
Y11562280D01*
X23937720D01*
Y18937720D01*
X14053150D01*
Y15937720D01*
X10937720D01*
Y18937720D01*
X1062280D01*
Y11562280D01*
X1062480Y11562480D02*
X6812480D01*
Y8337520D01*
X1062480D01*
Y1062480D01*
X23937520D01*
Y8337520D01*
X18187520D01*
Y11562480D01*
X23937520D01*
Y18937520D01*
X14053350D01*
Y15937520D01*
X10937520D01*
Y18937520D01*
X1062480D01*
Y11562480D01*
X1062680Y11562680D02*
X6812680D01*
Y8337320D01*
X1062680D01*
Y1062680D01*
X23937320D01*
Y8337320D01*
X18187320D01*
Y11562680D01*
X23937320D01*
Y18937320D01*
X14053550D01*
Y15937320D01*
X10937320D01*
Y18937320D01*
X1062680D01*
Y11562680D01*
X1062880Y11562880D02*
X6812880D01*
Y8337120D01*
X1062880D01*
Y1062880D01*
X23937120D01*
Y8337120D01*
X18187120D01*
Y11562880D01*
X23937120D01*
Y18937120D01*
X14053750D01*
Y15937120D01*
X10937120D01*
Y18937120D01*
X1062880D01*
Y11562880D01*
X1063080Y11563080D02*
X6813080D01*
Y8336920D01*
X1063080D01*
Y1063080D01*
X23936920D01*
Y8336920D01*
X18186920D01*
Y11563080D01*
X23936920D01*
Y18936920D01*
X14053950D01*
Y15936920D01*
X10936920D01*
Y18936920D01*
X1063080D01*
Y11563080D01*
X1063280Y11563280D02*
X6813280D01*
Y8336720D01*
X1063280D01*
Y1063280D01*
X23936720D01*
Y8336720D01*
X18186720D01*
Y11563280D01*
X23936720D01*
Y18936720D01*
X14054150D01*
Y15936720D01*
X10936720D01*
Y18936720D01*
X1063280D01*
Y11563280D01*
X1063480Y11563480D02*
X6813480D01*
Y8336520D01*
X1063480D01*
Y1063480D01*
X23936520D01*
Y8336520D01*
X18186520D01*
Y11563480D01*
X23936520D01*
Y18936520D01*
X14054350D01*
Y15936520D01*
X10936520D01*
Y18936520D01*
X1063480D01*
Y11563480D01*
X1063680Y11563680D02*
X6813680D01*
Y8336320D01*
X1063680D01*
Y1063680D01*
X23936320D01*
Y8336320D01*
X18186320D01*
Y11563680D01*
X23936320D01*
Y18936320D01*
X14054550D01*
Y15936320D01*
X10936320D01*
Y18936320D01*
X1063680D01*
Y11563680D01*
X1063880Y11563880D02*
X6813880D01*
Y8336120D01*
X1063880D01*
Y1063880D01*
X23936120D01*
Y8336120D01*
X18186120D01*
Y11563880D01*
X23936120D01*
Y18936120D01*
X14054750D01*
Y15936120D01*
X10936120D01*
Y18936120D01*
X1063880D01*
Y11563880D01*
X1064080Y11564080D02*
X6814080D01*
Y8335920D01*
X1064080D01*
Y1064080D01*
X23935920D01*
Y8335920D01*
X18185920D01*
Y11564080D01*
X23935920D01*
Y18935920D01*
X14054950D01*
Y15935920D01*
X10935920D01*
Y18935920D01*
X1064080D01*
Y11564080D01*
X1064280Y11564280D02*
X6814280D01*
Y8335720D01*
X1064280D01*
Y1064280D01*
X23935720D01*
Y8335720D01*
X18185720D01*
Y11564280D01*
X23935720D01*
Y18935720D01*
X14055150D01*
Y15935720D01*
X10935720D01*
Y18935720D01*
X1064280D01*
Y11564280D01*
X1064480Y11564480D02*
X6814480D01*
Y8335520D01*
X1064480D01*
Y1064480D01*
X23935520D01*
Y8335520D01*
X18185520D01*
Y11564480D01*
X23935520D01*
Y18935520D01*
X14055350D01*
Y15935520D01*
X10935520D01*
Y18935520D01*
X1064480D01*
Y11564480D01*
X1064680Y11564680D02*
X6814680D01*
Y8335320D01*
X1064680D01*
Y1064680D01*
X23935320D01*
Y8335320D01*
X18185320D01*
Y11564680D01*
X23935320D01*
Y18935320D01*
X14055550D01*
Y15935320D01*
X10935320D01*
Y18935320D01*
X1064680D01*
Y11564680D01*
X1064880Y11564880D02*
X6814880D01*
Y8335120D01*
X1064880D01*
Y1064880D01*
X23935120D01*
Y8335120D01*
X18185120D01*
Y11564880D01*
X23935120D01*
Y18935120D01*
X14055750D01*
Y15935120D01*
X10935120D01*
Y18935120D01*
X1064880D01*
Y11564880D01*
X1065080Y11565080D02*
X6815080D01*
Y8334920D01*
X1065080D01*
Y1065080D01*
X23934920D01*
Y8334920D01*
X18184920D01*
Y11565080D01*
X23934920D01*
Y18934920D01*
X14055950D01*
Y15934920D01*
X10934920D01*
Y18934920D01*
X1065080D01*
Y11565080D01*
X1065280Y11565280D02*
X6815280D01*
Y8334720D01*
X1065280D01*
Y1065280D01*
X23934720D01*
Y8334720D01*
X18184720D01*
Y11565280D01*
X23934720D01*
Y18934720D01*
X14056150D01*
Y15934720D01*
X10934720D01*
Y18934720D01*
X1065280D01*
Y11565280D01*
X1065480Y11565480D02*
X6815480D01*
Y8334520D01*
X1065480D01*
Y1065480D01*
X23934520D01*
Y8334520D01*
X18184520D01*
Y11565480D01*
X23934520D01*
Y18934520D01*
X14056350D01*
Y15934520D01*
X10934520D01*
Y18934520D01*
X1065480D01*
Y11565480D01*
X1065680Y11565680D02*
X6815680D01*
Y8334320D01*
X1065680D01*
Y1065680D01*
X23934320D01*
Y8334320D01*
X18184320D01*
Y11565680D01*
X23934320D01*
Y18934320D01*
X14056550D01*
Y15934320D01*
X10934320D01*
Y18934320D01*
X1065680D01*
Y11565680D01*
X1065880Y11565880D02*
X6815880D01*
Y8334120D01*
X1065880D01*
Y1065880D01*
X23934120D01*
Y8334120D01*
X18184120D01*
Y11565880D01*
X23934120D01*
Y18934120D01*
X14056750D01*
Y15934120D01*
X10934120D01*
Y18934120D01*
X1065880D01*
Y11565880D01*
X1066080Y11566080D02*
X6816080D01*
Y8333920D01*
X1066080D01*
Y1066080D01*
X23933920D01*
Y8333920D01*
X18183920D01*
Y11566080D01*
X23933920D01*
Y18933920D01*
X14056950D01*
Y15933920D01*
X10933920D01*
Y18933920D01*
X1066080D01*
Y11566080D01*
X1066280Y11566280D02*
X6816280D01*
Y8333720D01*
X1066280D01*
Y1066280D01*
X23933720D01*
Y8333720D01*
X18183720D01*
Y11566280D01*
X23933720D01*
Y18933720D01*
X14057150D01*
Y15933720D01*
X10933720D01*
Y18933720D01*
X1066280D01*
Y11566280D01*
X1066480Y11566480D02*
X6816480D01*
Y8333520D01*
X1066480D01*
Y1066480D01*
X23933520D01*
Y8333520D01*
X18183520D01*
Y11566480D01*
X23933520D01*
Y18933520D01*
X14057350D01*
Y15933520D01*
X10933520D01*
Y18933520D01*
X1066480D01*
Y11566480D01*
X1066680Y11566680D02*
X6816680D01*
Y8333320D01*
X1066680D01*
Y1066680D01*
X23933320D01*
Y8333320D01*
X18183320D01*
Y11566680D01*
X23933320D01*
Y18933320D01*
X14057550D01*
Y15933320D01*
X10933320D01*
Y18933320D01*
X1066680D01*
Y11566680D01*
X1066880Y11566880D02*
X6816880D01*
Y8333120D01*
X1066880D01*
Y1066880D01*
X23933120D01*
Y8333120D01*
X18183120D01*
Y11566880D01*
X23933120D01*
Y18933120D01*
X14057750D01*
Y15933120D01*
X10933120D01*
Y18933120D01*
X1066880D01*
Y11566880D01*
X1067080Y11567080D02*
X6817080D01*
Y8332920D01*
X1067080D01*
Y1067080D01*
X23932920D01*
Y8332920D01*
X18182920D01*
Y11567080D01*
X23932920D01*
Y18932920D01*
X14057950D01*
Y15932920D01*
X10932920D01*
Y18932920D01*
X1067080D01*
Y11567080D01*
X1067280Y11567280D02*
X6817280D01*
Y8332720D01*
X1067280D01*
Y1067280D01*
X23932720D01*
Y8332720D01*
X18182720D01*
Y11567280D01*
X23932720D01*
Y18932720D01*
X14058150D01*
Y15932720D01*
X10932720D01*
Y18932720D01*
X1067280D01*
Y11567280D01*
X1067480Y11567480D02*
X6817480D01*
Y8332520D01*
X1067480D01*
Y1067480D01*
X23932520D01*
Y8332520D01*
X18182520D01*
Y11567480D01*
X23932520D01*
Y18932520D01*
X14058350D01*
Y15932520D01*
X10932520D01*
Y18932520D01*
X1067480D01*
Y11567480D01*
X1067680Y11567680D02*
X6817680D01*
Y8332320D01*
X1067680D01*
Y1067680D01*
X23932320D01*
Y8332320D01*
X18182320D01*
Y11567680D01*
X23932320D01*
Y18932320D01*
X14058550D01*
Y15932320D01*
X10932320D01*
Y18932320D01*
X1067680D01*
Y11567680D01*
X1067880Y11567880D02*
X6817880D01*
Y8332120D01*
X1067880D01*
Y1067880D01*
X23932120D01*
Y8332120D01*
X18182120D01*
Y11567880D01*
X23932120D01*
Y18932120D01*
X14058750D01*
Y15932120D01*
X10932120D01*
Y18932120D01*
X1067880D01*
Y11567880D01*
X1068080Y11568080D02*
X6818080D01*
Y8331920D01*
X1068080D01*
Y1068080D01*
X23931920D01*
Y8331920D01*
X18181920D01*
Y11568080D01*
X23931920D01*
Y18931920D01*
X14058950D01*
Y15931920D01*
X10931920D01*
Y18931920D01*
X1068080D01*
Y11568080D01*
X1068280Y11568280D02*
X6818280D01*
Y8331720D01*
X1068280D01*
Y1068280D01*
X23931720D01*
Y8331720D01*
X18181720D01*
Y11568280D01*
X23931720D01*
Y18931720D01*
X14059150D01*
Y15931720D01*
X10931720D01*
Y18931720D01*
X1068280D01*
Y11568280D01*
X1068480Y11568480D02*
X6818480D01*
Y8331520D01*
X1068480D01*
Y1068480D01*
X23931520D01*
Y8331520D01*
X18181520D01*
Y11568480D01*
X23931520D01*
Y18931520D01*
X14059350D01*
Y15931520D01*
X10931520D01*
Y18931520D01*
X1068480D01*
Y11568480D01*
X1068680Y11568680D02*
X6818680D01*
Y8331320D01*
X1068680D01*
Y1068680D01*
X23931320D01*
Y8331320D01*
X18181320D01*
Y11568680D01*
X23931320D01*
Y18931320D01*
X14059550D01*
Y15931320D01*
X10931320D01*
Y18931320D01*
X1068680D01*
Y11568680D01*
X1068880Y11568880D02*
X6818880D01*
Y8331120D01*
X1068880D01*
Y1068880D01*
X23931120D01*
Y8331120D01*
X18181120D01*
Y11568880D01*
X23931120D01*
Y18931120D01*
X14059750D01*
Y15931120D01*
X10931120D01*
Y18931120D01*
X1068880D01*
Y11568880D01*
X1069080Y11569080D02*
X6819080D01*
Y8330920D01*
X1069080D01*
Y1069080D01*
X23930920D01*
Y8330920D01*
X18180920D01*
Y11569080D01*
X23930920D01*
Y18930920D01*
X14059950D01*
Y15930920D01*
X10930920D01*
Y18930920D01*
X1069080D01*
Y11569080D01*
X1069280Y11569280D02*
X6819280D01*
Y8330720D01*
X1069280D01*
Y1069280D01*
X23930720D01*
Y8330720D01*
X18180720D01*
Y11569280D01*
X23930720D01*
Y18930720D01*
X14060150D01*
Y15930720D01*
X10930720D01*
Y18930720D01*
X1069280D01*
Y11569280D01*
X1069480Y11569480D02*
X6819480D01*
Y8330520D01*
X1069480D01*
Y1069480D01*
X23930520D01*
Y8330520D01*
X18180520D01*
Y11569480D01*
X23930520D01*
Y18930520D01*
X14060350D01*
Y15930520D01*
X10930520D01*
Y18930520D01*
X1069480D01*
Y11569480D01*
X1069680Y11569680D02*
X6819680D01*
Y8330320D01*
X1069680D01*
Y1069680D01*
X23930320D01*
Y8330320D01*
X18180320D01*
Y11569680D01*
X23930320D01*
Y18930320D01*
X14060550D01*
Y15930320D01*
X10930320D01*
Y18930320D01*
X1069680D01*
Y11569680D01*
X1069880Y11569880D02*
X6819880D01*
Y8330120D01*
X1069880D01*
Y1069880D01*
X23930120D01*
Y8330120D01*
X18180120D01*
Y11569880D01*
X23930120D01*
Y18930120D01*
X14060750D01*
Y15930120D01*
X10930120D01*
Y18930120D01*
X1069880D01*
Y11569880D01*
X1070080Y11570080D02*
X6820080D01*
Y8329920D01*
X1070080D01*
Y1070080D01*
X23929920D01*
Y8329920D01*
X18179920D01*
Y11570080D01*
X23929920D01*
Y18929920D01*
X14060950D01*
Y15929920D01*
X10929920D01*
Y18929920D01*
X1070080D01*
Y11570080D01*
X1070280Y11570280D02*
X6820280D01*
Y8329720D01*
X1070280D01*
Y1070280D01*
X23929720D01*
Y8329720D01*
X18179720D01*
Y11570280D01*
X23929720D01*
Y18929720D01*
X14061150D01*
Y15929720D01*
X10929720D01*
Y18929720D01*
X1070280D01*
Y11570280D01*
X1070480Y11570480D02*
X6820480D01*
Y8329520D01*
X1070480D01*
Y1070480D01*
X23929520D01*
Y8329520D01*
X18179520D01*
Y11570480D01*
X23929520D01*
Y18929520D01*
X14061350D01*
Y15929520D01*
X10929520D01*
Y18929520D01*
X1070480D01*
Y11570480D01*
X1070680Y11570680D02*
X6820680D01*
Y8329320D01*
X1070680D01*
Y1070680D01*
X23929320D01*
Y8329320D01*
X18179320D01*
Y11570680D01*
X23929320D01*
Y18929320D01*
X14061550D01*
Y15929320D01*
X10929320D01*
Y18929320D01*
X1070680D01*
Y11570680D01*
X1070880Y11570880D02*
X6820880D01*
Y8329120D01*
X1070880D01*
Y1070880D01*
X23929120D01*
Y8329120D01*
X18179120D01*
Y11570880D01*
X23929120D01*
Y18929120D01*
X14061750D01*
Y15929120D01*
X10929120D01*
Y18929120D01*
X1070880D01*
Y11570880D01*
X1071080Y11571080D02*
X6821080D01*
Y8328920D01*
X1071080D01*
Y1071080D01*
X23928920D01*
Y8328920D01*
X18178920D01*
Y11571080D01*
X23928920D01*
Y18928920D01*
X14061950D01*
Y15928920D01*
X10928920D01*
Y18928920D01*
X1071080D01*
Y11571080D01*
X1071280Y11571280D02*
X6821280D01*
Y8328720D01*
X1071280D01*
Y1071280D01*
X23928720D01*
Y8328720D01*
X18178720D01*
Y11571280D01*
X23928720D01*
Y18928720D01*
X14062150D01*
Y15928720D01*
X10928720D01*
Y18928720D01*
X1071280D01*
Y11571280D01*
X1071480Y11571480D02*
X6821480D01*
Y8328520D01*
X1071480D01*
Y1071480D01*
X23928520D01*
Y8328520D01*
X18178520D01*
Y11571480D01*
X23928520D01*
Y18928520D01*
X14062350D01*
Y15928520D01*
X10928520D01*
Y18928520D01*
X1071480D01*
Y11571480D01*
X1071680Y11571680D02*
X6821680D01*
Y8328320D01*
X1071680D01*
Y1071680D01*
X23928320D01*
Y8328320D01*
X18178320D01*
Y11571680D01*
X23928320D01*
Y18928320D01*
X14062550D01*
Y15928320D01*
X10928320D01*
Y18928320D01*
X1071680D01*
Y11571680D01*
X1071880Y11571880D02*
X6821880D01*
Y8328120D01*
X1071880D01*
Y1071880D01*
X23928120D01*
Y8328120D01*
X18178120D01*
Y11571880D01*
X23928120D01*
Y18928120D01*
X14062750D01*
Y15928120D01*
X10928120D01*
Y18928120D01*
X1071880D01*
Y11571880D01*
X1072080Y11572080D02*
X6822080D01*
Y8327920D01*
X1072080D01*
Y1072080D01*
X23927920D01*
Y8327920D01*
X18177920D01*
Y11572080D01*
X23927920D01*
Y18927920D01*
X14062950D01*
Y15927920D01*
X10927920D01*
Y18927920D01*
X1072080D01*
Y11572080D01*
X1072280Y11572280D02*
X6822280D01*
Y8327720D01*
X1072280D01*
Y1072280D01*
X23927720D01*
Y8327720D01*
X18177720D01*
Y11572280D01*
X23927720D01*
Y18927720D01*
X14063150D01*
Y15927720D01*
X10927720D01*
Y18927720D01*
X1072280D01*
Y11572280D01*
X1072480Y11572480D02*
X6822480D01*
Y8327520D01*
X1072480D01*
Y1072480D01*
X23927520D01*
Y8327520D01*
X18177520D01*
Y11572480D01*
X23927520D01*
Y18927520D01*
X14063350D01*
Y15927520D01*
X10927520D01*
Y18927520D01*
X1072480D01*
Y11572480D01*
X1072680Y11572680D02*
X6822680D01*
Y8327320D01*
X1072680D01*
Y1072680D01*
X23927320D01*
Y8327320D01*
X18177320D01*
Y11572680D01*
X23927320D01*
Y18927320D01*
X14063550D01*
Y15927320D01*
X10927320D01*
Y18927320D01*
X1072680D01*
Y11572680D01*
X1072880Y11572880D02*
X6822880D01*
Y8327120D01*
X1072880D01*
Y1072880D01*
X23927120D01*
Y8327120D01*
X18177120D01*
Y11572880D01*
X23927120D01*
Y18927120D01*
X14063750D01*
Y15927120D01*
X10927120D01*
Y18927120D01*
X1072880D01*
Y11572880D01*
X1073080Y11573080D02*
X6823080D01*
Y8326920D01*
X1073080D01*
Y1073080D01*
X23926920D01*
Y8326920D01*
X18176920D01*
Y11573080D01*
X23926920D01*
Y18926920D01*
X14063950D01*
Y15926920D01*
X10926920D01*
Y18926920D01*
X1073080D01*
Y11573080D01*
X1073280Y11573280D02*
X6823280D01*
Y8326720D01*
X1073280D01*
Y1073280D01*
X23926720D01*
Y8326720D01*
X18176720D01*
Y11573280D01*
X23926720D01*
Y18926720D01*
X14064150D01*
Y15926720D01*
X10926720D01*
Y18926720D01*
X1073280D01*
Y11573280D01*
X1073480Y11573480D02*
X6823480D01*
Y8326520D01*
X1073480D01*
Y1073480D01*
X23926520D01*
Y8326520D01*
X18176520D01*
Y11573480D01*
X23926520D01*
Y18926520D01*
X14064350D01*
Y15926520D01*
X10926520D01*
Y18926520D01*
X1073480D01*
Y11573480D01*
X1073680Y11573680D02*
X6823680D01*
Y8326320D01*
X1073680D01*
Y1073680D01*
X23926320D01*
Y8326320D01*
X18176320D01*
Y11573680D01*
X23926320D01*
Y18926320D01*
X14064550D01*
Y15926320D01*
X10926320D01*
Y18926320D01*
X1073680D01*
Y11573680D01*
X1073880Y11573880D02*
X6823880D01*
Y8326120D01*
X1073880D01*
Y1073880D01*
X23926120D01*
Y8326120D01*
X18176120D01*
Y11573880D01*
X23926120D01*
Y18926120D01*
X14064750D01*
Y15926120D01*
X10926120D01*
Y18926120D01*
X1073880D01*
Y11573880D01*
X1074080Y11574080D02*
X6824080D01*
Y8325920D01*
X1074080D01*
Y1074080D01*
X23925920D01*
Y8325920D01*
X18175920D01*
Y11574080D01*
X23925920D01*
Y18925920D01*
X14064950D01*
Y15925920D01*
X10925920D01*
Y18925920D01*
X1074080D01*
Y11574080D01*
X1074280Y11574280D02*
X6824280D01*
Y8325720D01*
X1074280D01*
Y1074280D01*
X23925720D01*
Y8325720D01*
X18175720D01*
Y11574280D01*
X23925720D01*
Y18925720D01*
X14065150D01*
Y15925720D01*
X10925720D01*
Y18925720D01*
X1074280D01*
Y11574280D01*
X1074480Y11574480D02*
X6824480D01*
Y8325520D01*
X1074480D01*
Y1074480D01*
X23925520D01*
Y8325520D01*
X18175520D01*
Y11574480D01*
X23925520D01*
Y18925520D01*
X14065350D01*
Y15925520D01*
X10925520D01*
Y18925520D01*
X1074480D01*
Y11574480D01*
X1074680Y11574680D02*
X6824680D01*
Y8325320D01*
X1074680D01*
Y1074680D01*
X23925320D01*
Y8325320D01*
X18175320D01*
Y11574680D01*
X23925320D01*
Y18925320D01*
X14065550D01*
Y15925320D01*
X10925320D01*
Y18925320D01*
X1074680D01*
Y11574680D01*
X1074880Y11574880D02*
X6824880D01*
Y8325120D01*
X1074880D01*
Y1074880D01*
X23925120D01*
Y8325120D01*
X18175120D01*
Y11574880D01*
X23925120D01*
Y18925120D01*
X14065750D01*
Y15925120D01*
X10925120D01*
Y18925120D01*
X1074880D01*
Y11574880D01*
X1075080Y11575080D02*
X6825080D01*
Y8324920D01*
X1075080D01*
Y1075080D01*
X23924920D01*
Y8324920D01*
X18174920D01*
Y11575080D01*
X23924920D01*
Y18924920D01*
X14065950D01*
Y15924920D01*
X10924920D01*
Y18924920D01*
X1075080D01*
Y11575080D01*
X1075280Y11575280D02*
X6825280D01*
Y8324720D01*
X1075280D01*
Y1075280D01*
X23924720D01*
Y8324720D01*
X18174720D01*
Y11575280D01*
X23924720D01*
Y18924720D01*
X14066150D01*
Y15924720D01*
X10924720D01*
Y18924720D01*
X1075280D01*
Y11575280D01*
X1075480Y11575480D02*
X6825480D01*
Y8324520D01*
X1075480D01*
Y1075480D01*
X23924520D01*
Y8324520D01*
X18174520D01*
Y11575480D01*
X23924520D01*
Y18924520D01*
X14066350D01*
Y15924520D01*
X10924520D01*
Y18924520D01*
X1075480D01*
Y11575480D01*
X1075680Y11575680D02*
X6825680D01*
Y8324320D01*
X1075680D01*
Y1075680D01*
X23924320D01*
Y8324320D01*
X18174320D01*
Y11575680D01*
X23924320D01*
Y18924320D01*
X14066550D01*
Y15924320D01*
X10924320D01*
Y18924320D01*
X1075680D01*
Y11575680D01*
X1075880Y11575880D02*
X6825880D01*
Y8324120D01*
X1075880D01*
Y1075880D01*
X23924120D01*
Y8324120D01*
X18174120D01*
Y11575880D01*
X23924120D01*
Y18924120D01*
X14066750D01*
Y15924120D01*
X10924120D01*
Y18924120D01*
X1075880D01*
Y11575880D01*
X1076080Y11576080D02*
X6826080D01*
Y8323920D01*
X1076080D01*
Y1076080D01*
X23923920D01*
Y8323920D01*
X18173920D01*
Y11576080D01*
X23923920D01*
Y18923920D01*
X14066950D01*
Y15923920D01*
X10923920D01*
Y18923920D01*
X1076080D01*
Y11576080D01*
X1076280Y11576280D02*
X6826280D01*
Y8323720D01*
X1076280D01*
Y1076280D01*
X23923720D01*
Y8323720D01*
X18173720D01*
Y11576280D01*
X23923720D01*
Y18923720D01*
X14067150D01*
Y15923720D01*
X10923720D01*
Y18923720D01*
X1076280D01*
Y11576280D01*
X1076480Y11576480D02*
X6826480D01*
Y8323520D01*
X1076480D01*
Y1076480D01*
X23923520D01*
Y8323520D01*
X18173520D01*
Y11576480D01*
X23923520D01*
Y18923520D01*
X14067350D01*
Y15923520D01*
X10923520D01*
Y18923520D01*
X1076480D01*
Y11576480D01*
X1076680Y11576680D02*
X6826680D01*
Y8323320D01*
X1076680D01*
Y1076680D01*
X23923320D01*
Y8323320D01*
X18173320D01*
Y11576680D01*
X23923320D01*
Y18923320D01*
X14067550D01*
Y15923320D01*
X10923320D01*
Y18923320D01*
X1076680D01*
Y11576680D01*
X1076880Y11576880D02*
X6826880D01*
Y8323120D01*
X1076880D01*
Y1076880D01*
X23923120D01*
Y8323120D01*
X18173120D01*
Y11576880D01*
X23923120D01*
Y18923120D01*
X14067750D01*
Y15923120D01*
X10923120D01*
Y18923120D01*
X1076880D01*
Y11576880D01*
X1077080Y11577080D02*
X6827080D01*
Y8322920D01*
X1077080D01*
Y1077080D01*
X23922920D01*
Y8322920D01*
X18172920D01*
Y11577080D01*
X23922920D01*
Y18922920D01*
X14067950D01*
Y15922920D01*
X10922920D01*
Y18922920D01*
X1077080D01*
Y11577080D01*
X1077280Y11577280D02*
X6827280D01*
Y8322720D01*
X1077280D01*
Y1077280D01*
X23922720D01*
Y8322720D01*
X18172720D01*
Y11577280D01*
X23922720D01*
Y18922720D01*
X14068150D01*
Y15922720D01*
X10922720D01*
Y18922720D01*
X1077280D01*
Y11577280D01*
X1077480Y11577480D02*
X6827480D01*
Y8322520D01*
X1077480D01*
Y1077480D01*
X23922520D01*
Y8322520D01*
X18172520D01*
Y11577480D01*
X23922520D01*
Y18922520D01*
X14068350D01*
Y15922520D01*
X10922520D01*
Y18922520D01*
X1077480D01*
Y11577480D01*
X1077680Y11577680D02*
X6827680D01*
Y8322320D01*
X1077680D01*
Y1077680D01*
X23922320D01*
Y8322320D01*
X18172320D01*
Y11577680D01*
X23922320D01*
Y18922320D01*
X14068550D01*
Y15922320D01*
X10922320D01*
Y18922320D01*
X1077680D01*
Y11577680D01*
X1077880Y11577880D02*
X6827880D01*
Y8322120D01*
X1077880D01*
Y1077880D01*
X23922120D01*
Y8322120D01*
X18172120D01*
Y11577880D01*
X23922120D01*
Y18922120D01*
X14068750D01*
Y15922120D01*
X10922120D01*
Y18922120D01*
X1077880D01*
Y11577880D01*
X1078080Y11578080D02*
X6828080D01*
Y8321920D01*
X1078080D01*
Y1078080D01*
X23921920D01*
Y8321920D01*
X18171920D01*
Y11578080D01*
X23921920D01*
Y18921920D01*
X14068950D01*
Y15921920D01*
X10921920D01*
Y18921920D01*
X1078080D01*
Y11578080D01*
X1078280Y11578280D02*
X6828280D01*
Y8321720D01*
X1078280D01*
Y1078280D01*
X23921720D01*
Y8321720D01*
X18171720D01*
Y11578280D01*
X23921720D01*
Y18921720D01*
X14069150D01*
Y15921720D01*
X10921720D01*
Y18921720D01*
X1078280D01*
Y11578280D01*
X1078480Y11578480D02*
X6828480D01*
Y8321520D01*
X1078480D01*
Y1078480D01*
X23921520D01*
Y8321520D01*
X18171520D01*
Y11578480D01*
X23921520D01*
Y18921520D01*
X14069350D01*
Y15921520D01*
X10921520D01*
Y18921520D01*
X1078480D01*
Y11578480D01*
X1078680Y11578680D02*
X6828680D01*
Y8321320D01*
X1078680D01*
Y1078680D01*
X23921320D01*
Y8321320D01*
X18171320D01*
Y11578680D01*
X23921320D01*
Y18921320D01*
X14069550D01*
Y15921320D01*
X10921320D01*
Y18921320D01*
X1078680D01*
Y11578680D01*
X1078880Y11578880D02*
X6828880D01*
Y8321120D01*
X1078880D01*
Y1078880D01*
X23921120D01*
Y8321120D01*
X18171120D01*
Y11578880D01*
X23921120D01*
Y18921120D01*
X14069750D01*
Y15921120D01*
X10921120D01*
Y18921120D01*
X1078880D01*
Y11578880D01*
X1079080Y11579080D02*
X6829080D01*
Y8320920D01*
X1079080D01*
Y1079080D01*
X23920920D01*
Y8320920D01*
X18170920D01*
Y11579080D01*
X23920920D01*
Y18920920D01*
X14069950D01*
Y15920920D01*
X10920920D01*
Y18920920D01*
X1079080D01*
Y11579080D01*
X1079280Y11579280D02*
X6829280D01*
Y8320720D01*
X1079280D01*
Y1079280D01*
X23920720D01*
Y8320720D01*
X18170720D01*
Y11579280D01*
X23920720D01*
Y18920720D01*
X14070150D01*
Y15920720D01*
X10920720D01*
Y18920720D01*
X1079280D01*
Y11579280D01*
X1079480Y11579480D02*
X6829480D01*
Y8320520D01*
X1079480D01*
Y1079480D01*
X23920520D01*
Y8320520D01*
X18170520D01*
Y11579480D01*
X23920520D01*
Y18920520D01*
X14070350D01*
Y15920520D01*
X10920520D01*
Y18920520D01*
X1079480D01*
Y11579480D01*
X1079680Y11579680D02*
X6829680D01*
Y8320320D01*
X1079680D01*
Y1079680D01*
X23920320D01*
Y8320320D01*
X18170320D01*
Y11579680D01*
X23920320D01*
Y18920320D01*
X14070550D01*
Y15920320D01*
X10920320D01*
Y18920320D01*
X1079680D01*
Y11579680D01*
X1079880Y11579880D02*
X6829880D01*
Y8320120D01*
X1079880D01*
Y1079880D01*
X23920120D01*
Y8320120D01*
X18170120D01*
Y11579880D01*
X23920120D01*
Y18920120D01*
X14070750D01*
Y15920120D01*
X10920120D01*
Y18920120D01*
X1079880D01*
Y11579880D01*
X1080080Y11580080D02*
X6830080D01*
Y8319920D01*
X1080080D01*
Y1080080D01*
X23919920D01*
Y8319920D01*
X18169920D01*
Y11580080D01*
X23919920D01*
Y18919920D01*
X14070950D01*
Y15919920D01*
X10919920D01*
Y18919920D01*
X1080080D01*
Y11580080D01*
X1080280Y11580280D02*
X6830280D01*
Y8319720D01*
X1080280D01*
Y1080280D01*
X23919720D01*
Y8319720D01*
X18169720D01*
Y11580280D01*
X23919720D01*
Y18919720D01*
X14071150D01*
Y15919720D01*
X10919720D01*
Y18919720D01*
X1080280D01*
Y11580280D01*
X1080480Y11580480D02*
X6830480D01*
Y8319520D01*
X1080480D01*
Y1080480D01*
X23919520D01*
Y8319520D01*
X18169520D01*
Y11580480D01*
X23919520D01*
Y18919520D01*
X14071350D01*
Y15919520D01*
X10919520D01*
Y18919520D01*
X1080480D01*
Y11580480D01*
X1080680Y11580680D02*
X6830680D01*
Y8319320D01*
X1080680D01*
Y1080680D01*
X23919320D01*
Y8319320D01*
X18169320D01*
Y11580680D01*
X23919320D01*
Y18919320D01*
X14071550D01*
Y15919320D01*
X10919320D01*
Y18919320D01*
X1080680D01*
Y11580680D01*
X1080880Y11580880D02*
X6830880D01*
Y8319120D01*
X1080880D01*
Y1080880D01*
X23919120D01*
Y8319120D01*
X18169120D01*
Y11580880D01*
X23919120D01*
Y18919120D01*
X14071750D01*
Y15919120D01*
X10919120D01*
Y18919120D01*
X1080880D01*
Y11580880D01*
X1081080Y11581080D02*
X6831080D01*
Y8318920D01*
X1081080D01*
Y1081080D01*
X23918920D01*
Y8318920D01*
X18168920D01*
Y11581080D01*
X23918920D01*
Y18918920D01*
X14071950D01*
Y15918920D01*
X10918920D01*
Y18918920D01*
X1081080D01*
Y11581080D01*
X1081280Y11581280D02*
X6831280D01*
Y8318720D01*
X1081280D01*
Y1081280D01*
X23918720D01*
Y8318720D01*
X18168720D01*
Y11581280D01*
X23918720D01*
Y18918720D01*
X14072150D01*
Y15918720D01*
X10918720D01*
Y18918720D01*
X1081280D01*
Y11581280D01*
X1081480Y11581480D02*
X6831480D01*
Y8318520D01*
X1081480D01*
Y1081480D01*
X23918520D01*
Y8318520D01*
X18168520D01*
Y11581480D01*
X23918520D01*
Y18918520D01*
X14072350D01*
Y15918520D01*
X10918520D01*
Y18918520D01*
X1081480D01*
Y11581480D01*
X1081680Y11581680D02*
X6831680D01*
Y8318320D01*
X1081680D01*
Y1081680D01*
X23918320D01*
Y8318320D01*
X18168320D01*
Y11581680D01*
X23918320D01*
Y18918320D01*
X14072550D01*
Y15918320D01*
X10918320D01*
Y18918320D01*
X1081680D01*
Y11581680D01*
X1081880Y11581880D02*
X6831880D01*
Y8318120D01*
X1081880D01*
Y1081880D01*
X23918120D01*
Y8318120D01*
X18168120D01*
Y11581880D01*
X23918120D01*
Y18918120D01*
X14072750D01*
Y15918120D01*
X10918120D01*
Y18918120D01*
X1081880D01*
Y11581880D01*
X1082080Y11582080D02*
X6832080D01*
Y8317920D01*
X1082080D01*
Y1082080D01*
X23917920D01*
Y8317920D01*
X18167920D01*
Y11582080D01*
X23917920D01*
Y18917920D01*
X14072950D01*
Y15917920D01*
X10917920D01*
Y18917920D01*
X1082080D01*
Y11582080D01*
X1082280Y11582280D02*
X6832280D01*
Y8317720D01*
X1082280D01*
Y1082280D01*
X23917720D01*
Y8317720D01*
X18167720D01*
Y11582280D01*
X23917720D01*
Y18917720D01*
X14073150D01*
Y15917720D01*
X10917720D01*
Y18917720D01*
X1082280D01*
Y11582280D01*
X1082480Y11582480D02*
X6832480D01*
Y8317520D01*
X1082480D01*
Y1082480D01*
X23917520D01*
Y8317520D01*
X18167520D01*
Y11582480D01*
X23917520D01*
Y18917520D01*
X14073350D01*
Y15917520D01*
X10917520D01*
Y18917520D01*
X1082480D01*
Y11582480D01*
X1082680Y11582680D02*
X6832680D01*
Y8317320D01*
X1082680D01*
Y1082680D01*
X23917320D01*
Y8317320D01*
X18167320D01*
Y11582680D01*
X23917320D01*
Y18917320D01*
X14073550D01*
Y15917320D01*
X10917320D01*
Y18917320D01*
X1082680D01*
Y11582680D01*
X1082880Y11582880D02*
X6832880D01*
Y8317120D01*
X1082880D01*
Y1082880D01*
X23917120D01*
Y8317120D01*
X18167120D01*
Y11582880D01*
X23917120D01*
Y18917120D01*
X14073750D01*
Y15917120D01*
X10917120D01*
Y18917120D01*
X1082880D01*
Y11582880D01*
X1083080Y11583080D02*
X6833080D01*
Y8316920D01*
X1083080D01*
Y1083080D01*
X23916920D01*
Y8316920D01*
X18166920D01*
Y11583080D01*
X23916920D01*
Y18916920D01*
X14073950D01*
Y15916920D01*
X10916920D01*
Y18916920D01*
X1083080D01*
Y11583080D01*
X1083280Y11583280D02*
X6833280D01*
Y8316720D01*
X1083280D01*
Y1083280D01*
X23916720D01*
Y8316720D01*
X18166720D01*
Y11583280D01*
X23916720D01*
Y18916720D01*
X14074150D01*
Y15916720D01*
X10916720D01*
Y18916720D01*
X1083280D01*
Y11583280D01*
X1083480Y11583480D02*
X6833480D01*
Y8316520D01*
X1083480D01*
Y1083480D01*
X23916520D01*
Y8316520D01*
X18166520D01*
Y11583480D01*
X23916520D01*
Y18916520D01*
X14074350D01*
Y15916520D01*
X10916520D01*
Y18916520D01*
X1083480D01*
Y11583480D01*
X1083680Y11583680D02*
X6833680D01*
Y8316320D01*
X1083680D01*
Y1083680D01*
X23916320D01*
Y8316320D01*
X18166320D01*
Y11583680D01*
X23916320D01*
Y18916320D01*
X14074550D01*
Y15916320D01*
X10916320D01*
Y18916320D01*
X1083680D01*
Y11583680D01*
X1083880Y11583880D02*
X6833880D01*
Y8316120D01*
X1083880D01*
Y1083880D01*
X23916120D01*
Y8316120D01*
X18166120D01*
Y11583880D01*
X23916120D01*
Y18916120D01*
X14074750D01*
Y15916120D01*
X10916120D01*
Y18916120D01*
X1083880D01*
Y11583880D01*
X1084080Y11584080D02*
X6834080D01*
Y8315920D01*
X1084080D01*
Y1084080D01*
X23915920D01*
Y8315920D01*
X18165920D01*
Y11584080D01*
X23915920D01*
Y18915920D01*
X14074950D01*
Y15915920D01*
X10915920D01*
Y18915920D01*
X1084080D01*
Y11584080D01*
X1084280Y11584280D02*
X6834280D01*
Y8315720D01*
X1084280D01*
Y1084280D01*
X23915720D01*
Y8315720D01*
X18165720D01*
Y11584280D01*
X23915720D01*
Y18915720D01*
X14075150D01*
Y15915720D01*
X10915720D01*
Y18915720D01*
X1084280D01*
Y11584280D01*
X1084480Y11584480D02*
X6834480D01*
Y8315520D01*
X1084480D01*
Y1084480D01*
X23915520D01*
Y8315520D01*
X18165520D01*
Y11584480D01*
X23915520D01*
Y18915520D01*
X14075350D01*
Y15915520D01*
X10915520D01*
Y18915520D01*
X1084480D01*
Y11584480D01*
X1084680Y11584680D02*
X6834680D01*
Y8315320D01*
X1084680D01*
Y1084680D01*
X23915320D01*
Y8315320D01*
X18165320D01*
Y11584680D01*
X23915320D01*
Y18915320D01*
X14075550D01*
Y15915320D01*
X10915320D01*
Y18915320D01*
X1084680D01*
Y11584680D01*
X1084880Y11584880D02*
X6834880D01*
Y8315120D01*
X1084880D01*
Y1084880D01*
X23915120D01*
Y8315120D01*
X18165120D01*
Y11584880D01*
X23915120D01*
Y18915120D01*
X14075750D01*
Y15915120D01*
X10915120D01*
Y18915120D01*
X1084880D01*
Y11584880D01*
X1085080Y11585080D02*
X6835080D01*
Y8314920D01*
X1085080D01*
Y1085080D01*
X23914920D01*
Y8314920D01*
X18164920D01*
Y11585080D01*
X23914920D01*
Y18914920D01*
X14075950D01*
Y15914920D01*
X10914920D01*
Y18914920D01*
X1085080D01*
Y11585080D01*
X1085280Y11585280D02*
X6835280D01*
Y8314720D01*
X1085280D01*
Y1085280D01*
X23914720D01*
Y8314720D01*
X18164720D01*
Y11585280D01*
X23914720D01*
Y18914720D01*
X14076150D01*
Y15914720D01*
X10914720D01*
Y18914720D01*
X1085280D01*
Y11585280D01*
X1085480Y11585480D02*
X6835480D01*
Y8314520D01*
X1085480D01*
Y1085480D01*
X23914520D01*
Y8314520D01*
X18164520D01*
Y11585480D01*
X23914520D01*
Y18914520D01*
X14076350D01*
Y15914520D01*
X10914520D01*
Y18914520D01*
X1085480D01*
Y11585480D01*
X1085680Y11585680D02*
X6835680D01*
Y8314320D01*
X1085680D01*
Y1085680D01*
X23914320D01*
Y8314320D01*
X18164320D01*
Y11585680D01*
X23914320D01*
Y18914320D01*
X14076550D01*
Y15914320D01*
X10914320D01*
Y18914320D01*
X1085680D01*
Y11585680D01*
X1085880Y11585880D02*
X6835880D01*
Y8314120D01*
X1085880D01*
Y1085880D01*
X23914120D01*
Y8314120D01*
X18164120D01*
Y11585880D01*
X23914120D01*
Y18914120D01*
X14076750D01*
Y15914120D01*
X10914120D01*
Y18914120D01*
X1085880D01*
Y11585880D01*
X1086080Y11586080D02*
X6836080D01*
Y8313920D01*
X1086080D01*
Y1086080D01*
X23913920D01*
Y8313920D01*
X18163920D01*
Y11586080D01*
X23913920D01*
Y18913920D01*
X14076950D01*
Y15913920D01*
X10913920D01*
Y18913920D01*
X1086080D01*
Y11586080D01*
X1086280Y11586280D02*
X6836280D01*
Y8313720D01*
X1086280D01*
Y1086280D01*
X23913720D01*
Y8313720D01*
X18163720D01*
Y11586280D01*
X23913720D01*
Y18913720D01*
X14077150D01*
Y15913720D01*
X10913720D01*
Y18913720D01*
X1086280D01*
Y11586280D01*
X1086480Y11586480D02*
X6836480D01*
Y8313520D01*
X1086480D01*
Y1086480D01*
X23913520D01*
Y8313520D01*
X18163520D01*
Y11586480D01*
X23913520D01*
Y18913520D01*
X14077350D01*
Y15913520D01*
X10913520D01*
Y18913520D01*
X1086480D01*
Y11586480D01*
X1086680Y11586680D02*
X6836680D01*
Y8313320D01*
X1086680D01*
Y1086680D01*
X23913320D01*
Y8313320D01*
X18163320D01*
Y11586680D01*
X23913320D01*
Y18913320D01*
X14077550D01*
Y15913320D01*
X10913320D01*
Y18913320D01*
X1086680D01*
Y11586680D01*
X1086880Y11586880D02*
X6836880D01*
Y8313120D01*
X1086880D01*
Y1086880D01*
X23913120D01*
Y8313120D01*
X18163120D01*
Y11586880D01*
X23913120D01*
Y18913120D01*
X14077750D01*
Y15913120D01*
X10913120D01*
Y18913120D01*
X1086880D01*
Y11586880D01*
X1087080Y11587080D02*
X6837080D01*
Y8312920D01*
X1087080D01*
Y1087080D01*
X23912920D01*
Y8312920D01*
X18162920D01*
Y11587080D01*
X23912920D01*
Y18912920D01*
X14077950D01*
Y15912920D01*
X10912920D01*
Y18912920D01*
X1087080D01*
Y11587080D01*
X1087280Y11587280D02*
X6837280D01*
Y8312720D01*
X1087280D01*
Y1087280D01*
X23912720D01*
Y8312720D01*
X18162720D01*
Y11587280D01*
X23912720D01*
Y18912720D01*
X14078150D01*
Y15912720D01*
X10912720D01*
Y18912720D01*
X1087280D01*
Y11587280D01*
X1087480Y11587480D02*
X6837480D01*
Y8312520D01*
X1087480D01*
Y1087480D01*
X23912520D01*
Y8312520D01*
X18162520D01*
Y11587480D01*
X23912520D01*
Y18912520D01*
X14078350D01*
Y15912520D01*
X10912520D01*
Y18912520D01*
X1087480D01*
Y11587480D01*
X1087680Y11587680D02*
X6837680D01*
Y8312320D01*
X1087680D01*
Y1087680D01*
X23912320D01*
Y8312320D01*
X18162320D01*
Y11587680D01*
X23912320D01*
Y18912320D01*
X14078550D01*
Y15912320D01*
X10912320D01*
Y18912320D01*
X1087680D01*
Y11587680D01*
X1087880Y11587880D02*
X6837880D01*
Y8312120D01*
X1087880D01*
Y1087880D01*
X23912120D01*
Y8312120D01*
X18162120D01*
Y11587880D01*
X23912120D01*
Y18912120D01*
X14078750D01*
Y15912120D01*
X10912120D01*
Y18912120D01*
X1087880D01*
Y11587880D01*
X1088080Y11588080D02*
X6838080D01*
Y8311920D01*
X1088080D01*
Y1088080D01*
X23911920D01*
Y8311920D01*
X18161920D01*
Y11588080D01*
X23911920D01*
Y18911920D01*
X14078950D01*
Y15911920D01*
X10911920D01*
Y18911920D01*
X1088080D01*
Y11588080D01*
X1088280Y11588280D02*
X6838280D01*
Y8311720D01*
X1088280D01*
Y1088280D01*
X23911720D01*
Y8311720D01*
X18161720D01*
Y11588280D01*
X23911720D01*
Y18911720D01*
X14079150D01*
Y15911720D01*
X10911720D01*
Y18911720D01*
X1088280D01*
Y11588280D01*
X1088480Y11588480D02*
X6838480D01*
Y8311520D01*
X1088480D01*
Y1088480D01*
X23911520D01*
Y8311520D01*
X18161520D01*
Y11588480D01*
X23911520D01*
Y18911520D01*
X14079350D01*
Y15911520D01*
X10911520D01*
Y18911520D01*
X1088480D01*
Y11588480D01*
X1088680Y11588680D02*
X6838680D01*
Y8311320D01*
X1088680D01*
Y1088680D01*
X23911320D01*
Y8311320D01*
X18161320D01*
Y11588680D01*
X23911320D01*
Y18911320D01*
X14079550D01*
Y15911320D01*
X10911320D01*
Y18911320D01*
X1088680D01*
Y11588680D01*
X1088880Y11588880D02*
X6838880D01*
Y8311120D01*
X1088880D01*
Y1088880D01*
X23911120D01*
Y8311120D01*
X18161120D01*
Y11588880D01*
X23911120D01*
Y18911120D01*
X14079750D01*
Y15911120D01*
X10911120D01*
Y18911120D01*
X1088880D01*
Y11588880D01*
X1089080Y11589080D02*
X6839080D01*
Y8310920D01*
X1089080D01*
Y1089080D01*
X23910920D01*
Y8310920D01*
X18160920D01*
Y11589080D01*
X23910920D01*
Y18910920D01*
X14079950D01*
Y15910920D01*
X10910920D01*
Y18910920D01*
X1089080D01*
Y11589080D01*
X1089280Y11589280D02*
X6839280D01*
Y8310720D01*
X1089280D01*
Y1089280D01*
X23910720D01*
Y8310720D01*
X18160720D01*
Y11589280D01*
X23910720D01*
Y18910720D01*
X14080150D01*
Y15910720D01*
X10910720D01*
Y18910720D01*
X1089280D01*
Y11589280D01*
X1089480Y11589480D02*
X6839480D01*
Y8310520D01*
X1089480D01*
Y1089480D01*
X23910520D01*
Y8310520D01*
X18160520D01*
Y11589480D01*
X23910520D01*
Y18910520D01*
X14080350D01*
Y15910520D01*
X10910520D01*
Y18910520D01*
X1089480D01*
Y11589480D01*
X1089680Y11589680D02*
X6839680D01*
Y8310320D01*
X1089680D01*
Y1089680D01*
X23910320D01*
Y8310320D01*
X18160320D01*
Y11589680D01*
X23910320D01*
Y18910320D01*
X14080550D01*
Y15910320D01*
X10910320D01*
Y18910320D01*
X1089680D01*
Y11589680D01*
X1089880Y11589880D02*
X6839880D01*
Y8310120D01*
X1089880D01*
Y1089880D01*
X23910120D01*
Y8310120D01*
X18160120D01*
Y11589880D01*
X23910120D01*
Y18910120D01*
X14080750D01*
Y15910120D01*
X10910120D01*
Y18910120D01*
X1089880D01*
Y11589880D01*
X1090080Y11590080D02*
X6840080D01*
Y8309920D01*
X1090080D01*
Y1090080D01*
X23909920D01*
Y8309920D01*
X18159920D01*
Y11590080D01*
X23909920D01*
Y18909920D01*
X14080950D01*
Y15909920D01*
X10909920D01*
Y18909920D01*
X1090080D01*
Y11590080D01*
X1090280Y11590280D02*
X6840280D01*
Y8309720D01*
X1090280D01*
Y1090280D01*
X23909720D01*
Y8309720D01*
X18159720D01*
Y11590280D01*
X23909720D01*
Y18909720D01*
X14081150D01*
Y15909720D01*
X10909720D01*
Y18909720D01*
X1090280D01*
Y11590280D01*
X1090480Y11590480D02*
X6840480D01*
Y8309520D01*
X1090480D01*
Y1090480D01*
X23909520D01*
Y8309520D01*
X18159520D01*
Y11590480D01*
X23909520D01*
Y18909520D01*
X14081350D01*
Y15909520D01*
X10909520D01*
Y18909520D01*
X1090480D01*
Y11590480D01*
X1090680Y11590680D02*
X6840680D01*
Y8309320D01*
X1090680D01*
Y1090680D01*
X23909320D01*
Y8309320D01*
X18159320D01*
Y11590680D01*
X23909320D01*
Y18909320D01*
X14081550D01*
Y15909320D01*
X10909320D01*
Y18909320D01*
X1090680D01*
Y11590680D01*
X1090880Y11590880D02*
X6840880D01*
Y8309120D01*
X1090880D01*
Y1090880D01*
X23909120D01*
Y8309120D01*
X18159120D01*
Y11590880D01*
X23909120D01*
Y18909120D01*
X14081750D01*
Y15909120D01*
X10909120D01*
Y18909120D01*
X1090880D01*
Y11590880D01*
X1091080Y11591080D02*
X6841080D01*
Y8308920D01*
X1091080D01*
Y1091080D01*
X23908920D01*
Y8308920D01*
X18158920D01*
Y11591080D01*
X23908920D01*
Y18908920D01*
X14081950D01*
Y15908920D01*
X10908920D01*
Y18908920D01*
X1091080D01*
Y11591080D01*
X1091280Y11591280D02*
X6841280D01*
Y8308720D01*
X1091280D01*
Y1091280D01*
X23908720D01*
Y8308720D01*
X18158720D01*
Y11591280D01*
X23908720D01*
Y18908720D01*
X14082150D01*
Y15908720D01*
X10908720D01*
Y18908720D01*
X1091280D01*
Y11591280D01*
X1091480Y11591480D02*
X6841480D01*
Y8308520D01*
X1091480D01*
Y1091480D01*
X23908520D01*
Y8308520D01*
X18158520D01*
Y11591480D01*
X23908520D01*
Y18908520D01*
X14082350D01*
Y15908520D01*
X10908520D01*
Y18908520D01*
X1091480D01*
Y11591480D01*
X1091680Y11591680D02*
X6841680D01*
Y8308320D01*
X1091680D01*
Y1091680D01*
X23908320D01*
Y8308320D01*
X18158320D01*
Y11591680D01*
X23908320D01*
Y18908320D01*
X14082550D01*
Y15908320D01*
X10908320D01*
Y18908320D01*
X1091680D01*
Y11591680D01*
X1091880Y11591880D02*
X6841880D01*
Y8308120D01*
X1091880D01*
Y1091880D01*
X23908120D01*
Y8308120D01*
X18158120D01*
Y11591880D01*
X23908120D01*
Y18908120D01*
X14082750D01*
Y15908120D01*
X10908120D01*
Y18908120D01*
X1091880D01*
Y11591880D01*
X1092080Y11592080D02*
X6842080D01*
Y8307920D01*
X1092080D01*
Y1092080D01*
X23907920D01*
Y8307920D01*
X18157920D01*
Y11592080D01*
X23907920D01*
Y18907920D01*
X14082950D01*
Y15907920D01*
X10907920D01*
Y18907920D01*
X1092080D01*
Y11592080D01*
X1092280Y11592280D02*
X6842280D01*
Y8307720D01*
X1092280D01*
Y1092280D01*
X23907720D01*
Y8307720D01*
X18157720D01*
Y11592280D01*
X23907720D01*
Y18907720D01*
X14083150D01*
Y15907720D01*
X10907720D01*
Y18907720D01*
X1092280D01*
Y11592280D01*
X1092480Y11592480D02*
X6842480D01*
Y8307520D01*
X1092480D01*
Y1092480D01*
X23907520D01*
Y8307520D01*
X18157520D01*
Y11592480D01*
X23907520D01*
Y18907520D01*
X14083350D01*
Y15907520D01*
X10907520D01*
Y18907520D01*
X1092480D01*
Y11592480D01*
X1092680Y11592680D02*
X6842680D01*
Y8307320D01*
X1092680D01*
Y1092680D01*
X23907320D01*
Y8307320D01*
X18157320D01*
Y11592680D01*
X23907320D01*
Y18907320D01*
X14083550D01*
Y15907320D01*
X10907320D01*
Y18907320D01*
X1092680D01*
Y11592680D01*
X1092880Y11592880D02*
X6842880D01*
Y8307120D01*
X1092880D01*
Y1092880D01*
X23907120D01*
Y8307120D01*
X18157120D01*
Y11592880D01*
X23907120D01*
Y18907120D01*
X14083750D01*
Y15907120D01*
X10907120D01*
Y18907120D01*
X1092880D01*
Y11592880D01*
X1093080Y11593080D02*
X6843080D01*
Y8306920D01*
X1093080D01*
Y1093080D01*
X23906920D01*
Y8306920D01*
X18156920D01*
Y11593080D01*
X23906920D01*
Y18906920D01*
X14083950D01*
Y15906920D01*
X10906920D01*
Y18906920D01*
X1093080D01*
Y11593080D01*
X1093280Y11593280D02*
X6843280D01*
Y8306720D01*
X1093280D01*
Y1093280D01*
X23906720D01*
Y8306720D01*
X18156720D01*
Y11593280D01*
X23906720D01*
Y18906720D01*
X14084150D01*
Y15906720D01*
X10906720D01*
Y18906720D01*
X1093280D01*
Y11593280D01*
X1093480Y11593480D02*
X6843480D01*
Y8306520D01*
X1093480D01*
Y1093480D01*
X23906520D01*
Y8306520D01*
X18156520D01*
Y11593480D01*
X23906520D01*
Y18906520D01*
X14084350D01*
Y15906520D01*
X10906520D01*
Y18906520D01*
X1093480D01*
Y11593480D01*
X1093680Y11593680D02*
X6843680D01*
Y8306320D01*
X1093680D01*
Y1093680D01*
X23906320D01*
Y8306320D01*
X18156320D01*
Y11593680D01*
X23906320D01*
Y18906320D01*
X14084550D01*
Y15906320D01*
X10906320D01*
Y18906320D01*
X1093680D01*
Y11593680D01*
X1093880Y11593880D02*
X6843880D01*
Y8306120D01*
X1093880D01*
Y1093880D01*
X23906120D01*
Y8306120D01*
X18156120D01*
Y11593880D01*
X23906120D01*
Y18906120D01*
X14084750D01*
Y15906120D01*
X10906120D01*
Y18906120D01*
X1093880D01*
Y11593880D01*
X1094080Y11594080D02*
X6844080D01*
Y8305920D01*
X1094080D01*
Y1094080D01*
X23905920D01*
Y8305920D01*
X18155920D01*
Y11594080D01*
X23905920D01*
Y18905920D01*
X14084950D01*
Y15905920D01*
X10905920D01*
Y18905920D01*
X1094080D01*
Y11594080D01*
X1094280Y11594280D02*
X6844280D01*
Y8305720D01*
X1094280D01*
Y1094280D01*
X23905720D01*
Y8305720D01*
X18155720D01*
Y11594280D01*
X23905720D01*
Y18905720D01*
X14085150D01*
Y15905720D01*
X10905720D01*
Y18905720D01*
X1094280D01*
Y11594280D01*
X1094480Y11594480D02*
X6844480D01*
Y8305520D01*
X1094480D01*
Y1094480D01*
X23905520D01*
Y8305520D01*
X18155520D01*
Y11594480D01*
X23905520D01*
Y18905520D01*
X14085350D01*
Y15905520D01*
X10905520D01*
Y18905520D01*
X1094480D01*
Y11594480D01*
X1094680Y11594680D02*
X6844680D01*
Y8305320D01*
X1094680D01*
Y1094680D01*
X23905320D01*
Y8305320D01*
X18155320D01*
Y11594680D01*
X23905320D01*
Y18905320D01*
X14085550D01*
Y15905320D01*
X10905320D01*
Y18905320D01*
X1094680D01*
Y11594680D01*
X1094880Y11594880D02*
X6844880D01*
Y8305120D01*
X1094880D01*
Y1094880D01*
X23905120D01*
Y8305120D01*
X18155120D01*
Y11594880D01*
X23905120D01*
Y18905120D01*
X14085750D01*
Y15905120D01*
X10905120D01*
Y18905120D01*
X1094880D01*
Y11594880D01*
X1095080Y11595080D02*
X6845080D01*
Y8304920D01*
X1095080D01*
Y1095080D01*
X23904920D01*
Y8304920D01*
X18154920D01*
Y11595080D01*
X23904920D01*
Y18904920D01*
X14085950D01*
Y15904920D01*
X10904920D01*
Y18904920D01*
X1095080D01*
Y11595080D01*
X1095280Y11595280D02*
X6845280D01*
Y8304720D01*
X1095280D01*
Y1095280D01*
X23904720D01*
Y8304720D01*
X18154720D01*
Y11595280D01*
X23904720D01*
Y18904720D01*
X14086150D01*
Y15904720D01*
X10904720D01*
Y18904720D01*
X1095280D01*
Y11595280D01*
X1095480Y11595480D02*
X6845480D01*
Y8304520D01*
X1095480D01*
Y1095480D01*
X23904520D01*
Y8304520D01*
X18154520D01*
Y11595480D01*
X23904520D01*
Y18904520D01*
X14086350D01*
Y15904520D01*
X10904520D01*
Y18904520D01*
X1095480D01*
Y11595480D01*
X1095680Y11595680D02*
X6845680D01*
Y8304320D01*
X1095680D01*
Y1095680D01*
X23904320D01*
Y8304320D01*
X18154320D01*
Y11595680D01*
X23904320D01*
Y18904320D01*
X14086550D01*
Y15904320D01*
X10904320D01*
Y18904320D01*
X1095680D01*
Y11595680D01*
X1095880Y11595880D02*
X6845880D01*
Y8304120D01*
X1095880D01*
Y1095880D01*
X23904120D01*
Y8304120D01*
X18154120D01*
Y11595880D01*
X23904120D01*
Y18904120D01*
X14086750D01*
Y15904120D01*
X10904120D01*
Y18904120D01*
X1095880D01*
Y11595880D01*
X1096080Y11596080D02*
X6846080D01*
Y8303920D01*
X1096080D01*
Y1096080D01*
X23903920D01*
Y8303920D01*
X18153920D01*
Y11596080D01*
X23903920D01*
Y18903920D01*
X14086950D01*
Y15903920D01*
X10903920D01*
Y18903920D01*
X1096080D01*
Y11596080D01*
X1096280Y11596280D02*
X6846280D01*
Y8303720D01*
X1096280D01*
Y1096280D01*
X23903720D01*
Y8303720D01*
X18153720D01*
Y11596280D01*
X23903720D01*
Y18903720D01*
X14087150D01*
Y15903720D01*
X10903720D01*
Y18903720D01*
X1096280D01*
Y11596280D01*
X1096480Y11596480D02*
X6846480D01*
Y8303520D01*
X1096480D01*
Y1096480D01*
X23903520D01*
Y8303520D01*
X18153520D01*
Y11596480D01*
X23903520D01*
Y18903520D01*
X14087350D01*
Y15903520D01*
X10903520D01*
Y18903520D01*
X1096480D01*
Y11596480D01*
X1096680Y11596680D02*
X6846680D01*
Y8303320D01*
X1096680D01*
Y1096680D01*
X23903320D01*
Y8303320D01*
X18153320D01*
Y11596680D01*
X23903320D01*
Y18903320D01*
X14087550D01*
Y15903320D01*
X10903320D01*
Y18903320D01*
X1096680D01*
Y11596680D01*
X1096880Y11596880D02*
X6846880D01*
Y8303120D01*
X1096880D01*
Y1096880D01*
X23903120D01*
Y8303120D01*
X18153120D01*
Y11596880D01*
X23903120D01*
Y18903120D01*
X14087750D01*
Y15903120D01*
X10903120D01*
Y18903120D01*
X1096880D01*
Y11596880D01*
X1097080Y11597080D02*
X6847080D01*
Y8302920D01*
X1097080D01*
Y1097080D01*
X23902920D01*
Y8302920D01*
X18152920D01*
Y11597080D01*
X23902920D01*
Y18902920D01*
X14087950D01*
Y15902920D01*
X10902920D01*
Y18902920D01*
X1097080D01*
Y11597080D01*
X1097280Y11597280D02*
X6847280D01*
Y8302720D01*
X1097280D01*
Y1097280D01*
X23902720D01*
Y8302720D01*
X18152720D01*
Y11597280D01*
X23902720D01*
Y18902720D01*
X14088150D01*
Y15902720D01*
X10902720D01*
Y18902720D01*
X1097280D01*
Y11597280D01*
X1097480Y11597480D02*
X6847480D01*
Y8302520D01*
X1097480D01*
Y1097480D01*
X23902520D01*
Y8302520D01*
X18152520D01*
Y11597480D01*
X23902520D01*
Y18902520D01*
X14088350D01*
Y15902520D01*
X10902520D01*
Y18902520D01*
X1097480D01*
Y11597480D01*
X1097680Y11597680D02*
X6847680D01*
Y8302320D01*
X1097680D01*
Y1097680D01*
X23902320D01*
Y8302320D01*
X18152320D01*
Y11597680D01*
X23902320D01*
Y18902320D01*
X14088550D01*
Y15902320D01*
X10902320D01*
Y18902320D01*
X1097680D01*
Y11597680D01*
X1097880Y11597880D02*
X6847880D01*
Y8302120D01*
X1097880D01*
Y1097880D01*
X23902120D01*
Y8302120D01*
X18152120D01*
Y11597880D01*
X23902120D01*
Y18902120D01*
X14088750D01*
Y15902120D01*
X10902120D01*
Y18902120D01*
X1097880D01*
Y11597880D01*
X1098080Y11598080D02*
X6848080D01*
Y8301920D01*
X1098080D01*
Y1098080D01*
X23901920D01*
Y8301920D01*
X18151920D01*
Y11598080D01*
X23901920D01*
Y18901920D01*
X14088950D01*
Y15901920D01*
X10901920D01*
Y18901920D01*
X1098080D01*
Y11598080D01*
X1098280Y11598280D02*
X6848280D01*
Y8301720D01*
X1098280D01*
Y1098280D01*
X23901720D01*
Y8301720D01*
X18151720D01*
Y11598280D01*
X23901720D01*
Y18901720D01*
X14089150D01*
Y15901720D01*
X10901720D01*
Y18901720D01*
X1098280D01*
Y11598280D01*
X1098480Y11598480D02*
X6848480D01*
Y8301520D01*
X1098480D01*
Y1098480D01*
X23901520D01*
Y8301520D01*
X18151520D01*
Y11598480D01*
X23901520D01*
Y18901520D01*
X14089350D01*
Y15901520D01*
X10901520D01*
Y18901520D01*
X1098480D01*
Y11598480D01*
X1098680Y11598680D02*
X6848680D01*
Y8301320D01*
X1098680D01*
Y1098680D01*
X23901320D01*
Y8301320D01*
X18151320D01*
Y11598680D01*
X23901320D01*
Y18901320D01*
X14089550D01*
Y15901320D01*
X10901320D01*
Y18901320D01*
X1098680D01*
Y11598680D01*
X1098880Y11598880D02*
X6848880D01*
Y8301120D01*
X1098880D01*
Y1098880D01*
X23901120D01*
Y8301120D01*
X18151120D01*
Y11598880D01*
X23901120D01*
Y18901120D01*
X14089750D01*
Y15901120D01*
X10901120D01*
Y18901120D01*
X1098880D01*
Y11598880D01*
X1099080Y11599080D02*
X6849080D01*
Y8300920D01*
X1099080D01*
Y1099080D01*
X23900920D01*
Y8300920D01*
X18150920D01*
Y11599080D01*
X23900920D01*
Y18900920D01*
X14089950D01*
Y15900920D01*
X10900920D01*
Y18900920D01*
X1099080D01*
Y11599080D01*
X1099280Y11599280D02*
X6849280D01*
Y8300720D01*
X1099280D01*
Y1099280D01*
X23900720D01*
Y8300720D01*
X18150720D01*
Y11599280D01*
X23900720D01*
Y18900720D01*
X14090150D01*
Y15900720D01*
X10900720D01*
Y18900720D01*
X1099280D01*
Y11599280D01*
X1099480Y11599480D02*
X6849480D01*
Y8300520D01*
X1099480D01*
Y1099480D01*
X23900520D01*
Y8300520D01*
X18150520D01*
Y11599480D01*
X23900520D01*
Y18900520D01*
X14090350D01*
Y15900520D01*
X10900520D01*
Y18900520D01*
X1099480D01*
Y11599480D01*
X1099680Y11599680D02*
X6849680D01*
Y8300320D01*
X1099680D01*
Y1099680D01*
X23900320D01*
Y8300320D01*
X18150320D01*
Y11599680D01*
X23900320D01*
Y18900320D01*
X14090550D01*
Y15900320D01*
X10900320D01*
Y18900320D01*
X1099680D01*
Y11599680D01*
X1099880Y11599880D02*
X6849880D01*
Y8300120D01*
X1099880D01*
Y1099880D01*
X23900120D01*
Y8300120D01*
X18150120D01*
Y11599880D01*
X23900120D01*
Y18900120D01*
X14090750D01*
Y15900120D01*
X10900120D01*
Y18900120D01*
X1099880D01*
Y11599880D01*
X1100080Y11600080D02*
X6850080D01*
Y8299920D01*
X1100080D01*
Y1100080D01*
X23899920D01*
Y8299920D01*
X18149920D01*
Y11600080D01*
X23899920D01*
Y18899920D01*
X14090950D01*
Y15899920D01*
X10899920D01*
Y18899920D01*
X1100080D01*
Y11600080D01*
X1100280Y11600280D02*
X6850280D01*
Y8299720D01*
X1100280D01*
Y1100280D01*
X23899720D01*
Y8299720D01*
X18149720D01*
Y11600280D01*
X23899720D01*
Y18899720D01*
X14091150D01*
Y15899720D01*
X10899720D01*
Y18899720D01*
X1100280D01*
Y11600280D01*
X1100480Y11600480D02*
X6850480D01*
Y8299520D01*
X1100480D01*
Y1100480D01*
X23899520D01*
Y8299520D01*
X18149520D01*
Y11600480D01*
X23899520D01*
Y18899520D01*
X14091350D01*
Y15899520D01*
X10899520D01*
Y18899520D01*
X1100480D01*
Y11600480D01*
X1100680Y11600680D02*
X6850680D01*
Y8299320D01*
X1100680D01*
Y1100680D01*
X23899320D01*
Y8299320D01*
X18149320D01*
Y11600680D01*
X23899320D01*
Y18899320D01*
X14091550D01*
Y15899320D01*
X10899320D01*
Y18899320D01*
X1100680D01*
Y11600680D01*
X1100880Y11600880D02*
X6850880D01*
Y8299120D01*
X1100880D01*
Y1100880D01*
X23899120D01*
Y8299120D01*
X18149120D01*
Y11600880D01*
X23899120D01*
Y18899120D01*
X14091750D01*
Y15899120D01*
X10899120D01*
Y18899120D01*
X1100880D01*
Y11600880D01*
X1101080Y11601080D02*
X6851080D01*
Y8298920D01*
X1101080D01*
Y1101080D01*
X23898920D01*
Y8298920D01*
X18148920D01*
Y11601080D01*
X23898920D01*
Y18898920D01*
X14091950D01*
Y15898920D01*
X10898920D01*
Y18898920D01*
X1101080D01*
Y11601080D01*
X1101280Y11601280D02*
X6851280D01*
Y8298720D01*
X1101280D01*
Y1101280D01*
X23898720D01*
Y8298720D01*
X18148720D01*
Y11601280D01*
X23898720D01*
Y18898720D01*
X14092150D01*
Y15898720D01*
X10898720D01*
Y18898720D01*
X1101280D01*
Y11601280D01*
X1101480Y11601480D02*
X6851480D01*
Y8298520D01*
X1101480D01*
Y1101480D01*
X23898520D01*
Y8298520D01*
X18148520D01*
Y11601480D01*
X23898520D01*
Y18898520D01*
X14092350D01*
Y15898520D01*
X10898520D01*
Y18898520D01*
X1101480D01*
Y11601480D01*
X1101680Y11601680D02*
X6851680D01*
Y8298320D01*
X1101680D01*
Y1101680D01*
X23898320D01*
Y8298320D01*
X18148320D01*
Y11601680D01*
X23898320D01*
Y18898320D01*
X14092550D01*
Y15898320D01*
X10898320D01*
Y18898320D01*
X1101680D01*
Y11601680D01*
X1101880Y11601880D02*
X6851880D01*
Y8298120D01*
X1101880D01*
Y1101880D01*
X23898120D01*
Y8298120D01*
X18148120D01*
Y11601880D01*
X23898120D01*
Y18898120D01*
X14092750D01*
Y15898120D01*
X10898120D01*
Y18898120D01*
X1101880D01*
Y11601880D01*
X1102080Y11602080D02*
X6852080D01*
Y8297920D01*
X1102080D01*
Y1102080D01*
X23897920D01*
Y8297920D01*
X18147920D01*
Y11602080D01*
X23897920D01*
Y18897920D01*
X14092950D01*
Y15897920D01*
X10897920D01*
Y18897920D01*
X1102080D01*
Y11602080D01*
X1102280Y11602280D02*
X6852280D01*
Y8297720D01*
X1102280D01*
Y1102280D01*
X23897720D01*
Y8297720D01*
X18147720D01*
Y11602280D01*
X23897720D01*
Y18897720D01*
X14093150D01*
Y15897720D01*
X10897720D01*
Y18897720D01*
X1102280D01*
Y11602280D01*
X1102480Y11602480D02*
X6852480D01*
Y8297520D01*
X1102480D01*
Y1102480D01*
X23897520D01*
Y8297520D01*
X18147520D01*
Y11602480D01*
X23897520D01*
Y18897520D01*
X14093350D01*
Y15897520D01*
X10897520D01*
Y18897520D01*
X1102480D01*
Y11602480D01*
X1102680Y11602680D02*
X6852680D01*
Y8297320D01*
X1102680D01*
Y1102680D01*
X23897320D01*
Y8297320D01*
X18147320D01*
Y11602680D01*
X23897320D01*
Y18897320D01*
X14093550D01*
Y15897320D01*
X10897320D01*
Y18897320D01*
X1102680D01*
Y11602680D01*
X1102880Y11602880D02*
X6852880D01*
Y8297120D01*
X1102880D01*
Y1102880D01*
X23897120D01*
Y8297120D01*
X18147120D01*
Y11602880D01*
X23897120D01*
Y18897120D01*
X14093750D01*
Y15897120D01*
X10897120D01*
Y18897120D01*
X1102880D01*
Y11602880D01*
X1103080Y11603080D02*
X6853080D01*
Y8296920D01*
X1103080D01*
Y1103080D01*
X23896920D01*
Y8296920D01*
X18146920D01*
Y11603080D01*
X23896920D01*
Y18896920D01*
X14093950D01*
Y15896920D01*
X10896920D01*
Y18896920D01*
X1103080D01*
Y11603080D01*
X1103280Y11603280D02*
X6853280D01*
Y8296720D01*
X1103280D01*
Y1103280D01*
X23896720D01*
Y8296720D01*
X18146720D01*
Y11603280D01*
X23896720D01*
Y18896720D01*
X14094150D01*
Y15896720D01*
X10896720D01*
Y18896720D01*
X1103280D01*
Y11603280D01*
X1103480Y11603480D02*
X6853480D01*
Y8296520D01*
X1103480D01*
Y1103480D01*
X23896520D01*
Y8296520D01*
X18146520D01*
Y11603480D01*
X23896520D01*
Y18896520D01*
X14094350D01*
Y15896520D01*
X10896520D01*
Y18896520D01*
X1103480D01*
Y11603480D01*
X1103680Y11603680D02*
X6853680D01*
Y8296320D01*
X1103680D01*
Y1103680D01*
X23896320D01*
Y8296320D01*
X18146320D01*
Y11603680D01*
X23896320D01*
Y18896320D01*
X14094550D01*
Y15896320D01*
X10896320D01*
Y18896320D01*
X1103680D01*
Y11603680D01*
X1103880Y11603880D02*
X6853880D01*
Y8296120D01*
X1103880D01*
Y1103880D01*
X23896120D01*
Y8296120D01*
X18146120D01*
Y11603880D01*
X23896120D01*
Y18896120D01*
X14094750D01*
Y15896120D01*
X10896120D01*
Y18896120D01*
X1103880D01*
Y11603880D01*
X1104080Y11604080D02*
X6854080D01*
Y8295920D01*
X1104080D01*
Y1104080D01*
X23895920D01*
Y8295920D01*
X18145920D01*
Y11604080D01*
X23895920D01*
Y18895920D01*
X14094950D01*
Y15895920D01*
X10895920D01*
Y18895920D01*
X1104080D01*
Y11604080D01*
X1104280Y11604280D02*
X6854280D01*
Y8295720D01*
X1104280D01*
Y1104280D01*
X23895720D01*
Y8295720D01*
X18145720D01*
Y11604280D01*
X23895720D01*
Y18895720D01*
X14095150D01*
Y15895720D01*
X10895720D01*
Y18895720D01*
X1104280D01*
Y11604280D01*
X1104480Y11604480D02*
X6854480D01*
Y8295520D01*
X1104480D01*
Y1104480D01*
X23895520D01*
Y8295520D01*
X18145520D01*
Y11604480D01*
X23895520D01*
Y18895520D01*
X14095350D01*
Y15895520D01*
X10895520D01*
Y18895520D01*
X1104480D01*
Y11604480D01*
X1104680Y11604680D02*
X6854680D01*
Y8295320D01*
X1104680D01*
Y1104680D01*
X23895320D01*
Y8295320D01*
X18145320D01*
Y11604680D01*
X23895320D01*
Y18895320D01*
X14095550D01*
Y15895320D01*
X10895320D01*
Y18895320D01*
X1104680D01*
Y11604680D01*
X1104880Y11604880D02*
X6854880D01*
Y8295120D01*
X1104880D01*
Y1104880D01*
X23895120D01*
Y8295120D01*
X18145120D01*
Y11604880D01*
X23895120D01*
Y18895120D01*
X14095750D01*
Y15895120D01*
X10895120D01*
Y18895120D01*
X1104880D01*
Y11604880D01*
X1105080Y11605080D02*
X6855080D01*
Y8294920D01*
X1105080D01*
Y1105080D01*
X23894920D01*
Y8294920D01*
X18144920D01*
Y11605080D01*
X23894920D01*
Y18894920D01*
X14095950D01*
Y15894920D01*
X10894920D01*
Y18894920D01*
X1105080D01*
Y11605080D01*
X1105280Y11605280D02*
X6855280D01*
Y8294720D01*
X1105280D01*
Y1105280D01*
X23894720D01*
Y8294720D01*
X18144720D01*
Y11605280D01*
X23894720D01*
Y18894720D01*
X14096150D01*
Y15894720D01*
X10894720D01*
Y18894720D01*
X1105280D01*
Y11605280D01*
X1105480Y11605480D02*
X6855480D01*
Y8294520D01*
X1105480D01*
Y1105480D01*
X23894520D01*
Y8294520D01*
X18144520D01*
Y11605480D01*
X23894520D01*
Y18894520D01*
X14096350D01*
Y15894520D01*
X10894520D01*
Y18894520D01*
X1105480D01*
Y11605480D01*
X1105680Y11605680D02*
X6855680D01*
Y8294320D01*
X1105680D01*
Y1105680D01*
X23894320D01*
Y8294320D01*
X18144320D01*
Y11605680D01*
X23894320D01*
Y18894320D01*
X14096550D01*
Y15894320D01*
X10894320D01*
Y18894320D01*
X1105680D01*
Y11605680D01*
X1105880Y11605880D02*
X6855880D01*
Y8294120D01*
X1105880D01*
Y1105880D01*
X23894120D01*
Y8294120D01*
X18144120D01*
Y11605880D01*
X23894120D01*
Y18894120D01*
X14096750D01*
Y15894120D01*
X10894120D01*
Y18894120D01*
X1105880D01*
Y11605880D01*
X1106080Y11606080D02*
X6856080D01*
Y8293920D01*
X1106080D01*
Y1106080D01*
X23893920D01*
Y8293920D01*
X18143920D01*
Y11606080D01*
X23893920D01*
Y18893920D01*
X14096950D01*
Y15893920D01*
X10893920D01*
Y18893920D01*
X1106080D01*
Y11606080D01*
X1106280Y11606280D02*
X6856280D01*
Y8293720D01*
X1106280D01*
Y1106280D01*
X23893720D01*
Y8293720D01*
X18143720D01*
Y11606280D01*
X23893720D01*
Y18893720D01*
X14097150D01*
Y15893720D01*
X10893720D01*
Y18893720D01*
X1106280D01*
Y11606280D01*
X1106480Y11606480D02*
X6856480D01*
Y8293520D01*
X1106480D01*
Y1106480D01*
X23893520D01*
Y8293520D01*
X18143520D01*
Y11606480D01*
X23893520D01*
Y18893520D01*
X14097350D01*
Y15893520D01*
X10893520D01*
Y18893520D01*
X1106480D01*
Y11606480D01*
X1106680Y11606680D02*
X6856680D01*
Y8293320D01*
X1106680D01*
Y1106680D01*
X23893320D01*
Y8293320D01*
X18143320D01*
Y11606680D01*
X23893320D01*
Y18893320D01*
X14097550D01*
Y15893320D01*
X10893320D01*
Y18893320D01*
X1106680D01*
Y11606680D01*
X1106880Y11606880D02*
X6856880D01*
Y8293120D01*
X1106880D01*
Y1106880D01*
X23893120D01*
Y8293120D01*
X18143120D01*
Y11606880D01*
X23893120D01*
Y18893120D01*
X14097750D01*
Y15893120D01*
X10893120D01*
Y18893120D01*
X1106880D01*
Y11606880D01*
X1107080Y11607080D02*
X6857080D01*
Y8292920D01*
X1107080D01*
Y1107080D01*
X23892920D01*
Y8292920D01*
X18142920D01*
Y11607080D01*
X23892920D01*
Y18892920D01*
X14097950D01*
Y15892920D01*
X10892920D01*
Y18892920D01*
X1107080D01*
Y11607080D01*
X1107280Y11607280D02*
X6857280D01*
Y8292720D01*
X1107280D01*
Y1107280D01*
X23892720D01*
Y8292720D01*
X18142720D01*
Y11607280D01*
X23892720D01*
Y18892720D01*
X14098150D01*
Y15892720D01*
X10892720D01*
Y18892720D01*
X1107280D01*
Y11607280D01*
X1107480Y11607480D02*
X6857480D01*
Y8292520D01*
X1107480D01*
Y1107480D01*
X23892520D01*
Y8292520D01*
X18142520D01*
Y11607480D01*
X23892520D01*
Y18892520D01*
X14098350D01*
Y15892520D01*
X10892520D01*
Y18892520D01*
X1107480D01*
Y11607480D01*
X1107680Y11607680D02*
X6857680D01*
Y8292320D01*
X1107680D01*
Y1107680D01*
X23892320D01*
Y8292320D01*
X18142320D01*
Y11607680D01*
X23892320D01*
Y18892320D01*
X14098550D01*
Y15892320D01*
X10892320D01*
Y18892320D01*
X1107680D01*
Y11607680D01*
X1107880Y11607880D02*
X6857880D01*
Y8292120D01*
X1107880D01*
Y1107880D01*
X23892120D01*
Y8292120D01*
X18142120D01*
Y11607880D01*
X23892120D01*
Y18892120D01*
X14098750D01*
Y15892120D01*
X10892120D01*
Y18892120D01*
X1107880D01*
Y11607880D01*
X1108080Y11608080D02*
X6858080D01*
Y8291920D01*
X1108080D01*
Y1108080D01*
X23891920D01*
Y8291920D01*
X18141920D01*
Y11608080D01*
X23891920D01*
Y18891920D01*
X14098950D01*
Y15891920D01*
X10891920D01*
Y18891920D01*
X1108080D01*
Y11608080D01*
X1108280Y11608280D02*
X6858280D01*
Y8291720D01*
X1108280D01*
Y1108280D01*
X23891720D01*
Y8291720D01*
X18141720D01*
Y11608280D01*
X23891720D01*
Y18891720D01*
X14099150D01*
Y15891720D01*
X10891720D01*
Y18891720D01*
X1108280D01*
Y11608280D01*
X1108480Y11608480D02*
X6858480D01*
Y8291520D01*
X1108480D01*
Y1108480D01*
X23891520D01*
Y8291520D01*
X18141520D01*
Y11608480D01*
X23891520D01*
Y18891520D01*
X14099350D01*
Y15891520D01*
X10891520D01*
Y18891520D01*
X1108480D01*
Y11608480D01*
X1108680Y11608680D02*
X6858680D01*
Y8291320D01*
X1108680D01*
Y1108680D01*
X23891320D01*
Y8291320D01*
X18141320D01*
Y11608680D01*
X23891320D01*
Y18891320D01*
X14099550D01*
Y15891320D01*
X10891320D01*
Y18891320D01*
X1108680D01*
Y11608680D01*
X1108880Y11608880D02*
X6858880D01*
Y8291120D01*
X1108880D01*
Y1108880D01*
X23891120D01*
Y8291120D01*
X18141120D01*
Y11608880D01*
X23891120D01*
Y18891120D01*
X14099750D01*
Y15891120D01*
X10891120D01*
Y18891120D01*
X1108880D01*
Y11608880D01*
X1109080Y11609080D02*
X6859080D01*
Y8290920D01*
X1109080D01*
Y1109080D01*
X23890920D01*
Y8290920D01*
X18140920D01*
Y11609080D01*
X23890920D01*
Y18890920D01*
X14099950D01*
Y15890920D01*
X10890920D01*
Y18890920D01*
X1109080D01*
Y11609080D01*
X1109280Y11609280D02*
X6859280D01*
Y8290720D01*
X1109280D01*
Y1109280D01*
X23890720D01*
Y8290720D01*
X18140720D01*
Y11609280D01*
X23890720D01*
Y18890720D01*
X14100150D01*
Y15890720D01*
X10890720D01*
Y18890720D01*
X1109280D01*
Y11609280D01*
X1109480Y11609480D02*
X6859480D01*
Y8290520D01*
X1109480D01*
Y1109480D01*
X23890520D01*
Y8290520D01*
X18140520D01*
Y11609480D01*
X23890520D01*
Y18890520D01*
X14100350D01*
Y15890520D01*
X10890520D01*
Y18890520D01*
X1109480D01*
Y11609480D01*
X1109680Y11609680D02*
X6859680D01*
Y8290320D01*
X1109680D01*
Y1109680D01*
X23890320D01*
Y8290320D01*
X18140320D01*
Y11609680D01*
X23890320D01*
Y18890320D01*
X14100550D01*
Y15890320D01*
X10890320D01*
Y18890320D01*
X1109680D01*
Y11609680D01*
X1109880Y11609880D02*
X6859880D01*
Y8290120D01*
X1109880D01*
Y1109880D01*
X23890120D01*
Y8290120D01*
X18140120D01*
Y11609880D01*
X23890120D01*
Y18890120D01*
X14100750D01*
Y15890120D01*
X10890120D01*
Y18890120D01*
X1109880D01*
Y11609880D01*
X1110080Y11610080D02*
X6860080D01*
Y8289920D01*
X1110080D01*
Y1110080D01*
X23889920D01*
Y8289920D01*
X18139920D01*
Y11610080D01*
X23889920D01*
Y18889920D01*
X14100950D01*
Y15889920D01*
X10889920D01*
Y18889920D01*
X1110080D01*
Y11610080D01*
X1110280Y11610280D02*
X6860280D01*
Y8289720D01*
X1110280D01*
Y1110280D01*
X23889720D01*
Y8289720D01*
X18139720D01*
Y11610280D01*
X23889720D01*
Y18889720D01*
X14101150D01*
Y15889720D01*
X10889720D01*
Y18889720D01*
X1110280D01*
Y11610280D01*
X1110480Y11610480D02*
X6860480D01*
Y8289520D01*
X1110480D01*
Y1110480D01*
X23889520D01*
Y8289520D01*
X18139520D01*
Y11610480D01*
X23889520D01*
Y18889520D01*
X14101350D01*
Y15889520D01*
X10889520D01*
Y18889520D01*
X1110480D01*
Y11610480D01*
X1110680Y11610680D02*
X6860680D01*
Y8289320D01*
X1110680D01*
Y1110680D01*
X23889320D01*
Y8289320D01*
X18139320D01*
Y11610680D01*
X23889320D01*
Y18889320D01*
X14101550D01*
Y15889320D01*
X10889320D01*
Y18889320D01*
X1110680D01*
Y11610680D01*
X1110880Y11610880D02*
X6860880D01*
Y8289120D01*
X1110880D01*
Y1110880D01*
X23889120D01*
Y8289120D01*
X18139120D01*
Y11610880D01*
X23889120D01*
Y18889120D01*
X14101750D01*
Y15889120D01*
X10889120D01*
Y18889120D01*
X1110880D01*
Y11610880D01*
X1111080Y11611080D02*
X6861080D01*
Y8288920D01*
X1111080D01*
Y1111080D01*
X23888920D01*
Y8288920D01*
X18138920D01*
Y11611080D01*
X23888920D01*
Y18888920D01*
X14101950D01*
Y15888920D01*
X10888920D01*
Y18888920D01*
X1111080D01*
Y11611080D01*
X1111280Y11611280D02*
X6861280D01*
Y8288720D01*
X1111280D01*
Y1111280D01*
X23888720D01*
Y8288720D01*
X18138720D01*
Y11611280D01*
X23888720D01*
Y18888720D01*
X14102150D01*
Y15888720D01*
X10888720D01*
Y18888720D01*
X1111280D01*
Y11611280D01*
X1111480Y11611480D02*
X6861480D01*
Y8288520D01*
X1111480D01*
Y1111480D01*
X23888520D01*
Y8288520D01*
X18138520D01*
Y11611480D01*
X23888520D01*
Y18888520D01*
X14102350D01*
Y15888520D01*
X10888520D01*
Y18888520D01*
X1111480D01*
Y11611480D01*
X1111680Y11611680D02*
X6861680D01*
Y8288320D01*
X1111680D01*
Y1111680D01*
X23888320D01*
Y8288320D01*
X18138320D01*
Y11611680D01*
X23888320D01*
Y18888320D01*
X14102550D01*
Y15888320D01*
X10888320D01*
Y18888320D01*
X1111680D01*
Y11611680D01*
X1111880Y11611880D02*
X6861880D01*
Y8288120D01*
X1111880D01*
Y1111880D01*
X23888120D01*
Y8288120D01*
X18138120D01*
Y11611880D01*
X23888120D01*
Y18888120D01*
X14102750D01*
Y15888120D01*
X10888120D01*
Y18888120D01*
X1111880D01*
Y11611880D01*
X1112080Y11612080D02*
X6862080D01*
Y8287920D01*
X1112080D01*
Y1112080D01*
X23887920D01*
Y8287920D01*
X18137920D01*
Y11612080D01*
X23887920D01*
Y18887920D01*
X14102950D01*
Y15887920D01*
X10887920D01*
Y18887920D01*
X1112080D01*
Y11612080D01*
X1112280Y11612280D02*
X6862280D01*
Y8287720D01*
X1112280D01*
Y1112280D01*
X23887720D01*
Y8287720D01*
X18137720D01*
Y11612280D01*
X23887720D01*
Y18887720D01*
X14103150D01*
Y15887720D01*
X10887720D01*
Y18887720D01*
X1112280D01*
Y11612280D01*
X1112480Y11612480D02*
X6862480D01*
Y8287520D01*
X1112480D01*
Y1112480D01*
X23887520D01*
Y8287520D01*
X18137520D01*
Y11612480D01*
X23887520D01*
Y18887520D01*
X14103350D01*
Y15887520D01*
X10887520D01*
Y18887520D01*
X1112480D01*
Y11612480D01*
X1112680Y11612680D02*
X6862680D01*
Y8287320D01*
X1112680D01*
Y1112680D01*
X23887320D01*
Y8287320D01*
X18137320D01*
Y11612680D01*
X23887320D01*
Y18887320D01*
X14103550D01*
Y15887320D01*
X10887320D01*
Y18887320D01*
X1112680D01*
Y11612680D01*
X1112880Y11612880D02*
X6862880D01*
Y8287120D01*
X1112880D01*
Y1112880D01*
X23887120D01*
Y8287120D01*
X18137120D01*
Y11612880D01*
X23887120D01*
Y18887120D01*
X14103750D01*
Y15887120D01*
X10887120D01*
Y18887120D01*
X1112880D01*
Y11612880D01*
X1113080Y11613080D02*
X6863080D01*
Y8286920D01*
X1113080D01*
Y1113080D01*
X23886920D01*
Y8286920D01*
X18136920D01*
Y11613080D01*
X23886920D01*
Y18886920D01*
X14103950D01*
Y15886920D01*
X10886920D01*
Y18886920D01*
X1113080D01*
Y11613080D01*
X1113280Y11613280D02*
X6863280D01*
Y8286720D01*
X1113280D01*
Y1113280D01*
X23886720D01*
Y8286720D01*
X18136720D01*
Y11613280D01*
X23886720D01*
Y18886720D01*
X14104150D01*
Y15886720D01*
X10886720D01*
Y18886720D01*
X1113280D01*
Y11613280D01*
X1113480Y11613480D02*
X6863480D01*
Y8286520D01*
X1113480D01*
Y1113480D01*
X23886520D01*
Y8286520D01*
X18136520D01*
Y11613480D01*
X23886520D01*
Y18886520D01*
X14104350D01*
Y15886520D01*
X10886520D01*
Y18886520D01*
X1113480D01*
Y11613480D01*
X1113680Y11613680D02*
X6863680D01*
Y8286320D01*
X1113680D01*
Y1113680D01*
X23886320D01*
Y8286320D01*
X18136320D01*
Y11613680D01*
X23886320D01*
Y18886320D01*
X14104550D01*
Y15886320D01*
X10886320D01*
Y18886320D01*
X1113680D01*
Y11613680D01*
X1113880Y11613880D02*
X6863880D01*
Y8286120D01*
X1113880D01*
Y1113880D01*
X23886120D01*
Y8286120D01*
X18136120D01*
Y11613880D01*
X23886120D01*
Y18886120D01*
X14104750D01*
Y15886120D01*
X10886120D01*
Y18886120D01*
X1113880D01*
Y11613880D01*
X1114080Y11614080D02*
X6864080D01*
Y8285920D01*
X1114080D01*
Y1114080D01*
X23885920D01*
Y8285920D01*
X18135920D01*
Y11614080D01*
X23885920D01*
Y18885920D01*
X14104950D01*
Y15885920D01*
X10885920D01*
Y18885920D01*
X1114080D01*
Y11614080D01*
X1114280Y11614280D02*
X6864280D01*
Y8285720D01*
X1114280D01*
Y1114280D01*
X23885720D01*
Y8285720D01*
X18135720D01*
Y11614280D01*
X23885720D01*
Y18885720D01*
X14105150D01*
Y15885720D01*
X10885720D01*
Y18885720D01*
X1114280D01*
Y11614280D01*
X1114480Y11614480D02*
X6864480D01*
Y8285520D01*
X1114480D01*
Y1114480D01*
X23885520D01*
Y8285520D01*
X18135520D01*
Y11614480D01*
X23885520D01*
Y18885520D01*
X14105350D01*
Y15885520D01*
X10885520D01*
Y18885520D01*
X1114480D01*
Y11614480D01*
X1114680Y11614680D02*
X6864680D01*
Y8285320D01*
X1114680D01*
Y1114680D01*
X23885320D01*
Y8285320D01*
X18135320D01*
Y11614680D01*
X23885320D01*
Y18885320D01*
X14105550D01*
Y15885320D01*
X10885320D01*
Y18885320D01*
X1114680D01*
Y11614680D01*
X1114880Y11614880D02*
X6864880D01*
Y8285120D01*
X1114880D01*
Y1114880D01*
X23885120D01*
Y8285120D01*
X18135120D01*
Y11614880D01*
X23885120D01*
Y18885120D01*
X14105750D01*
Y15885120D01*
X10885120D01*
Y18885120D01*
X1114880D01*
Y11614880D01*
X1115080Y11615080D02*
X6865080D01*
Y8284920D01*
X1115080D01*
Y1115080D01*
X23884920D01*
Y8284920D01*
X18134920D01*
Y11615080D01*
X23884920D01*
Y18884920D01*
X14105950D01*
Y15884920D01*
X10884920D01*
Y18884920D01*
X1115080D01*
Y11615080D01*
X1115280Y11615280D02*
X6865280D01*
Y8284720D01*
X1115280D01*
Y1115280D01*
X23884720D01*
Y8284720D01*
X18134720D01*
Y11615280D01*
X23884720D01*
Y18884720D01*
X14106150D01*
Y15884720D01*
X10884720D01*
Y18884720D01*
X1115280D01*
Y11615280D01*
X1115480Y11615480D02*
X6865480D01*
Y8284520D01*
X1115480D01*
Y1115480D01*
X23884520D01*
Y8284520D01*
X18134520D01*
Y11615480D01*
X23884520D01*
Y18884520D01*
X14106350D01*
Y15884520D01*
X10884520D01*
Y18884520D01*
X1115480D01*
Y11615480D01*
X1115680Y11615680D02*
X6865680D01*
Y8284320D01*
X1115680D01*
Y1115680D01*
X23884320D01*
Y8284320D01*
X18134320D01*
Y11615680D01*
X23884320D01*
Y18884320D01*
X14106550D01*
Y15884320D01*
X10884320D01*
Y18884320D01*
X1115680D01*
Y11615680D01*
X1115880Y11615880D02*
X6865880D01*
Y8284120D01*
X1115880D01*
Y1115880D01*
X23884120D01*
Y8284120D01*
X18134120D01*
Y11615880D01*
X23884120D01*
Y18884120D01*
X14106750D01*
Y15884120D01*
X10884120D01*
Y18884120D01*
X1115880D01*
Y11615880D01*
X1116080Y11616080D02*
X6866080D01*
Y8283920D01*
X1116080D01*
Y1116080D01*
X23883920D01*
Y8283920D01*
X18133920D01*
Y11616080D01*
X23883920D01*
Y18883920D01*
X14106950D01*
Y15883920D01*
X10883920D01*
Y18883920D01*
X1116080D01*
Y11616080D01*
X1116280Y11616280D02*
X6866280D01*
Y8283720D01*
X1116280D01*
Y1116280D01*
X23883720D01*
Y8283720D01*
X18133720D01*
Y11616280D01*
X23883720D01*
Y18883720D01*
X14107150D01*
Y15883720D01*
X10883720D01*
Y18883720D01*
X1116280D01*
Y11616280D01*
X1116480Y11616480D02*
X6866480D01*
Y8283520D01*
X1116480D01*
Y1116480D01*
X23883520D01*
Y8283520D01*
X18133520D01*
Y11616480D01*
X23883520D01*
Y18883520D01*
X14107350D01*
Y15883520D01*
X10883520D01*
Y18883520D01*
X1116480D01*
Y11616480D01*
X1116680Y11616680D02*
X6866680D01*
Y8283320D01*
X1116680D01*
Y1116680D01*
X23883320D01*
Y8283320D01*
X18133320D01*
Y11616680D01*
X23883320D01*
Y18883320D01*
X14107550D01*
Y15883320D01*
X10883320D01*
Y18883320D01*
X1116680D01*
Y11616680D01*
X1116880Y11616880D02*
X6866880D01*
Y8283120D01*
X1116880D01*
Y1116880D01*
X23883120D01*
Y8283120D01*
X18133120D01*
Y11616880D01*
X23883120D01*
Y18883120D01*
X14107750D01*
Y15883120D01*
X10883120D01*
Y18883120D01*
X1116880D01*
Y11616880D01*
X1117080Y11617080D02*
X6867080D01*
Y8282920D01*
X1117080D01*
Y1117080D01*
X23882920D01*
Y8282920D01*
X18132920D01*
Y11617080D01*
X23882920D01*
Y18882920D01*
X14107950D01*
Y15882920D01*
X10882920D01*
Y18882920D01*
X1117080D01*
Y11617080D01*
X1117280Y11617280D02*
X6867280D01*
Y8282720D01*
X1117280D01*
Y1117280D01*
X23882720D01*
Y8282720D01*
X18132720D01*
Y11617280D01*
X23882720D01*
Y18882720D01*
X14108150D01*
Y15882720D01*
X10882720D01*
Y18882720D01*
X1117280D01*
Y11617280D01*
X1117480Y11617480D02*
X6867480D01*
Y8282520D01*
X1117480D01*
Y1117480D01*
X23882520D01*
Y8282520D01*
X18132520D01*
Y11617480D01*
X23882520D01*
Y18882520D01*
X14108350D01*
Y15882520D01*
X10882520D01*
Y18882520D01*
X1117480D01*
Y11617480D01*
X1117680Y11617680D02*
X6867680D01*
Y8282320D01*
X1117680D01*
Y1117680D01*
X23882320D01*
Y8282320D01*
X18132320D01*
Y11617680D01*
X23882320D01*
Y18882320D01*
X14108550D01*
Y15882320D01*
X10882320D01*
Y18882320D01*
X1117680D01*
Y11617680D01*
X1117880Y11617880D02*
X6867880D01*
Y8282120D01*
X1117880D01*
Y1117880D01*
X23882120D01*
Y8282120D01*
X18132120D01*
Y11617880D01*
X23882120D01*
Y18882120D01*
X14108750D01*
Y15882120D01*
X10882120D01*
Y18882120D01*
X1117880D01*
Y11617880D01*
X1118080Y11618080D02*
X6868080D01*
Y8281920D01*
X1118080D01*
Y1118080D01*
X23881920D01*
Y8281920D01*
X18131920D01*
Y11618080D01*
X23881920D01*
Y18881920D01*
X14108950D01*
Y15881920D01*
X10881920D01*
Y18881920D01*
X1118080D01*
Y11618080D01*
X1118280Y11618280D02*
X6868280D01*
Y8281720D01*
X1118280D01*
Y1118280D01*
X23881720D01*
Y8281720D01*
X18131720D01*
Y11618280D01*
X23881720D01*
Y18881720D01*
X14109150D01*
Y15881720D01*
X10881720D01*
Y18881720D01*
X1118280D01*
Y11618280D01*
X1118480Y11618480D02*
X6868480D01*
Y8281520D01*
X1118480D01*
Y1118480D01*
X23881520D01*
Y8281520D01*
X18131520D01*
Y11618480D01*
X23881520D01*
Y18881520D01*
X14109350D01*
Y15881520D01*
X10881520D01*
Y18881520D01*
X1118480D01*
Y11618480D01*
X1118680Y11618680D02*
X6868680D01*
Y8281320D01*
X1118680D01*
Y1118680D01*
X23881320D01*
Y8281320D01*
X18131320D01*
Y11618680D01*
X23881320D01*
Y18881320D01*
X14109550D01*
Y15881320D01*
X10881320D01*
Y18881320D01*
X1118680D01*
Y11618680D01*
X1118880Y11618880D02*
X6868880D01*
Y8281120D01*
X1118880D01*
Y1118880D01*
X23881120D01*
Y8281120D01*
X18131120D01*
Y11618880D01*
X23881120D01*
Y18881120D01*
X14109750D01*
Y15881120D01*
X10881120D01*
Y18881120D01*
X1118880D01*
Y11618880D01*
X1119080Y11619080D02*
X6869080D01*
Y8280920D01*
X1119080D01*
Y1119080D01*
X23880920D01*
Y8280920D01*
X18130920D01*
Y11619080D01*
X23880920D01*
Y18880920D01*
X14109950D01*
Y15880920D01*
X10880920D01*
Y18880920D01*
X1119080D01*
Y11619080D01*
X1119280Y11619280D02*
X6869280D01*
Y8280720D01*
X1119280D01*
Y1119280D01*
X23880720D01*
Y8280720D01*
X18130720D01*
Y11619280D01*
X23880720D01*
Y18880720D01*
X14110150D01*
Y15880720D01*
X10880720D01*
Y18880720D01*
X1119280D01*
Y11619280D01*
X1119480Y11619480D02*
X6869480D01*
Y8280520D01*
X1119480D01*
Y1119480D01*
X23880520D01*
Y8280520D01*
X18130520D01*
Y11619480D01*
X23880520D01*
Y18880520D01*
X14110350D01*
Y15880520D01*
X10880520D01*
Y18880520D01*
X1119480D01*
Y11619480D01*
X1119680Y11619680D02*
X6869680D01*
Y8280320D01*
X1119680D01*
Y1119680D01*
X23880320D01*
Y8280320D01*
X18130320D01*
Y11619680D01*
X23880320D01*
Y18880320D01*
X14110550D01*
Y15880320D01*
X10880320D01*
Y18880320D01*
X1119680D01*
Y11619680D01*
X1119880Y11619880D02*
X6869880D01*
Y8280120D01*
X1119880D01*
Y1119880D01*
X23880120D01*
Y8280120D01*
X18130120D01*
Y11619880D01*
X23880120D01*
Y18880120D01*
X14110750D01*
Y15880120D01*
X10880120D01*
Y18880120D01*
X1119880D01*
Y11619880D01*
X1120080Y11620080D02*
X6870080D01*
Y8279920D01*
X1120080D01*
Y1120080D01*
X23879920D01*
Y8279920D01*
X18129920D01*
Y11620080D01*
X23879920D01*
Y18879920D01*
X14110950D01*
Y15879920D01*
X10879920D01*
Y18879920D01*
X1120080D01*
Y11620080D01*
X1120280Y11620280D02*
X6870280D01*
Y8279720D01*
X1120280D01*
Y1120280D01*
X23879720D01*
Y8279720D01*
X18129720D01*
Y11620280D01*
X23879720D01*
Y18879720D01*
X14111150D01*
Y15879720D01*
X10879720D01*
Y18879720D01*
X1120280D01*
Y11620280D01*
X1120480Y11620480D02*
X6870480D01*
Y8279520D01*
X1120480D01*
Y1120480D01*
X23879520D01*
Y8279520D01*
X18129520D01*
Y11620480D01*
X23879520D01*
Y18879520D01*
X14111350D01*
Y15879520D01*
X10879520D01*
Y18879520D01*
X1120480D01*
Y11620480D01*
X1120680Y11620680D02*
X6870680D01*
Y8279320D01*
X1120680D01*
Y1120680D01*
X23879320D01*
Y8279320D01*
X18129320D01*
Y11620680D01*
X23879320D01*
Y18879320D01*
X14111550D01*
Y15879320D01*
X10879320D01*
Y18879320D01*
X1120680D01*
Y11620680D01*
X1120880Y11620880D02*
X6870880D01*
Y8279120D01*
X1120880D01*
Y1120880D01*
X23879120D01*
Y8279120D01*
X18129120D01*
Y11620880D01*
X23879120D01*
Y18879120D01*
X14111750D01*
Y15879120D01*
X10879120D01*
Y18879120D01*
X1120880D01*
Y11620880D01*
X1121080Y11621080D02*
X6871080D01*
Y8278920D01*
X1121080D01*
Y1121080D01*
X23878920D01*
Y8278920D01*
X18128920D01*
Y11621080D01*
X23878920D01*
Y18878920D01*
X14111950D01*
Y15878920D01*
X10878920D01*
Y18878920D01*
X1121080D01*
Y11621080D01*
X1121280Y11621280D02*
X6871280D01*
Y8278720D01*
X1121280D01*
Y1121280D01*
X23878720D01*
Y8278720D01*
X18128720D01*
Y11621280D01*
X23878720D01*
Y18878720D01*
X14112150D01*
Y15878720D01*
X10878720D01*
Y18878720D01*
X1121280D01*
Y11621280D01*
X1121480Y11621480D02*
X6871480D01*
Y8278520D01*
X1121480D01*
Y1121480D01*
X23878520D01*
Y8278520D01*
X18128520D01*
Y11621480D01*
X23878520D01*
Y18878520D01*
X14112350D01*
Y15878520D01*
X10878520D01*
Y18878520D01*
X1121480D01*
Y11621480D01*
X1121680Y11621680D02*
X6871680D01*
Y8278320D01*
X1121680D01*
Y1121680D01*
X23878320D01*
Y8278320D01*
X18128320D01*
Y11621680D01*
X23878320D01*
Y18878320D01*
X14112550D01*
Y15878320D01*
X10878320D01*
Y18878320D01*
X1121680D01*
Y11621680D01*
X1121880Y11621880D02*
X6871880D01*
Y8278120D01*
X1121880D01*
Y1121880D01*
X23878120D01*
Y8278120D01*
X18128120D01*
Y11621880D01*
X23878120D01*
Y18878120D01*
X14112750D01*
Y15878120D01*
X10878120D01*
Y18878120D01*
X1121880D01*
Y11621880D01*
X1122080Y11622080D02*
X6872080D01*
Y8277920D01*
X1122080D01*
Y1122080D01*
X23877920D01*
Y8277920D01*
X18127920D01*
Y11622080D01*
X23877920D01*
Y18877920D01*
X14112950D01*
Y15877920D01*
X10877920D01*
Y18877920D01*
X1122080D01*
Y11622080D01*
X1122280Y11622280D02*
X6872280D01*
Y8277720D01*
X1122280D01*
Y1122280D01*
X23877720D01*
Y8277720D01*
X18127720D01*
Y11622280D01*
X23877720D01*
Y18877720D01*
X14113150D01*
Y15877720D01*
X10877720D01*
Y18877720D01*
X1122280D01*
Y11622280D01*
X1122480Y11622480D02*
X6872480D01*
Y8277520D01*
X1122480D01*
Y1122480D01*
X23877520D01*
Y8277520D01*
X18127520D01*
Y11622480D01*
X23877520D01*
Y18877520D01*
X14113350D01*
Y15877520D01*
X10877520D01*
Y18877520D01*
X1122480D01*
Y11622480D01*
X1122680Y11622680D02*
X6872680D01*
Y8277320D01*
X1122680D01*
Y1122680D01*
X23877320D01*
Y8277320D01*
X18127320D01*
Y11622680D01*
X23877320D01*
Y18877320D01*
X14113550D01*
Y15877320D01*
X10877320D01*
Y18877320D01*
X1122680D01*
Y11622680D01*
X1122880Y11622880D02*
X6872880D01*
Y8277120D01*
X1122880D01*
Y1122880D01*
X23877120D01*
Y8277120D01*
X18127120D01*
Y11622880D01*
X23877120D01*
Y18877120D01*
X14113750D01*
Y15877120D01*
X10877120D01*
Y18877120D01*
X1122880D01*
Y11622880D01*
X1123080Y11623080D02*
X6873080D01*
Y8276920D01*
X1123080D01*
Y1123080D01*
X23876920D01*
Y8276920D01*
X18126920D01*
Y11623080D01*
X23876920D01*
Y18876920D01*
X14113950D01*
Y15876920D01*
X10876920D01*
Y18876920D01*
X1123080D01*
Y11623080D01*
X1123280Y11623280D02*
X6873280D01*
Y8276720D01*
X1123280D01*
Y1123280D01*
X23876720D01*
Y8276720D01*
X18126720D01*
Y11623280D01*
X23876720D01*
Y18876720D01*
X14114150D01*
Y15876720D01*
X10876720D01*
Y18876720D01*
X1123280D01*
Y11623280D01*
X1123480Y11623480D02*
X6873480D01*
Y8276520D01*
X1123480D01*
Y1123480D01*
X23876520D01*
Y8276520D01*
X18126520D01*
Y11623480D01*
X23876520D01*
Y18876520D01*
X14114350D01*
Y15876520D01*
X10876520D01*
Y18876520D01*
X1123480D01*
Y11623480D01*
X1123680Y11623680D02*
X6873680D01*
Y8276320D01*
X1123680D01*
Y1123680D01*
X23876320D01*
Y8276320D01*
X18126320D01*
Y11623680D01*
X23876320D01*
Y18876320D01*
X14114550D01*
Y15876320D01*
X10876320D01*
Y18876320D01*
X1123680D01*
Y11623680D01*
X1123880Y11623880D02*
X6873880D01*
Y8276120D01*
X1123880D01*
Y1123880D01*
X23876120D01*
Y8276120D01*
X18126120D01*
Y11623880D01*
X23876120D01*
Y18876120D01*
X14114750D01*
Y15876120D01*
X10876120D01*
Y18876120D01*
X1123880D01*
Y11623880D01*
X1124080Y11624080D02*
X6874080D01*
Y8275920D01*
X1124080D01*
Y1124080D01*
X23875920D01*
Y8275920D01*
X18125920D01*
Y11624080D01*
X23875920D01*
Y18875920D01*
X14114950D01*
Y15875920D01*
X10875920D01*
Y18875920D01*
X1124080D01*
Y11624080D01*
X1124280Y11624280D02*
X6874280D01*
Y8275720D01*
X1124280D01*
Y1124280D01*
X23875720D01*
Y8275720D01*
X18125720D01*
Y11624280D01*
X23875720D01*
Y18875720D01*
X14115150D01*
Y15875720D01*
X10875720D01*
Y18875720D01*
X1124280D01*
Y11624280D01*
X1124480Y11624480D02*
X6874480D01*
Y8275520D01*
X1124480D01*
Y1124480D01*
X23875520D01*
Y8275520D01*
X18125520D01*
Y11624480D01*
X23875520D01*
Y18875520D01*
X14115350D01*
Y15875520D01*
X10875520D01*
Y18875520D01*
X1124480D01*
Y11624480D01*
X1124680Y11624680D02*
X6874680D01*
Y8275320D01*
X1124680D01*
Y1124680D01*
X23875320D01*
Y8275320D01*
X18125320D01*
Y11624680D01*
X23875320D01*
Y18875320D01*
X14115550D01*
Y15875320D01*
X10875320D01*
Y18875320D01*
X1124680D01*
Y11624680D01*
X1124880Y11624880D02*
X6874880D01*
Y8275120D01*
X1124880D01*
Y1124880D01*
X23875120D01*
Y8275120D01*
X18125120D01*
Y11624880D01*
X23875120D01*
Y18875120D01*
X14115750D01*
Y15875120D01*
X10875120D01*
Y18875120D01*
X1124880D01*
Y11624880D01*
X1125080Y11625080D02*
X6875080D01*
Y8274920D01*
X1125080D01*
Y1125080D01*
X23874920D01*
Y8274920D01*
X18124920D01*
Y11625080D01*
X23874920D01*
Y18874920D01*
X14115950D01*
Y15874920D01*
X10874920D01*
Y18874920D01*
X1125080D01*
Y11625080D01*
X1125280Y11625280D02*
X6875280D01*
Y8274720D01*
X1125280D01*
Y1125280D01*
X23874720D01*
Y8274720D01*
X18124720D01*
Y11625280D01*
X23874720D01*
Y18874720D01*
X14116150D01*
Y15874720D01*
X10874720D01*
Y18874720D01*
X1125280D01*
Y11625280D01*
X1125480Y11625480D02*
X6875480D01*
Y8274520D01*
X1125480D01*
Y1125480D01*
X23874520D01*
Y8274520D01*
X18124520D01*
Y11625480D01*
X23874520D01*
Y18874520D01*
X14116350D01*
Y15874520D01*
X10874520D01*
Y18874520D01*
X1125480D01*
Y11625480D01*
X1125680Y11625680D02*
X6875680D01*
Y8274320D01*
X1125680D01*
Y1125680D01*
X23874320D01*
Y8274320D01*
X18124320D01*
Y11625680D01*
X23874320D01*
Y18874320D01*
X14116550D01*
Y15874320D01*
X10874320D01*
Y18874320D01*
X1125680D01*
Y11625680D01*
X1125880Y11625880D02*
X6875880D01*
Y8274120D01*
X1125880D01*
Y1125880D01*
X23874120D01*
Y8274120D01*
X18124120D01*
Y11625880D01*
X23874120D01*
Y18874120D01*
X14116750D01*
Y15874120D01*
X10874120D01*
Y18874120D01*
X1125880D01*
Y11625880D01*
X1126080Y11626080D02*
X6876080D01*
Y8273920D01*
X1126080D01*
Y1126080D01*
X23873920D01*
Y8273920D01*
X18123920D01*
Y11626080D01*
X23873920D01*
Y18873920D01*
X14116950D01*
Y15873920D01*
X10873920D01*
Y18873920D01*
X1126080D01*
Y11626080D01*
X1126280Y11626280D02*
X6876280D01*
Y8273720D01*
X1126280D01*
Y1126280D01*
X23873720D01*
Y8273720D01*
X18123720D01*
Y11626280D01*
X23873720D01*
Y18873720D01*
X14117150D01*
Y15873720D01*
X10873720D01*
Y18873720D01*
X1126280D01*
Y11626280D01*
X1126480Y11626480D02*
X6876480D01*
Y8273520D01*
X1126480D01*
Y1126480D01*
X23873520D01*
Y8273520D01*
X18123520D01*
Y11626480D01*
X23873520D01*
Y18873520D01*
X14117350D01*
Y15873520D01*
X10873520D01*
Y18873520D01*
X1126480D01*
Y11626480D01*
X1126680Y11626680D02*
X6876680D01*
Y8273320D01*
X1126680D01*
Y1126680D01*
X23873320D01*
Y8273320D01*
X18123320D01*
Y11626680D01*
X23873320D01*
Y18873320D01*
X14117550D01*
Y15873320D01*
X10873320D01*
Y18873320D01*
X1126680D01*
Y11626680D01*
X1126880Y11626880D02*
X6876880D01*
Y8273120D01*
X1126880D01*
Y1126880D01*
X23873120D01*
Y8273120D01*
X18123120D01*
Y11626880D01*
X23873120D01*
Y18873120D01*
X14117750D01*
Y15873120D01*
X10873120D01*
Y18873120D01*
X1126880D01*
Y11626880D01*
X1127080Y11627080D02*
X6877080D01*
Y8272920D01*
X1127080D01*
Y1127080D01*
X23872920D01*
Y8272920D01*
X18122920D01*
Y11627080D01*
X23872920D01*
Y18872920D01*
X14117950D01*
Y15872920D01*
X10872920D01*
Y18872920D01*
X1127080D01*
Y11627080D01*
X1127280Y11627280D02*
X6877280D01*
Y8272720D01*
X1127280D01*
Y1127280D01*
X23872720D01*
Y8272720D01*
X18122720D01*
Y11627280D01*
X23872720D01*
Y18872720D01*
X14118150D01*
Y15872720D01*
X10872720D01*
Y18872720D01*
X1127280D01*
Y11627280D01*
X1127480Y11627480D02*
X6877480D01*
Y8272520D01*
X1127480D01*
Y1127480D01*
X23872520D01*
Y8272520D01*
X18122520D01*
Y11627480D01*
X23872520D01*
Y18872520D01*
X14118350D01*
Y15872520D01*
X10872520D01*
Y18872520D01*
X1127480D01*
Y11627480D01*
X1127680Y11627680D02*
X6877680D01*
Y8272320D01*
X1127680D01*
Y1127680D01*
X23872320D01*
Y8272320D01*
X18122320D01*
Y11627680D01*
X23872320D01*
Y18872320D01*
X14118550D01*
Y15872320D01*
X10872320D01*
Y18872320D01*
X1127680D01*
Y11627680D01*
X1127880Y11627880D02*
X6877880D01*
Y8272120D01*
X1127880D01*
Y1127880D01*
X23872120D01*
Y8272120D01*
X18122120D01*
Y11627880D01*
X23872120D01*
Y18872120D01*
X14118750D01*
Y15872120D01*
X10872120D01*
Y18872120D01*
X1127880D01*
Y11627880D01*
X1128080Y11628080D02*
X6878080D01*
Y8271920D01*
X1128080D01*
Y1128080D01*
X23871920D01*
Y8271920D01*
X18121920D01*
Y11628080D01*
X23871920D01*
Y18871920D01*
X14118950D01*
Y15871920D01*
X10871920D01*
Y18871920D01*
X1128080D01*
Y11628080D01*
X1128280Y11628280D02*
X6878280D01*
Y8271720D01*
X1128280D01*
Y1128280D01*
X23871720D01*
Y8271720D01*
X18121720D01*
Y11628280D01*
X23871720D01*
Y18871720D01*
X14119150D01*
Y15871720D01*
X10871720D01*
Y18871720D01*
X1128280D01*
Y11628280D01*
X1128480Y11628480D02*
X6878480D01*
Y8271520D01*
X1128480D01*
Y1128480D01*
X23871520D01*
Y8271520D01*
X18121520D01*
Y11628480D01*
X23871520D01*
Y18871520D01*
X14119350D01*
Y15871520D01*
X10871520D01*
Y18871520D01*
X1128480D01*
Y11628480D01*
X1128680Y11628680D02*
X6878680D01*
Y8271320D01*
X1128680D01*
Y1128680D01*
X23871320D01*
Y8271320D01*
X18121320D01*
Y11628680D01*
X23871320D01*
Y18871320D01*
X14119550D01*
Y15871320D01*
X10871320D01*
Y18871320D01*
X1128680D01*
Y11628680D01*
X1128880Y11628880D02*
X6878880D01*
Y8271120D01*
X1128880D01*
Y1128880D01*
X23871120D01*
Y8271120D01*
X18121120D01*
Y11628880D01*
X23871120D01*
Y18871120D01*
X14119750D01*
Y15871120D01*
X10871120D01*
Y18871120D01*
X1128880D01*
Y11628880D01*
X1129080Y11629080D02*
X6879080D01*
Y8270920D01*
X1129080D01*
Y1129080D01*
X23870920D01*
Y8270920D01*
X18120920D01*
Y11629080D01*
X23870920D01*
Y18870920D01*
X14119950D01*
Y15870920D01*
X10870920D01*
Y18870920D01*
X1129080D01*
Y11629080D01*
X1129280Y11629280D02*
X6879280D01*
Y8270720D01*
X1129280D01*
Y1129280D01*
X23870720D01*
Y8270720D01*
X18120720D01*
Y11629280D01*
X23870720D01*
Y18870720D01*
X14120150D01*
Y15870720D01*
X10870720D01*
Y18870720D01*
X1129280D01*
Y11629280D01*
X1129480Y11629480D02*
X6879480D01*
Y8270520D01*
X1129480D01*
Y1129480D01*
X23870520D01*
Y8270520D01*
X18120520D01*
Y11629480D01*
X23870520D01*
Y18870520D01*
X14120350D01*
Y15870520D01*
X10870520D01*
Y18870520D01*
X1129480D01*
Y11629480D01*
X1129680Y11629680D02*
X6879680D01*
Y8270320D01*
X1129680D01*
Y1129680D01*
X23870320D01*
Y8270320D01*
X18120320D01*
Y11629680D01*
X23870320D01*
Y18870320D01*
X14120550D01*
Y15870320D01*
X10870320D01*
Y18870320D01*
X1129680D01*
Y11629680D01*
X1129880Y11629880D02*
X6879880D01*
Y8270120D01*
X1129880D01*
Y1129880D01*
X23870120D01*
Y8270120D01*
X18120120D01*
Y11629880D01*
X23870120D01*
Y18870120D01*
X14120750D01*
Y15870120D01*
X10870120D01*
Y18870120D01*
X1129880D01*
Y11629880D01*
X1130080Y11630080D02*
X6880080D01*
Y8269920D01*
X1130080D01*
Y1130080D01*
X23869920D01*
Y8269920D01*
X18119920D01*
Y11630080D01*
X23869920D01*
Y18869920D01*
X14120950D01*
Y15869920D01*
X10869920D01*
Y18869920D01*
X1130080D01*
Y11630080D01*
X1130280Y11630280D02*
X6880280D01*
Y8269720D01*
X1130280D01*
Y1130280D01*
X23869720D01*
Y8269720D01*
X18119720D01*
Y11630280D01*
X23869720D01*
Y18869720D01*
X14121150D01*
Y15869720D01*
X10869720D01*
Y18869720D01*
X1130280D01*
Y11630280D01*
X1130480Y11630480D02*
X6880480D01*
Y8269520D01*
X1130480D01*
Y1130480D01*
X23869520D01*
Y8269520D01*
X18119520D01*
Y11630480D01*
X23869520D01*
Y18869520D01*
X14121350D01*
Y15869520D01*
X10869520D01*
Y18869520D01*
X1130480D01*
Y11630480D01*
X1130680Y11630680D02*
X6880680D01*
Y8269320D01*
X1130680D01*
Y1130680D01*
X23869320D01*
Y8269320D01*
X18119320D01*
Y11630680D01*
X23869320D01*
Y18869320D01*
X14121550D01*
Y15869320D01*
X10869320D01*
Y18869320D01*
X1130680D01*
Y11630680D01*
X1130880Y11630880D02*
X6880880D01*
Y8269120D01*
X1130880D01*
Y1130880D01*
X23869120D01*
Y8269120D01*
X18119120D01*
Y11630880D01*
X23869120D01*
Y18869120D01*
X14121750D01*
Y15869120D01*
X10869120D01*
Y18869120D01*
X1130880D01*
Y11630880D01*
X1131080Y11631080D02*
X6881080D01*
Y8268920D01*
X1131080D01*
Y1131080D01*
X23868920D01*
Y8268920D01*
X18118920D01*
Y11631080D01*
X23868920D01*
Y18868920D01*
X14121950D01*
Y15868920D01*
X10868920D01*
Y18868920D01*
X1131080D01*
Y11631080D01*
X1131280Y11631280D02*
X6881280D01*
Y8268720D01*
X1131280D01*
Y1131280D01*
X23868720D01*
Y8268720D01*
X18118720D01*
Y11631280D01*
X23868720D01*
Y18868720D01*
X14122150D01*
Y15868720D01*
X10868720D01*
Y18868720D01*
X1131280D01*
Y11631280D01*
X1131480Y11631480D02*
X6881480D01*
Y8268520D01*
X1131480D01*
Y1131480D01*
X23868520D01*
Y8268520D01*
X18118520D01*
Y11631480D01*
X23868520D01*
Y18868520D01*
X14122350D01*
Y15868520D01*
X10868520D01*
Y18868520D01*
X1131480D01*
Y11631480D01*
X1131680Y11631680D02*
X6881680D01*
Y8268320D01*
X1131680D01*
Y1131680D01*
X23868320D01*
Y8268320D01*
X18118320D01*
Y11631680D01*
X23868320D01*
Y18868320D01*
X14122550D01*
Y15868320D01*
X10868320D01*
Y18868320D01*
X1131680D01*
Y11631680D01*
X1131880Y11631880D02*
X6881880D01*
Y8268120D01*
X1131880D01*
Y1131880D01*
X23868120D01*
Y8268120D01*
X18118120D01*
Y11631880D01*
X23868120D01*
Y18868120D01*
X14122750D01*
Y15868120D01*
X10868120D01*
Y18868120D01*
X1131880D01*
Y11631880D01*
X1132080Y11632080D02*
X6882080D01*
Y8267920D01*
X1132080D01*
Y1132080D01*
X23867920D01*
Y8267920D01*
X18117920D01*
Y11632080D01*
X23867920D01*
Y18867920D01*
X14122950D01*
Y15867920D01*
X10867920D01*
Y18867920D01*
X1132080D01*
Y11632080D01*
X1132280Y11632280D02*
X6882280D01*
Y8267720D01*
X1132280D01*
Y1132280D01*
X23867720D01*
Y8267720D01*
X18117720D01*
Y11632280D01*
X23867720D01*
Y18867720D01*
X14123150D01*
Y15867720D01*
X10867720D01*
Y18867720D01*
X1132280D01*
Y11632280D01*
X1132480Y11632480D02*
X6882480D01*
Y8267520D01*
X1132480D01*
Y1132480D01*
X23867520D01*
Y8267520D01*
X18117520D01*
Y11632480D01*
X23867520D01*
Y18867520D01*
X14123350D01*
Y15867520D01*
X10867520D01*
Y18867520D01*
X1132480D01*
Y11632480D01*
X1132680Y11632680D02*
X6882680D01*
Y8267320D01*
X1132680D01*
Y1132680D01*
X23867320D01*
Y8267320D01*
X18117320D01*
Y11632680D01*
X23867320D01*
Y18867320D01*
X14123550D01*
Y15867320D01*
X10867320D01*
Y18867320D01*
X1132680D01*
Y11632680D01*
X1132880Y11632880D02*
X6882880D01*
Y8267120D01*
X1132880D01*
Y1132880D01*
X23867120D01*
Y8267120D01*
X18117120D01*
Y11632880D01*
X23867120D01*
Y18867120D01*
X14123750D01*
Y15867120D01*
X10867120D01*
Y18867120D01*
X1132880D01*
Y11632880D01*
X1133080Y11633080D02*
X6883080D01*
Y8266920D01*
X1133080D01*
Y1133080D01*
X23866920D01*
Y8266920D01*
X18116920D01*
Y11633080D01*
X23866920D01*
Y18866920D01*
X14123950D01*
Y15866920D01*
X10866920D01*
Y18866920D01*
X1133080D01*
Y11633080D01*
X1133280Y11633280D02*
X6883280D01*
Y8266720D01*
X1133280D01*
Y1133280D01*
X23866720D01*
Y8266720D01*
X18116720D01*
Y11633280D01*
X23866720D01*
Y18866720D01*
X14124150D01*
Y15866720D01*
X10866720D01*
Y18866720D01*
X1133280D01*
Y11633280D01*
X1133480Y11633480D02*
X6883480D01*
Y8266520D01*
X1133480D01*
Y1133480D01*
X23866520D01*
Y8266520D01*
X18116520D01*
Y11633480D01*
X23866520D01*
Y18866520D01*
X14124350D01*
Y15866520D01*
X10866520D01*
Y18866520D01*
X1133480D01*
Y11633480D01*
X1133680Y11633680D02*
X6883680D01*
Y8266320D01*
X1133680D01*
Y1133680D01*
X23866320D01*
Y8266320D01*
X18116320D01*
Y11633680D01*
X23866320D01*
Y18866320D01*
X14124550D01*
Y15866320D01*
X10866320D01*
Y18866320D01*
X1133680D01*
Y11633680D01*
X1133880Y11633880D02*
X6883880D01*
Y8266120D01*
X1133880D01*
Y1133880D01*
X23866120D01*
Y8266120D01*
X18116120D01*
Y11633880D01*
X23866120D01*
Y18866120D01*
X14124750D01*
Y15866120D01*
X10866120D01*
Y18866120D01*
X1133880D01*
Y11633880D01*
X1134080Y11634080D02*
X6884080D01*
Y8265920D01*
X1134080D01*
Y1134080D01*
X23865920D01*
Y8265920D01*
X18115920D01*
Y11634080D01*
X23865920D01*
Y18865920D01*
X14124950D01*
Y15865920D01*
X10865920D01*
Y18865920D01*
X1134080D01*
Y11634080D01*
X1134280Y11634280D02*
X6884280D01*
Y8265720D01*
X1134280D01*
Y1134280D01*
X23865720D01*
Y8265720D01*
X18115720D01*
Y11634280D01*
X23865720D01*
Y18865720D01*
X14125150D01*
Y15865720D01*
X10865720D01*
Y18865720D01*
X1134280D01*
Y11634280D01*
X1134480Y11634480D02*
X6884480D01*
Y8265520D01*
X1134480D01*
Y1134480D01*
X23865520D01*
Y8265520D01*
X18115520D01*
Y11634480D01*
X23865520D01*
Y18865520D01*
X14125350D01*
Y15865520D01*
X10865520D01*
Y18865520D01*
X1134480D01*
Y11634480D01*
X1134680Y11634680D02*
X6884680D01*
Y8265320D01*
X1134680D01*
Y1134680D01*
X23865320D01*
Y8265320D01*
X18115320D01*
Y11634680D01*
X23865320D01*
Y18865320D01*
X14125550D01*
Y15865320D01*
X10865320D01*
Y18865320D01*
X1134680D01*
Y11634680D01*
X1134880Y11634880D02*
X6884880D01*
Y8265120D01*
X1134880D01*
Y1134880D01*
X23865120D01*
Y8265120D01*
X18115120D01*
Y11634880D01*
X23865120D01*
Y18865120D01*
X14125750D01*
Y15865120D01*
X10865120D01*
Y18865120D01*
X1134880D01*
Y11634880D01*
X1135080Y11635080D02*
X6885080D01*
Y8264920D01*
X1135080D01*
Y1135080D01*
X23864920D01*
Y8264920D01*
X18114920D01*
Y11635080D01*
X23864920D01*
Y18864920D01*
X14125950D01*
Y15864920D01*
X10864920D01*
Y18864920D01*
X1135080D01*
Y11635080D01*
X1135280Y11635280D02*
X6885280D01*
Y8264720D01*
X1135280D01*
Y1135280D01*
X23864720D01*
Y8264720D01*
X18114720D01*
Y11635280D01*
X23864720D01*
Y18864720D01*
X14126150D01*
Y15864720D01*
X10864720D01*
Y18864720D01*
X1135280D01*
Y11635280D01*
X1135480Y11635480D02*
X6885480D01*
Y8264520D01*
X1135480D01*
Y1135480D01*
X23864520D01*
Y8264520D01*
X18114520D01*
Y11635480D01*
X23864520D01*
Y18864520D01*
X14126350D01*
Y15864520D01*
X10864520D01*
Y18864520D01*
X1135480D01*
Y11635480D01*
X1135680Y11635680D02*
X6885680D01*
Y8264320D01*
X1135680D01*
Y1135680D01*
X23864320D01*
Y8264320D01*
X18114320D01*
Y11635680D01*
X23864320D01*
Y18864320D01*
X14126550D01*
Y15864320D01*
X10864320D01*
Y18864320D01*
X1135680D01*
Y11635680D01*
X1135880Y11635880D02*
X6885880D01*
Y8264120D01*
X1135880D01*
Y1135880D01*
X23864120D01*
Y8264120D01*
X18114120D01*
Y11635880D01*
X23864120D01*
Y18864120D01*
X14126750D01*
Y15864120D01*
X10864120D01*
Y18864120D01*
X1135880D01*
Y11635880D01*
X1136080Y11636080D02*
X6886080D01*
Y8263920D01*
X1136080D01*
Y1136080D01*
X23863920D01*
Y8263920D01*
X18113920D01*
Y11636080D01*
X23863920D01*
Y18863920D01*
X14126950D01*
Y15863920D01*
X10863920D01*
Y18863920D01*
X1136080D01*
Y11636080D01*
X1136280Y11636280D02*
X6886280D01*
Y8263720D01*
X1136280D01*
Y1136280D01*
X23863720D01*
Y8263720D01*
X18113720D01*
Y11636280D01*
X23863720D01*
Y18863720D01*
X14127150D01*
Y15863720D01*
X10863720D01*
Y18863720D01*
X1136280D01*
Y11636280D01*
X1136480Y11636480D02*
X6886480D01*
Y8263520D01*
X1136480D01*
Y1136480D01*
X23863520D01*
Y8263520D01*
X18113520D01*
Y11636480D01*
X23863520D01*
Y18863520D01*
X14127350D01*
Y15863520D01*
X10863520D01*
Y18863520D01*
X1136480D01*
Y11636480D01*
X1136680Y11636680D02*
X6886680D01*
Y8263320D01*
X1136680D01*
Y1136680D01*
X23863320D01*
Y8263320D01*
X18113320D01*
Y11636680D01*
X23863320D01*
Y18863320D01*
X14127550D01*
Y15863320D01*
X10863320D01*
Y18863320D01*
X1136680D01*
Y11636680D01*
X1136880Y11636880D02*
X6886880D01*
Y8263120D01*
X1136880D01*
Y1136880D01*
X23863120D01*
Y8263120D01*
X18113120D01*
Y11636880D01*
X23863120D01*
Y18863120D01*
X14127750D01*
Y15863120D01*
X10863120D01*
Y18863120D01*
X1136880D01*
Y11636880D01*
X1137080Y11637080D02*
X6887080D01*
Y8262920D01*
X1137080D01*
Y1137080D01*
X23862920D01*
Y8262920D01*
X18112920D01*
Y11637080D01*
X23862920D01*
Y18862920D01*
X14127950D01*
Y15862920D01*
X10862920D01*
Y18862920D01*
X1137080D01*
Y11637080D01*
X1137280Y11637280D02*
X6887280D01*
Y8262720D01*
X1137280D01*
Y1137280D01*
X23862720D01*
Y8262720D01*
X18112720D01*
Y11637280D01*
X23862720D01*
Y18862720D01*
X14128150D01*
Y15862720D01*
X10862720D01*
Y18862720D01*
X1137280D01*
Y11637280D01*
X1137480Y11637480D02*
X6887480D01*
Y8262520D01*
X1137480D01*
Y1137480D01*
X23862520D01*
Y8262520D01*
X18112520D01*
Y11637480D01*
X23862520D01*
Y18862520D01*
X14128350D01*
Y15862520D01*
X10862520D01*
Y18862520D01*
X1137480D01*
Y11637480D01*
X1137680Y11637680D02*
X6887680D01*
Y8262320D01*
X1137680D01*
Y1137680D01*
X23862320D01*
Y8262320D01*
X18112320D01*
Y11637680D01*
X23862320D01*
Y18862320D01*
X14128550D01*
Y15862320D01*
X10862320D01*
Y18862320D01*
X1137680D01*
Y11637680D01*
X1137880Y11637880D02*
X6887880D01*
Y8262120D01*
X1137880D01*
Y1137880D01*
X23862120D01*
Y8262120D01*
X18112120D01*
Y11637880D01*
X23862120D01*
Y18862120D01*
X14128750D01*
Y15862120D01*
X10862120D01*
Y18862120D01*
X1137880D01*
Y11637880D01*
X1138080Y11638080D02*
X6888080D01*
Y8261920D01*
X1138080D01*
Y1138080D01*
X23861920D01*
Y8261920D01*
X18111920D01*
Y11638080D01*
X23861920D01*
Y18861920D01*
X14128950D01*
Y15861920D01*
X10861920D01*
Y18861920D01*
X1138080D01*
Y11638080D01*
X1138280Y11638280D02*
X6888280D01*
Y8261720D01*
X1138280D01*
Y1138280D01*
X23861720D01*
Y8261720D01*
X18111720D01*
Y11638280D01*
X23861720D01*
Y18861720D01*
X14129150D01*
Y15861720D01*
X10861720D01*
Y18861720D01*
X1138280D01*
Y11638280D01*
X1138480Y11638480D02*
X6888480D01*
Y8261520D01*
X1138480D01*
Y1138480D01*
X23861520D01*
Y8261520D01*
X18111520D01*
Y11638480D01*
X23861520D01*
Y18861520D01*
X14129350D01*
Y15861520D01*
X10861520D01*
Y18861520D01*
X1138480D01*
Y11638480D01*
X1138680Y11638680D02*
X6888680D01*
Y8261320D01*
X1138680D01*
Y1138680D01*
X23861320D01*
Y8261320D01*
X18111320D01*
Y11638680D01*
X23861320D01*
Y18861320D01*
X14129550D01*
Y15861320D01*
X10861320D01*
Y18861320D01*
X1138680D01*
Y11638680D01*
X1138880Y11638880D02*
X6888880D01*
Y8261120D01*
X1138880D01*
Y1138880D01*
X23861120D01*
Y8261120D01*
X18111120D01*
Y11638880D01*
X23861120D01*
Y18861120D01*
X14129750D01*
Y15861120D01*
X10861120D01*
Y18861120D01*
X1138880D01*
Y11638880D01*
X1139080Y11639080D02*
X6889080D01*
Y8260920D01*
X1139080D01*
Y1139080D01*
X23860920D01*
Y8260920D01*
X18110920D01*
Y11639080D01*
X23860920D01*
Y18860920D01*
X14129950D01*
Y15860920D01*
X10860920D01*
Y18860920D01*
X1139080D01*
Y11639080D01*
X1139280Y11639280D02*
X6889280D01*
Y8260720D01*
X1139280D01*
Y1139280D01*
X23860720D01*
Y8260720D01*
X18110720D01*
Y11639280D01*
X23860720D01*
Y18860720D01*
X14130150D01*
Y15860720D01*
X10860720D01*
Y18860720D01*
X1139280D01*
Y11639280D01*
X1139480Y11639480D02*
X6889480D01*
Y8260520D01*
X1139480D01*
Y1139480D01*
X23860520D01*
Y8260520D01*
X18110520D01*
Y11639480D01*
X23860520D01*
Y18860520D01*
X14130350D01*
Y15860520D01*
X10860520D01*
Y18860520D01*
X1139480D01*
Y11639480D01*
X1139680Y11639680D02*
X6889680D01*
Y8260320D01*
X1139680D01*
Y1139680D01*
X23860320D01*
Y8260320D01*
X18110320D01*
Y11639680D01*
X23860320D01*
Y18860320D01*
X14130550D01*
Y15860320D01*
X10860320D01*
Y18860320D01*
X1139680D01*
Y11639680D01*
X1139880Y11639880D02*
X6889880D01*
Y8260120D01*
X1139880D01*
Y1139880D01*
X23860120D01*
Y8260120D01*
X18110120D01*
Y11639880D01*
X23860120D01*
Y18860120D01*
X14130750D01*
Y15860120D01*
X10860120D01*
Y18860120D01*
X1139880D01*
Y11639880D01*
X1140080Y11640080D02*
X6890080D01*
Y8259920D01*
X1140080D01*
Y1140080D01*
X23859920D01*
Y8259920D01*
X18109920D01*
Y11640080D01*
X23859920D01*
Y18859920D01*
X14130950D01*
Y15859920D01*
X10859920D01*
Y18859920D01*
X1140080D01*
Y11640080D01*
X1140280Y11640280D02*
X6890280D01*
Y8259720D01*
X1140280D01*
Y1140280D01*
X23859720D01*
Y8259720D01*
X18109720D01*
Y11640280D01*
X23859720D01*
Y18859720D01*
X14131150D01*
Y15859720D01*
X10859720D01*
Y18859720D01*
X1140280D01*
Y11640280D01*
X1140480Y11640480D02*
X6890480D01*
Y8259520D01*
X1140480D01*
Y1140480D01*
X23859520D01*
Y8259520D01*
X18109520D01*
Y11640480D01*
X23859520D01*
Y18859520D01*
X14131350D01*
Y15859520D01*
X10859520D01*
Y18859520D01*
X1140480D01*
Y11640480D01*
X1140680Y11640680D02*
X6890680D01*
Y8259320D01*
X1140680D01*
Y1140680D01*
X23859320D01*
Y8259320D01*
X18109320D01*
Y11640680D01*
X23859320D01*
Y18859320D01*
X14131550D01*
Y15859320D01*
X10859320D01*
Y18859320D01*
X1140680D01*
Y11640680D01*
X1140880Y11640880D02*
X6890880D01*
Y8259120D01*
X1140880D01*
Y1140880D01*
X23859120D01*
Y8259120D01*
X18109120D01*
Y11640880D01*
X23859120D01*
Y18859120D01*
X14131750D01*
Y15859120D01*
X10859120D01*
Y18859120D01*
X1140880D01*
Y11640880D01*
X1141080Y11641080D02*
X6891080D01*
Y8258920D01*
X1141080D01*
Y1141080D01*
X23858920D01*
Y8258920D01*
X18108920D01*
Y11641080D01*
X23858920D01*
Y18858920D01*
X14131950D01*
Y15858920D01*
X10858920D01*
Y18858920D01*
X1141080D01*
Y11641080D01*
X1141280Y11641280D02*
X6891280D01*
Y8258720D01*
X1141280D01*
Y1141280D01*
X23858720D01*
Y8258720D01*
X18108720D01*
Y11641280D01*
X23858720D01*
Y18858720D01*
X14132150D01*
Y15858720D01*
X10858720D01*
Y18858720D01*
X1141280D01*
Y11641280D01*
X1141480Y11641480D02*
X6891480D01*
Y8258520D01*
X1141480D01*
Y1141480D01*
X23858520D01*
Y8258520D01*
X18108520D01*
Y11641480D01*
X23858520D01*
Y18858520D01*
X14132350D01*
Y15858520D01*
X10858520D01*
Y18858520D01*
X1141480D01*
Y11641480D01*
X1141680Y11641680D02*
X6891680D01*
Y8258320D01*
X1141680D01*
Y1141680D01*
X23858320D01*
Y8258320D01*
X18108320D01*
Y11641680D01*
X23858320D01*
Y18858320D01*
X14132550D01*
Y15858320D01*
X10858320D01*
Y18858320D01*
X1141680D01*
Y11641680D01*
X1141880Y11641880D02*
X6891880D01*
Y8258120D01*
X1141880D01*
Y1141880D01*
X23858120D01*
Y8258120D01*
X18108120D01*
Y11641880D01*
X23858120D01*
Y18858120D01*
X14132750D01*
Y15858120D01*
X10858120D01*
Y18858120D01*
X1141880D01*
Y11641880D01*
X1142080Y11642080D02*
X6892080D01*
Y8257920D01*
X1142080D01*
Y1142080D01*
X23857920D01*
Y8257920D01*
X18107920D01*
Y11642080D01*
X23857920D01*
Y18857920D01*
X14132950D01*
Y15857920D01*
X10857920D01*
Y18857920D01*
X1142080D01*
Y11642080D01*
X1142280Y11642280D02*
X6892280D01*
Y8257720D01*
X1142280D01*
Y1142280D01*
X23857720D01*
Y8257720D01*
X18107720D01*
Y11642280D01*
X23857720D01*
Y18857720D01*
X14133150D01*
Y15857720D01*
X10857720D01*
Y18857720D01*
X1142280D01*
Y11642280D01*
X1142480Y11642480D02*
X6892480D01*
Y8257520D01*
X1142480D01*
Y1142480D01*
X23857520D01*
Y8257520D01*
X18107520D01*
Y11642480D01*
X23857520D01*
Y18857520D01*
X14133350D01*
Y15857520D01*
X10857520D01*
Y18857520D01*
X1142480D01*
Y11642480D01*
X1142680Y11642680D02*
X6892680D01*
Y8257320D01*
X1142680D01*
Y1142680D01*
X23857320D01*
Y8257320D01*
X18107320D01*
Y11642680D01*
X23857320D01*
Y18857320D01*
X14133550D01*
Y15857320D01*
X10857320D01*
Y18857320D01*
X1142680D01*
Y11642680D01*
X1142880Y11642880D02*
X6892880D01*
Y8257120D01*
X1142880D01*
Y1142880D01*
X23857120D01*
Y8257120D01*
X18107120D01*
Y11642880D01*
X23857120D01*
Y18857120D01*
X14133750D01*
Y15857120D01*
X10857120D01*
Y18857120D01*
X1142880D01*
Y11642880D01*
X1143080Y11643080D02*
X6893080D01*
Y8256920D01*
X1143080D01*
Y1143080D01*
X23856920D01*
Y8256920D01*
X18106920D01*
Y11643080D01*
X23856920D01*
Y18856920D01*
X14133950D01*
Y15856920D01*
X10856920D01*
Y18856920D01*
X1143080D01*
Y11643080D01*
X1143280Y11643280D02*
X6893280D01*
Y8256720D01*
X1143280D01*
Y1143280D01*
X23856720D01*
Y8256720D01*
X18106720D01*
Y11643280D01*
X23856720D01*
Y18856720D01*
X14134150D01*
Y15856720D01*
X10856720D01*
Y18856720D01*
X1143280D01*
Y11643280D01*
X1143480Y11643480D02*
X6893480D01*
Y8256520D01*
X1143480D01*
Y1143480D01*
X23856520D01*
Y8256520D01*
X18106520D01*
Y11643480D01*
X23856520D01*
Y18856520D01*
X14134350D01*
Y15856520D01*
X10856520D01*
Y18856520D01*
X1143480D01*
Y11643480D01*
X1143680Y11643680D02*
X6893680D01*
Y8256320D01*
X1143680D01*
Y1143680D01*
X23856320D01*
Y8256320D01*
X18106320D01*
Y11643680D01*
X23856320D01*
Y18856320D01*
X14134550D01*
Y15856320D01*
X10856320D01*
Y18856320D01*
X1143680D01*
Y11643680D01*
X1143880Y11643880D02*
X6893880D01*
Y8256120D01*
X1143880D01*
Y1143880D01*
X23856120D01*
Y8256120D01*
X18106120D01*
Y11643880D01*
X23856120D01*
Y18856120D01*
X14134750D01*
Y15856120D01*
X10856120D01*
Y18856120D01*
X1143880D01*
Y11643880D01*
X1144080Y11644080D02*
X6894080D01*
Y8255920D01*
X1144080D01*
Y1144080D01*
X23855920D01*
Y8255920D01*
X18105920D01*
Y11644080D01*
X23855920D01*
Y18855920D01*
X14134950D01*
Y15855920D01*
X10855920D01*
Y18855920D01*
X1144080D01*
Y11644080D01*
X1144280Y11644280D02*
X6894280D01*
Y8255720D01*
X1144280D01*
Y1144280D01*
X23855720D01*
Y8255720D01*
X18105720D01*
Y11644280D01*
X23855720D01*
Y18855720D01*
X14135150D01*
Y15855720D01*
X10855720D01*
Y18855720D01*
X1144280D01*
Y11644280D01*
X1144480Y11644480D02*
X6894480D01*
Y8255520D01*
X1144480D01*
Y1144480D01*
X23855520D01*
Y8255520D01*
X18105520D01*
Y11644480D01*
X23855520D01*
Y18855520D01*
X14135350D01*
Y15855520D01*
X10855520D01*
Y18855520D01*
X1144480D01*
Y11644480D01*
X1144680Y11644680D02*
X6894680D01*
Y8255320D01*
X1144680D01*
Y1144680D01*
X23855320D01*
Y8255320D01*
X18105320D01*
Y11644680D01*
X23855320D01*
Y18855320D01*
X14135550D01*
Y15855320D01*
X10855320D01*
Y18855320D01*
X1144680D01*
Y11644680D01*
X1144880Y11644880D02*
X6894880D01*
Y8255120D01*
X1144880D01*
Y1144880D01*
X23855120D01*
Y8255120D01*
X18105120D01*
Y11644880D01*
X23855120D01*
Y18855120D01*
X14135750D01*
Y15855120D01*
X10855120D01*
Y18855120D01*
X1144880D01*
Y11644880D01*
X1145080Y11645080D02*
X6895080D01*
Y8254920D01*
X1145080D01*
Y1145080D01*
X23854920D01*
Y8254920D01*
X18104920D01*
Y11645080D01*
X23854920D01*
Y18854920D01*
X14135950D01*
Y15854920D01*
X10854920D01*
Y18854920D01*
X1145080D01*
Y11645080D01*
X1145280Y11645280D02*
X6895280D01*
Y8254720D01*
X1145280D01*
Y1145280D01*
X23854720D01*
Y8254720D01*
X18104720D01*
Y11645280D01*
X23854720D01*
Y18854720D01*
X14136150D01*
Y15854720D01*
X10854720D01*
Y18854720D01*
X1145280D01*
Y11645280D01*
X1145480Y11645480D02*
X6895480D01*
Y8254520D01*
X1145480D01*
Y1145480D01*
X23854520D01*
Y8254520D01*
X18104520D01*
Y11645480D01*
X23854520D01*
Y18854520D01*
X14136350D01*
Y15854520D01*
X10854520D01*
Y18854520D01*
X1145480D01*
Y11645480D01*
X1145680Y11645680D02*
X6895680D01*
Y8254320D01*
X1145680D01*
Y1145680D01*
X23854320D01*
Y8254320D01*
X18104320D01*
Y11645680D01*
X23854320D01*
Y18854320D01*
X14136550D01*
Y15854320D01*
X10854320D01*
Y18854320D01*
X1145680D01*
Y11645680D01*
X1145880Y11645880D02*
X6895880D01*
Y8254120D01*
X1145880D01*
Y1145880D01*
X23854120D01*
Y8254120D01*
X18104120D01*
Y11645880D01*
X23854120D01*
Y18854120D01*
X14136750D01*
Y15854120D01*
X10854120D01*
Y18854120D01*
X1145880D01*
Y11645880D01*
X1146080Y11646080D02*
X6896080D01*
Y8253920D01*
X1146080D01*
Y1146080D01*
X23853920D01*
Y8253920D01*
X18103920D01*
Y11646080D01*
X23853920D01*
Y18853920D01*
X14136950D01*
Y15853920D01*
X10853920D01*
Y18853920D01*
X1146080D01*
Y11646080D01*
X1146280Y11646280D02*
X6896280D01*
Y8253720D01*
X1146280D01*
Y1146280D01*
X23853720D01*
Y8253720D01*
X18103720D01*
Y11646280D01*
X23853720D01*
Y18853720D01*
X14137150D01*
Y15853720D01*
X10853720D01*
Y18853720D01*
X1146280D01*
Y11646280D01*
X1146480Y11646480D02*
X6896480D01*
Y8253520D01*
X1146480D01*
Y1146480D01*
X23853520D01*
Y8253520D01*
X18103520D01*
Y11646480D01*
X23853520D01*
Y18853520D01*
X14137350D01*
Y15853520D01*
X10853520D01*
Y18853520D01*
X1146480D01*
Y11646480D01*
X1146680Y11646680D02*
X6896680D01*
Y8253320D01*
X1146680D01*
Y1146680D01*
X23853320D01*
Y8253320D01*
X18103320D01*
Y11646680D01*
X23853320D01*
Y18853320D01*
X14137550D01*
Y15853320D01*
X10853320D01*
Y18853320D01*
X1146680D01*
Y11646680D01*
X1146880Y11646880D02*
X6896880D01*
Y8253120D01*
X1146880D01*
Y1146880D01*
X23853120D01*
Y8253120D01*
X18103120D01*
Y11646880D01*
X23853120D01*
Y18853120D01*
X14137750D01*
Y15853120D01*
X10853120D01*
Y18853120D01*
X1146880D01*
Y11646880D01*
X1147080Y11647080D02*
X6897080D01*
Y8252920D01*
X1147080D01*
Y1147080D01*
X23852920D01*
Y8252920D01*
X18102920D01*
Y11647080D01*
X23852920D01*
Y18852920D01*
X14137950D01*
Y15852920D01*
X10852920D01*
Y18852920D01*
X1147080D01*
Y11647080D01*
X1147280Y11647280D02*
X6897280D01*
Y8252720D01*
X1147280D01*
Y1147280D01*
X23852720D01*
Y8252720D01*
X18102720D01*
Y11647280D01*
X23852720D01*
Y18852720D01*
X14138150D01*
Y15852720D01*
X10852720D01*
Y18852720D01*
X1147280D01*
Y11647280D01*
X1147480Y11647480D02*
X6897480D01*
Y8252520D01*
X1147480D01*
Y1147480D01*
X23852520D01*
Y8252520D01*
X18102520D01*
Y11647480D01*
X23852520D01*
Y18852520D01*
X14138350D01*
Y15852520D01*
X10852520D01*
Y18852520D01*
X1147480D01*
Y11647480D01*
X1147680Y11647680D02*
X6897680D01*
Y8252320D01*
X1147680D01*
Y1147680D01*
X23852320D01*
Y8252320D01*
X18102320D01*
Y11647680D01*
X23852320D01*
Y18852320D01*
X14138550D01*
Y15852320D01*
X10852320D01*
Y18852320D01*
X1147680D01*
Y11647680D01*
X1147880Y11647880D02*
X6897880D01*
Y8252120D01*
X1147880D01*
Y1147880D01*
X23852120D01*
Y8252120D01*
X18102120D01*
Y11647880D01*
X23852120D01*
Y18852120D01*
X14138750D01*
Y15852120D01*
X10852120D01*
Y18852120D01*
X1147880D01*
Y11647880D01*
X1148080Y11648080D02*
X6898080D01*
Y8251920D01*
X1148080D01*
Y1148080D01*
X23851920D01*
Y8251920D01*
X18101920D01*
Y11648080D01*
X23851920D01*
Y18851920D01*
X14138950D01*
Y15851920D01*
X10851920D01*
Y18851920D01*
X1148080D01*
Y11648080D01*
X1148280Y11648280D02*
X6898280D01*
Y8251720D01*
X1148280D01*
Y1148280D01*
X23851720D01*
Y8251720D01*
X18101720D01*
Y11648280D01*
X23851720D01*
Y18851720D01*
X14139150D01*
Y15851720D01*
X10851720D01*
Y18851720D01*
X1148280D01*
Y11648280D01*
X1148480Y11648480D02*
X6898480D01*
Y8251520D01*
X1148480D01*
Y1148480D01*
X23851520D01*
Y8251520D01*
X18101520D01*
Y11648480D01*
X23851520D01*
Y18851520D01*
X14139350D01*
Y15851520D01*
X10851520D01*
Y18851520D01*
X1148480D01*
Y11648480D01*
X1148680Y11648680D02*
X6898680D01*
Y8251320D01*
X1148680D01*
Y1148680D01*
X23851320D01*
Y8251320D01*
X18101320D01*
Y11648680D01*
X23851320D01*
Y18851320D01*
X14139550D01*
Y15851320D01*
X10851320D01*
Y18851320D01*
X1148680D01*
Y11648680D01*
X1148880Y11648880D02*
X6898880D01*
Y8251120D01*
X1148880D01*
Y1148880D01*
X23851120D01*
Y8251120D01*
X18101120D01*
Y11648880D01*
X23851120D01*
Y18851120D01*
X14139750D01*
Y15851120D01*
X10851120D01*
Y18851120D01*
X1148880D01*
Y11648880D01*
X1149080Y11649080D02*
X6899080D01*
Y8250920D01*
X1149080D01*
Y1149080D01*
X23850920D01*
Y8250920D01*
X18100920D01*
Y11649080D01*
X23850920D01*
Y18850920D01*
X14139950D01*
Y15850920D01*
X10850920D01*
Y18850920D01*
X1149080D01*
Y11649080D01*
X1149280Y11649280D02*
X6899280D01*
Y8250720D01*
X1149280D01*
Y1149280D01*
X23850720D01*
Y8250720D01*
X18100720D01*
Y11649280D01*
X23850720D01*
Y18850720D01*
X14140150D01*
Y15850720D01*
X10850720D01*
Y18850720D01*
X1149280D01*
Y11649280D01*
G54D17*
X1299280Y11799280D02*
X7049280D01*
Y8100720D01*
X1299280D01*
Y1299280D01*
X23700720D01*
Y8100720D01*
X17950720D01*
Y11799280D01*
X23700720D01*
Y18700720D01*
X14290150D01*
Y15700720D01*
X10700720D01*
Y18700720D01*
X1299280D01*
Y11799280D01*
X1599280Y12099280D02*
X7349280D01*
Y7800720D01*
X1599280D01*
Y1599280D01*
X23400720D01*
Y7800720D01*
X17650720D01*
Y12099280D01*
X23400720D01*
Y18400720D01*
X14590150D01*
Y15400720D01*
X10400720D01*
Y18400720D01*
X1599280D01*
Y12099280D01*
G54D18*
X1999280Y12499280D02*
X7749280D01*
Y7400720D01*
X1999280D01*
Y1999280D01*
X23000720D01*
Y7400720D01*
X17250720D01*
Y12499280D01*
X23000720D01*
Y18000720D01*
X14990150D01*
Y15000720D01*
X10000720D01*
Y18000720D01*
X1999280D01*
Y12499280D01*
G54D19*
X2499280Y12999280D02*
X8249280D01*
Y6900720D01*
X2499280D01*
Y2499280D01*
X22500720D01*
Y6900720D01*
X16750720D01*
Y12999280D01*
X22500720D01*
Y17500720D01*
X15490150D01*
Y14500720D01*
X9500720D01*
Y17500720D01*
X2499280D01*
Y12999280D01*
X2999280Y13499280D02*
X8749280D01*
Y6400720D01*
X2999280D01*
Y2999280D01*
X22000720D01*
Y6400720D01*
X16250720D01*
Y13499280D01*
X22000720D01*
Y17000720D01*
X15990150D01*
Y14000720D01*
X9000720D01*
Y17000720D01*
X2999280D01*
Y13499280D01*
X16250720Y10000000D02*
X8749280D01*
Y10950000D02*
X16250720D01*
Y11900000D02*
X8749280D01*
Y12850000D02*
X16250720D01*
X22000720Y13800000D02*
X2999280D01*
Y14750000D02*
X9000720D01*
X15990150D02*
X22000720D01*
X9000720Y15700000D02*
X2999280D01*
X15990150D02*
X22000720D01*
X9000720Y16650000D02*
X2999280D01*
X15990150D02*
X22000720D01*
X16250720Y9050000D02*
X8749280D01*
Y8100000D02*
X16250720D01*
Y7150000D02*
X8749280D01*
X2999280Y6200000D02*
X22000720D01*
Y5250000D02*
X2999280D01*
Y4300000D02*
X22000720D01*
Y3350000D02*
X2999280D01*
G54D10*
X1000005Y11500005D02*
X6750005D01*
Y8399995D01*
X1000005D01*
Y1000005D01*
X23999995D01*
Y8399995D01*
X18249995D01*
Y11500005D01*
X23999995D01*
Y18999995D01*
X13990875D01*
Y15999995D01*
X10999995D01*
Y18999995D01*
X1000005D01*
Y11500005D01*
M02*

