G75*
%IPPOS*%
%FSLAX44Y44*%
%MOIN*%
%ADD10C,0.00100*%
%ADD11C,0.00200*%
%ADD12C,0.00400*%
%ADD13C,0.00800*%
%ADD14C,0.01500*%
%ADD15C,0.02500*%
%ADD16C,0.04000*%
%ADD17C,60.00000*%
%ADD18C,80.00000*%
%ADD19C,100.00000*%
%ADD20C,0.00000*%
%LNVIA14*%
%LPD*%
G54D17*
X10046810Y10000000D03*
X13448470Y18487850D03*
X1448470Y7987850D03*
X2900000Y10000000D03*
X5448470Y18487850D03*
X1448470D03*
X3448470D03*
X1448470Y3987850D03*
X11448470Y18487850D03*
X1448470Y15987850D03*
X13448470Y1587850D03*
X1448470Y5987850D03*
X12500000Y13030000D03*
X1448470Y1587850D03*
X12500000Y2700000D03*
X21448470Y1587850D03*
X19448470D03*
X5448470D03*
X1448470Y13987850D03*
X3448470Y1587850D03*
X1448470Y11987850D03*
X9448470Y18487850D03*
X8200000Y3000000D03*
X15448470Y1587850D03*
Y18487850D03*
X7448470Y1587850D03*
X17246810Y10000000D03*
X7448470Y18487850D03*
X17448470Y1587850D03*
X7646810Y10000000D03*
X17448470Y18487850D03*
X9448470Y1587850D03*
X14846810Y10000000D03*
X16840070Y3000000D03*
X11448470Y1587850D03*
X23551530Y3987850D03*
X4500000Y11600000D03*
X12500000Y15430000D03*
X23551530Y1587850D03*
X12500000Y7500000D03*
X22100000Y10000000D03*
X12500000Y5100000D03*
X12446810Y10000000D03*
X21448470Y18487850D03*
X19448470D03*
X20500000Y11600000D03*
X23551530Y11987850D03*
Y13987850D03*
Y15987850D03*
Y18487850D03*
Y7987850D03*
Y5987850D03*
M02*

