G75*
%IPPOS*%
%FSLAX44Y44*%
%MOIN*%
%ADD10C,0.00100*%
%ADD11C,0.00200*%
%ADD12C,0.00400*%
%ADD13C,0.00800*%
%ADD14C,0.01500*%
%ADD15C,0.02500*%
%ADD16C,0.04000*%
%ADD17C,60.00000*%
%ADD18C,80.00000*%
%ADD19C,100.00000*%
%ADD20C,0.00000*%
%LNOUTLINE*%
%LPD*%
G54D10*
X5Y5D02*
X24999995D01*
Y19999995D01*
X5D01*
Y5D01*
X10Y10D02*
X24999990D01*
Y19999990D01*
X10D01*
Y10D01*
G54D11*
X20Y20D02*
X24999980D01*
Y19999980D01*
X20D01*
Y20D01*
G54D12*
X40Y40D02*
X24999960D01*
Y19999960D01*
X40D01*
Y40D01*
G54D13*
X80Y80D02*
X24999920D01*
Y19999920D01*
X80D01*
Y80D01*
G54D14*
X155Y155D02*
X24999845D01*
Y19999845D01*
X155D01*
Y155D01*
G54D15*
X280Y280D02*
X24999720D01*
Y19999720D01*
X280D01*
Y280D01*
G54D16*
X480Y480D02*
X24999520D01*
Y19999520D01*
X480D01*
Y480D01*
X680Y680D02*
X24999320D01*
Y19999320D01*
X680D01*
Y680D01*
X880Y880D02*
X24999120D01*
Y19999120D01*
X880D01*
Y880D01*
X1080Y1080D02*
X24998920D01*
Y19998920D01*
X1080D01*
Y1080D01*
X1280Y1280D02*
X24998720D01*
Y19998720D01*
X1280D01*
Y1280D01*
X1480Y1480D02*
X24998520D01*
Y19998520D01*
X1480D01*
Y1480D01*
X1680Y1680D02*
X24998320D01*
Y19998320D01*
X1680D01*
Y1680D01*
X1880Y1880D02*
X24998120D01*
Y19998120D01*
X1880D01*
Y1880D01*
X2080Y2080D02*
X24997920D01*
Y19997920D01*
X2080D01*
Y2080D01*
X2280Y2280D02*
X24997720D01*
Y19997720D01*
X2280D01*
Y2280D01*
X2480Y2480D02*
X24997520D01*
Y19997520D01*
X2480D01*
Y2480D01*
X2680Y2680D02*
X24997320D01*
Y19997320D01*
X2680D01*
Y2680D01*
X2880Y2880D02*
X24997120D01*
Y19997120D01*
X2880D01*
Y2880D01*
X3080Y3080D02*
X24996920D01*
Y19996920D01*
X3080D01*
Y3080D01*
X3280Y3280D02*
X24996720D01*
Y19996720D01*
X3280D01*
Y3280D01*
X3480Y3480D02*
X24996520D01*
Y19996520D01*
X3480D01*
Y3480D01*
X3680Y3680D02*
X24996320D01*
Y19996320D01*
X3680D01*
Y3680D01*
X3880Y3880D02*
X24996120D01*
Y19996120D01*
X3880D01*
Y3880D01*
X4080Y4080D02*
X24995920D01*
Y19995920D01*
X4080D01*
Y4080D01*
X4280Y4280D02*
X24995720D01*
Y19995720D01*
X4280D01*
Y4280D01*
X4480Y4480D02*
X24995520D01*
Y19995520D01*
X4480D01*
Y4480D01*
X4680Y4680D02*
X24995320D01*
Y19995320D01*
X4680D01*
Y4680D01*
X4880Y4880D02*
X24995120D01*
Y19995120D01*
X4880D01*
Y4880D01*
X5080Y5080D02*
X24994920D01*
Y19994920D01*
X5080D01*
Y5080D01*
X5280Y5280D02*
X24994720D01*
Y19994720D01*
X5280D01*
Y5280D01*
X5480Y5480D02*
X24994520D01*
Y19994520D01*
X5480D01*
Y5480D01*
X5680Y5680D02*
X24994320D01*
Y19994320D01*
X5680D01*
Y5680D01*
X5880Y5880D02*
X24994120D01*
Y19994120D01*
X5880D01*
Y5880D01*
X6080Y6080D02*
X24993920D01*
Y19993920D01*
X6080D01*
Y6080D01*
X6280Y6280D02*
X24993720D01*
Y19993720D01*
X6280D01*
Y6280D01*
X6480Y6480D02*
X24993520D01*
Y19993520D01*
X6480D01*
Y6480D01*
X6680Y6680D02*
X24993320D01*
Y19993320D01*
X6680D01*
Y6680D01*
X6880Y6880D02*
X24993120D01*
Y19993120D01*
X6880D01*
Y6880D01*
X7080Y7080D02*
X24992920D01*
Y19992920D01*
X7080D01*
Y7080D01*
X7280Y7280D02*
X24992720D01*
Y19992720D01*
X7280D01*
Y7280D01*
X7480Y7480D02*
X24992520D01*
Y19992520D01*
X7480D01*
Y7480D01*
X7680Y7680D02*
X24992320D01*
Y19992320D01*
X7680D01*
Y7680D01*
X7880Y7880D02*
X24992120D01*
Y19992120D01*
X7880D01*
Y7880D01*
X8080Y8080D02*
X24991920D01*
Y19991920D01*
X8080D01*
Y8080D01*
X8280Y8280D02*
X24991720D01*
Y19991720D01*
X8280D01*
Y8280D01*
X8480Y8480D02*
X24991520D01*
Y19991520D01*
X8480D01*
Y8480D01*
X8680Y8680D02*
X24991320D01*
Y19991320D01*
X8680D01*
Y8680D01*
X8880Y8880D02*
X24991120D01*
Y19991120D01*
X8880D01*
Y8880D01*
X9080Y9080D02*
X24990920D01*
Y19990920D01*
X9080D01*
Y9080D01*
X9280Y9280D02*
X24990720D01*
Y19990720D01*
X9280D01*
Y9280D01*
X9480Y9480D02*
X24990520D01*
Y19990520D01*
X9480D01*
Y9480D01*
X9680Y9680D02*
X24990320D01*
Y19990320D01*
X9680D01*
Y9680D01*
X9880Y9880D02*
X24990120D01*
Y19990120D01*
X9880D01*
Y9880D01*
X10080Y10080D02*
X24989920D01*
Y19989920D01*
X10080D01*
Y10080D01*
X10280Y10280D02*
X24989720D01*
Y19989720D01*
X10280D01*
Y10280D01*
X10480Y10480D02*
X24989520D01*
Y19989520D01*
X10480D01*
Y10480D01*
X10680Y10680D02*
X24989320D01*
Y19989320D01*
X10680D01*
Y10680D01*
X10880Y10880D02*
X24989120D01*
Y19989120D01*
X10880D01*
Y10880D01*
X11080Y11080D02*
X24988920D01*
Y19988920D01*
X11080D01*
Y11080D01*
X11280Y11280D02*
X24988720D01*
Y19988720D01*
X11280D01*
Y11280D01*
X11480Y11480D02*
X24988520D01*
Y19988520D01*
X11480D01*
Y11480D01*
X11680Y11680D02*
X24988320D01*
Y19988320D01*
X11680D01*
Y11680D01*
X11880Y11880D02*
X24988120D01*
Y19988120D01*
X11880D01*
Y11880D01*
X12080Y12080D02*
X24987920D01*
Y19987920D01*
X12080D01*
Y12080D01*
X12280Y12280D02*
X24987720D01*
Y19987720D01*
X12280D01*
Y12280D01*
X12480Y12480D02*
X24987520D01*
Y19987520D01*
X12480D01*
Y12480D01*
X12680Y12680D02*
X24987320D01*
Y19987320D01*
X12680D01*
Y12680D01*
X12880Y12880D02*
X24987120D01*
Y19987120D01*
X12880D01*
Y12880D01*
X13080Y13080D02*
X24986920D01*
Y19986920D01*
X13080D01*
Y13080D01*
X13280Y13280D02*
X24986720D01*
Y19986720D01*
X13280D01*
Y13280D01*
X13480Y13480D02*
X24986520D01*
Y19986520D01*
X13480D01*
Y13480D01*
X13680Y13680D02*
X24986320D01*
Y19986320D01*
X13680D01*
Y13680D01*
X13880Y13880D02*
X24986120D01*
Y19986120D01*
X13880D01*
Y13880D01*
X14080Y14080D02*
X24985920D01*
Y19985920D01*
X14080D01*
Y14080D01*
X14280Y14280D02*
X24985720D01*
Y19985720D01*
X14280D01*
Y14280D01*
X14480Y14480D02*
X24985520D01*
Y19985520D01*
X14480D01*
Y14480D01*
X14680Y14680D02*
X24985320D01*
Y19985320D01*
X14680D01*
Y14680D01*
X14880Y14880D02*
X24985120D01*
Y19985120D01*
X14880D01*
Y14880D01*
X15080Y15080D02*
X24984920D01*
Y19984920D01*
X15080D01*
Y15080D01*
X15280Y15280D02*
X24984720D01*
Y19984720D01*
X15280D01*
Y15280D01*
X15480Y15480D02*
X24984520D01*
Y19984520D01*
X15480D01*
Y15480D01*
X15680Y15680D02*
X24984320D01*
Y19984320D01*
X15680D01*
Y15680D01*
X15880Y15880D02*
X24984120D01*
Y19984120D01*
X15880D01*
Y15880D01*
X16080Y16080D02*
X24983920D01*
Y19983920D01*
X16080D01*
Y16080D01*
X16280Y16280D02*
X24983720D01*
Y19983720D01*
X16280D01*
Y16280D01*
X16480Y16480D02*
X24983520D01*
Y19983520D01*
X16480D01*
Y16480D01*
X16680Y16680D02*
X24983320D01*
Y19983320D01*
X16680D01*
Y16680D01*
X16880Y16880D02*
X24983120D01*
Y19983120D01*
X16880D01*
Y16880D01*
X17080Y17080D02*
X24982920D01*
Y19982920D01*
X17080D01*
Y17080D01*
X17280Y17280D02*
X24982720D01*
Y19982720D01*
X17280D01*
Y17280D01*
X17480Y17480D02*
X24982520D01*
Y19982520D01*
X17480D01*
Y17480D01*
X17680Y17680D02*
X24982320D01*
Y19982320D01*
X17680D01*
Y17680D01*
X17880Y17880D02*
X24982120D01*
Y19982120D01*
X17880D01*
Y17880D01*
X18080Y18080D02*
X24981920D01*
Y19981920D01*
X18080D01*
Y18080D01*
X18280Y18280D02*
X24981720D01*
Y19981720D01*
X18280D01*
Y18280D01*
X18480Y18480D02*
X24981520D01*
Y19981520D01*
X18480D01*
Y18480D01*
X18680Y18680D02*
X24981320D01*
Y19981320D01*
X18680D01*
Y18680D01*
X18880Y18880D02*
X24981120D01*
Y19981120D01*
X18880D01*
Y18880D01*
X19080Y19080D02*
X24980920D01*
Y19980920D01*
X19080D01*
Y19080D01*
X19280Y19280D02*
X24980720D01*
Y19980720D01*
X19280D01*
Y19280D01*
X19480Y19480D02*
X24980520D01*
Y19980520D01*
X19480D01*
Y19480D01*
X19680Y19680D02*
X24980320D01*
Y19980320D01*
X19680D01*
Y19680D01*
X19880Y19880D02*
X24980120D01*
Y19980120D01*
X19880D01*
Y19880D01*
X20080Y20080D02*
X24979920D01*
Y19979920D01*
X20080D01*
Y20080D01*
X20280Y20280D02*
X24979720D01*
Y19979720D01*
X20280D01*
Y20280D01*
X20480Y20480D02*
X24979520D01*
Y19979520D01*
X20480D01*
Y20480D01*
X20680Y20680D02*
X24979320D01*
Y19979320D01*
X20680D01*
Y20680D01*
X20880Y20880D02*
X24979120D01*
Y19979120D01*
X20880D01*
Y20880D01*
X21080Y21080D02*
X24978920D01*
Y19978920D01*
X21080D01*
Y21080D01*
X21280Y21280D02*
X24978720D01*
Y19978720D01*
X21280D01*
Y21280D01*
X21480Y21480D02*
X24978520D01*
Y19978520D01*
X21480D01*
Y21480D01*
X21680Y21680D02*
X24978320D01*
Y19978320D01*
X21680D01*
Y21680D01*
X21880Y21880D02*
X24978120D01*
Y19978120D01*
X21880D01*
Y21880D01*
X22080Y22080D02*
X24977920D01*
Y19977920D01*
X22080D01*
Y22080D01*
X22280Y22280D02*
X24977720D01*
Y19977720D01*
X22280D01*
Y22280D01*
X22480Y22480D02*
X24977520D01*
Y19977520D01*
X22480D01*
Y22480D01*
X22680Y22680D02*
X24977320D01*
Y19977320D01*
X22680D01*
Y22680D01*
X22880Y22880D02*
X24977120D01*
Y19977120D01*
X22880D01*
Y22880D01*
X23080Y23080D02*
X24976920D01*
Y19976920D01*
X23080D01*
Y23080D01*
X23280Y23280D02*
X24976720D01*
Y19976720D01*
X23280D01*
Y23280D01*
X23480Y23480D02*
X24976520D01*
Y19976520D01*
X23480D01*
Y23480D01*
X23680Y23680D02*
X24976320D01*
Y19976320D01*
X23680D01*
Y23680D01*
X23880Y23880D02*
X24976120D01*
Y19976120D01*
X23880D01*
Y23880D01*
X24080Y24080D02*
X24975920D01*
Y19975920D01*
X24080D01*
Y24080D01*
X24280Y24280D02*
X24975720D01*
Y19975720D01*
X24280D01*
Y24280D01*
X24480Y24480D02*
X24975520D01*
Y19975520D01*
X24480D01*
Y24480D01*
X24680Y24680D02*
X24975320D01*
Y19975320D01*
X24680D01*
Y24680D01*
X24880Y24880D02*
X24975120D01*
Y19975120D01*
X24880D01*
Y24880D01*
X25080Y25080D02*
X24974920D01*
Y19974920D01*
X25080D01*
Y25080D01*
X25280Y25280D02*
X24974720D01*
Y19974720D01*
X25280D01*
Y25280D01*
X25480Y25480D02*
X24974520D01*
Y19974520D01*
X25480D01*
Y25480D01*
X25680Y25680D02*
X24974320D01*
Y19974320D01*
X25680D01*
Y25680D01*
X25880Y25880D02*
X24974120D01*
Y19974120D01*
X25880D01*
Y25880D01*
X26080Y26080D02*
X24973920D01*
Y19973920D01*
X26080D01*
Y26080D01*
X26280Y26280D02*
X24973720D01*
Y19973720D01*
X26280D01*
Y26280D01*
X26480Y26480D02*
X24973520D01*
Y19973520D01*
X26480D01*
Y26480D01*
X26680Y26680D02*
X24973320D01*
Y19973320D01*
X26680D01*
Y26680D01*
X26880Y26880D02*
X24973120D01*
Y19973120D01*
X26880D01*
Y26880D01*
X27080Y27080D02*
X24972920D01*
Y19972920D01*
X27080D01*
Y27080D01*
X27280Y27280D02*
X24972720D01*
Y19972720D01*
X27280D01*
Y27280D01*
X27480Y27480D02*
X24972520D01*
Y19972520D01*
X27480D01*
Y27480D01*
X27680Y27680D02*
X24972320D01*
Y19972320D01*
X27680D01*
Y27680D01*
X27880Y27880D02*
X24972120D01*
Y19972120D01*
X27880D01*
Y27880D01*
X28080Y28080D02*
X24971920D01*
Y19971920D01*
X28080D01*
Y28080D01*
X28280Y28280D02*
X24971720D01*
Y19971720D01*
X28280D01*
Y28280D01*
X28480Y28480D02*
X24971520D01*
Y19971520D01*
X28480D01*
Y28480D01*
X28680Y28680D02*
X24971320D01*
Y19971320D01*
X28680D01*
Y28680D01*
X28880Y28880D02*
X24971120D01*
Y19971120D01*
X28880D01*
Y28880D01*
X29080Y29080D02*
X24970920D01*
Y19970920D01*
X29080D01*
Y29080D01*
X29280Y29280D02*
X24970720D01*
Y19970720D01*
X29280D01*
Y29280D01*
X29480Y29480D02*
X24970520D01*
Y19970520D01*
X29480D01*
Y29480D01*
X29680Y29680D02*
X24970320D01*
Y19970320D01*
X29680D01*
Y29680D01*
X29880Y29880D02*
X24970120D01*
Y19970120D01*
X29880D01*
Y29880D01*
X30080Y30080D02*
X24969920D01*
Y19969920D01*
X30080D01*
Y30080D01*
X30280Y30280D02*
X24969720D01*
Y19969720D01*
X30280D01*
Y30280D01*
X30480Y30480D02*
X24969520D01*
Y19969520D01*
X30480D01*
Y30480D01*
X30680Y30680D02*
X24969320D01*
Y19969320D01*
X30680D01*
Y30680D01*
X30880Y30880D02*
X24969120D01*
Y19969120D01*
X30880D01*
Y30880D01*
X31080Y31080D02*
X24968920D01*
Y19968920D01*
X31080D01*
Y31080D01*
X31280Y31280D02*
X24968720D01*
Y19968720D01*
X31280D01*
Y31280D01*
X31480Y31480D02*
X24968520D01*
Y19968520D01*
X31480D01*
Y31480D01*
X31680Y31680D02*
X24968320D01*
Y19968320D01*
X31680D01*
Y31680D01*
X31880Y31880D02*
X24968120D01*
Y19968120D01*
X31880D01*
Y31880D01*
X32080Y32080D02*
X24967920D01*
Y19967920D01*
X32080D01*
Y32080D01*
X32280Y32280D02*
X24967720D01*
Y19967720D01*
X32280D01*
Y32280D01*
X32480Y32480D02*
X24967520D01*
Y19967520D01*
X32480D01*
Y32480D01*
X32680Y32680D02*
X24967320D01*
Y19967320D01*
X32680D01*
Y32680D01*
X32880Y32880D02*
X24967120D01*
Y19967120D01*
X32880D01*
Y32880D01*
X33080Y33080D02*
X24966920D01*
Y19966920D01*
X33080D01*
Y33080D01*
X33280Y33280D02*
X24966720D01*
Y19966720D01*
X33280D01*
Y33280D01*
X33480Y33480D02*
X24966520D01*
Y19966520D01*
X33480D01*
Y33480D01*
X33680Y33680D02*
X24966320D01*
Y19966320D01*
X33680D01*
Y33680D01*
X33880Y33880D02*
X24966120D01*
Y19966120D01*
X33880D01*
Y33880D01*
X34080Y34080D02*
X24965920D01*
Y19965920D01*
X34080D01*
Y34080D01*
X34280Y34280D02*
X24965720D01*
Y19965720D01*
X34280D01*
Y34280D01*
X34480Y34480D02*
X24965520D01*
Y19965520D01*
X34480D01*
Y34480D01*
X34680Y34680D02*
X24965320D01*
Y19965320D01*
X34680D01*
Y34680D01*
X34880Y34880D02*
X24965120D01*
Y19965120D01*
X34880D01*
Y34880D01*
X35080Y35080D02*
X24964920D01*
Y19964920D01*
X35080D01*
Y35080D01*
X35280Y35280D02*
X24964720D01*
Y19964720D01*
X35280D01*
Y35280D01*
X35480Y35480D02*
X24964520D01*
Y19964520D01*
X35480D01*
Y35480D01*
X35680Y35680D02*
X24964320D01*
Y19964320D01*
X35680D01*
Y35680D01*
X35880Y35880D02*
X24964120D01*
Y19964120D01*
X35880D01*
Y35880D01*
X36080Y36080D02*
X24963920D01*
Y19963920D01*
X36080D01*
Y36080D01*
X36280Y36280D02*
X24963720D01*
Y19963720D01*
X36280D01*
Y36280D01*
X36480Y36480D02*
X24963520D01*
Y19963520D01*
X36480D01*
Y36480D01*
X36680Y36680D02*
X24963320D01*
Y19963320D01*
X36680D01*
Y36680D01*
X36880Y36880D02*
X24963120D01*
Y19963120D01*
X36880D01*
Y36880D01*
X37080Y37080D02*
X24962920D01*
Y19962920D01*
X37080D01*
Y37080D01*
X37280Y37280D02*
X24962720D01*
Y19962720D01*
X37280D01*
Y37280D01*
X37480Y37480D02*
X24962520D01*
Y19962520D01*
X37480D01*
Y37480D01*
X37680Y37680D02*
X24962320D01*
Y19962320D01*
X37680D01*
Y37680D01*
X37880Y37880D02*
X24962120D01*
Y19962120D01*
X37880D01*
Y37880D01*
X38080Y38080D02*
X24961920D01*
Y19961920D01*
X38080D01*
Y38080D01*
X38280Y38280D02*
X24961720D01*
Y19961720D01*
X38280D01*
Y38280D01*
X38480Y38480D02*
X24961520D01*
Y19961520D01*
X38480D01*
Y38480D01*
X38680Y38680D02*
X24961320D01*
Y19961320D01*
X38680D01*
Y38680D01*
X38880Y38880D02*
X24961120D01*
Y19961120D01*
X38880D01*
Y38880D01*
X39080Y39080D02*
X24960920D01*
Y19960920D01*
X39080D01*
Y39080D01*
X39280Y39280D02*
X24960720D01*
Y19960720D01*
X39280D01*
Y39280D01*
X39480Y39480D02*
X24960520D01*
Y19960520D01*
X39480D01*
Y39480D01*
X39680Y39680D02*
X24960320D01*
Y19960320D01*
X39680D01*
Y39680D01*
X39880Y39880D02*
X24960120D01*
Y19960120D01*
X39880D01*
Y39880D01*
X40080Y40080D02*
X24959920D01*
Y19959920D01*
X40080D01*
Y40080D01*
X40280Y40280D02*
X24959720D01*
Y19959720D01*
X40280D01*
Y40280D01*
X40480Y40480D02*
X24959520D01*
Y19959520D01*
X40480D01*
Y40480D01*
X40680Y40680D02*
X24959320D01*
Y19959320D01*
X40680D01*
Y40680D01*
X40880Y40880D02*
X24959120D01*
Y19959120D01*
X40880D01*
Y40880D01*
X41080Y41080D02*
X24958920D01*
Y19958920D01*
X41080D01*
Y41080D01*
X41280Y41280D02*
X24958720D01*
Y19958720D01*
X41280D01*
Y41280D01*
X41480Y41480D02*
X24958520D01*
Y19958520D01*
X41480D01*
Y41480D01*
X41680Y41680D02*
X24958320D01*
Y19958320D01*
X41680D01*
Y41680D01*
X41880Y41880D02*
X24958120D01*
Y19958120D01*
X41880D01*
Y41880D01*
X42080Y42080D02*
X24957920D01*
Y19957920D01*
X42080D01*
Y42080D01*
X42280Y42280D02*
X24957720D01*
Y19957720D01*
X42280D01*
Y42280D01*
X42480Y42480D02*
X24957520D01*
Y19957520D01*
X42480D01*
Y42480D01*
X42680Y42680D02*
X24957320D01*
Y19957320D01*
X42680D01*
Y42680D01*
X42880Y42880D02*
X24957120D01*
Y19957120D01*
X42880D01*
Y42880D01*
X43080Y43080D02*
X24956920D01*
Y19956920D01*
X43080D01*
Y43080D01*
X43280Y43280D02*
X24956720D01*
Y19956720D01*
X43280D01*
Y43280D01*
X43480Y43480D02*
X24956520D01*
Y19956520D01*
X43480D01*
Y43480D01*
X43680Y43680D02*
X24956320D01*
Y19956320D01*
X43680D01*
Y43680D01*
X43880Y43880D02*
X24956120D01*
Y19956120D01*
X43880D01*
Y43880D01*
X44080Y44080D02*
X24955920D01*
Y19955920D01*
X44080D01*
Y44080D01*
X44280Y44280D02*
X24955720D01*
Y19955720D01*
X44280D01*
Y44280D01*
X44480Y44480D02*
X24955520D01*
Y19955520D01*
X44480D01*
Y44480D01*
X44680Y44680D02*
X24955320D01*
Y19955320D01*
X44680D01*
Y44680D01*
X44880Y44880D02*
X24955120D01*
Y19955120D01*
X44880D01*
Y44880D01*
X45080Y45080D02*
X24954920D01*
Y19954920D01*
X45080D01*
Y45080D01*
X45280Y45280D02*
X24954720D01*
Y19954720D01*
X45280D01*
Y45280D01*
X45480Y45480D02*
X24954520D01*
Y19954520D01*
X45480D01*
Y45480D01*
X45680Y45680D02*
X24954320D01*
Y19954320D01*
X45680D01*
Y45680D01*
X45880Y45880D02*
X24954120D01*
Y19954120D01*
X45880D01*
Y45880D01*
X46080Y46080D02*
X24953920D01*
Y19953920D01*
X46080D01*
Y46080D01*
X46280Y46280D02*
X24953720D01*
Y19953720D01*
X46280D01*
Y46280D01*
X46480Y46480D02*
X24953520D01*
Y19953520D01*
X46480D01*
Y46480D01*
X46680Y46680D02*
X24953320D01*
Y19953320D01*
X46680D01*
Y46680D01*
X46880Y46880D02*
X24953120D01*
Y19953120D01*
X46880D01*
Y46880D01*
X47080Y47080D02*
X24952920D01*
Y19952920D01*
X47080D01*
Y47080D01*
X47280Y47280D02*
X24952720D01*
Y19952720D01*
X47280D01*
Y47280D01*
X47480Y47480D02*
X24952520D01*
Y19952520D01*
X47480D01*
Y47480D01*
X47680Y47680D02*
X24952320D01*
Y19952320D01*
X47680D01*
Y47680D01*
X47880Y47880D02*
X24952120D01*
Y19952120D01*
X47880D01*
Y47880D01*
X48080Y48080D02*
X24951920D01*
Y19951920D01*
X48080D01*
Y48080D01*
X48280Y48280D02*
X24951720D01*
Y19951720D01*
X48280D01*
Y48280D01*
X48480Y48480D02*
X24951520D01*
Y19951520D01*
X48480D01*
Y48480D01*
X48680Y48680D02*
X24951320D01*
Y19951320D01*
X48680D01*
Y48680D01*
X48880Y48880D02*
X24951120D01*
Y19951120D01*
X48880D01*
Y48880D01*
X49080Y49080D02*
X24950920D01*
Y19950920D01*
X49080D01*
Y49080D01*
X49280Y49280D02*
X24950720D01*
Y19950720D01*
X49280D01*
Y49280D01*
X49480Y49480D02*
X24950520D01*
Y19950520D01*
X49480D01*
Y49480D01*
X49680Y49680D02*
X24950320D01*
Y19950320D01*
X49680D01*
Y49680D01*
X49880Y49880D02*
X24950120D01*
Y19950120D01*
X49880D01*
Y49880D01*
X50080Y50080D02*
X24949920D01*
Y19949920D01*
X50080D01*
Y50080D01*
X50280Y50280D02*
X24949720D01*
Y19949720D01*
X50280D01*
Y50280D01*
X50480Y50480D02*
X24949520D01*
Y19949520D01*
X50480D01*
Y50480D01*
X50680Y50680D02*
X24949320D01*
Y19949320D01*
X50680D01*
Y50680D01*
X50880Y50880D02*
X24949120D01*
Y19949120D01*
X50880D01*
Y50880D01*
X51080Y51080D02*
X24948920D01*
Y19948920D01*
X51080D01*
Y51080D01*
X51280Y51280D02*
X24948720D01*
Y19948720D01*
X51280D01*
Y51280D01*
X51480Y51480D02*
X24948520D01*
Y19948520D01*
X51480D01*
Y51480D01*
X51680Y51680D02*
X24948320D01*
Y19948320D01*
X51680D01*
Y51680D01*
X51880Y51880D02*
X24948120D01*
Y19948120D01*
X51880D01*
Y51880D01*
X52080Y52080D02*
X24947920D01*
Y19947920D01*
X52080D01*
Y52080D01*
X52280Y52280D02*
X24947720D01*
Y19947720D01*
X52280D01*
Y52280D01*
X52480Y52480D02*
X24947520D01*
Y19947520D01*
X52480D01*
Y52480D01*
X52680Y52680D02*
X24947320D01*
Y19947320D01*
X52680D01*
Y52680D01*
X52880Y52880D02*
X24947120D01*
Y19947120D01*
X52880D01*
Y52880D01*
X53080Y53080D02*
X24946920D01*
Y19946920D01*
X53080D01*
Y53080D01*
X53280Y53280D02*
X24946720D01*
Y19946720D01*
X53280D01*
Y53280D01*
X53480Y53480D02*
X24946520D01*
Y19946520D01*
X53480D01*
Y53480D01*
X53680Y53680D02*
X24946320D01*
Y19946320D01*
X53680D01*
Y53680D01*
X53880Y53880D02*
X24946120D01*
Y19946120D01*
X53880D01*
Y53880D01*
X54080Y54080D02*
X24945920D01*
Y19945920D01*
X54080D01*
Y54080D01*
X54280Y54280D02*
X24945720D01*
Y19945720D01*
X54280D01*
Y54280D01*
X54480Y54480D02*
X24945520D01*
Y19945520D01*
X54480D01*
Y54480D01*
X54680Y54680D02*
X24945320D01*
Y19945320D01*
X54680D01*
Y54680D01*
X54880Y54880D02*
X24945120D01*
Y19945120D01*
X54880D01*
Y54880D01*
X55080Y55080D02*
X24944920D01*
Y19944920D01*
X55080D01*
Y55080D01*
X55280Y55280D02*
X24944720D01*
Y19944720D01*
X55280D01*
Y55280D01*
X55480Y55480D02*
X24944520D01*
Y19944520D01*
X55480D01*
Y55480D01*
X55680Y55680D02*
X24944320D01*
Y19944320D01*
X55680D01*
Y55680D01*
X55880Y55880D02*
X24944120D01*
Y19944120D01*
X55880D01*
Y55880D01*
X56080Y56080D02*
X24943920D01*
Y19943920D01*
X56080D01*
Y56080D01*
X56280Y56280D02*
X24943720D01*
Y19943720D01*
X56280D01*
Y56280D01*
X56480Y56480D02*
X24943520D01*
Y19943520D01*
X56480D01*
Y56480D01*
X56680Y56680D02*
X24943320D01*
Y19943320D01*
X56680D01*
Y56680D01*
X56880Y56880D02*
X24943120D01*
Y19943120D01*
X56880D01*
Y56880D01*
X57080Y57080D02*
X24942920D01*
Y19942920D01*
X57080D01*
Y57080D01*
X57280Y57280D02*
X24942720D01*
Y19942720D01*
X57280D01*
Y57280D01*
X57480Y57480D02*
X24942520D01*
Y19942520D01*
X57480D01*
Y57480D01*
X57680Y57680D02*
X24942320D01*
Y19942320D01*
X57680D01*
Y57680D01*
X57880Y57880D02*
X24942120D01*
Y19942120D01*
X57880D01*
Y57880D01*
X58080Y58080D02*
X24941920D01*
Y19941920D01*
X58080D01*
Y58080D01*
X58280Y58280D02*
X24941720D01*
Y19941720D01*
X58280D01*
Y58280D01*
X58480Y58480D02*
X24941520D01*
Y19941520D01*
X58480D01*
Y58480D01*
X58680Y58680D02*
X24941320D01*
Y19941320D01*
X58680D01*
Y58680D01*
X58880Y58880D02*
X24941120D01*
Y19941120D01*
X58880D01*
Y58880D01*
X59080Y59080D02*
X24940920D01*
Y19940920D01*
X59080D01*
Y59080D01*
X59280Y59280D02*
X24940720D01*
Y19940720D01*
X59280D01*
Y59280D01*
X59480Y59480D02*
X24940520D01*
Y19940520D01*
X59480D01*
Y59480D01*
X59680Y59680D02*
X24940320D01*
Y19940320D01*
X59680D01*
Y59680D01*
X59880Y59880D02*
X24940120D01*
Y19940120D01*
X59880D01*
Y59880D01*
X60080Y60080D02*
X24939920D01*
Y19939920D01*
X60080D01*
Y60080D01*
X60280Y60280D02*
X24939720D01*
Y19939720D01*
X60280D01*
Y60280D01*
X60480Y60480D02*
X24939520D01*
Y19939520D01*
X60480D01*
Y60480D01*
X60680Y60680D02*
X24939320D01*
Y19939320D01*
X60680D01*
Y60680D01*
X60880Y60880D02*
X24939120D01*
Y19939120D01*
X60880D01*
Y60880D01*
X61080Y61080D02*
X24938920D01*
Y19938920D01*
X61080D01*
Y61080D01*
X61280Y61280D02*
X24938720D01*
Y19938720D01*
X61280D01*
Y61280D01*
X61480Y61480D02*
X24938520D01*
Y19938520D01*
X61480D01*
Y61480D01*
X61680Y61680D02*
X24938320D01*
Y19938320D01*
X61680D01*
Y61680D01*
X61880Y61880D02*
X24938120D01*
Y19938120D01*
X61880D01*
Y61880D01*
X62080Y62080D02*
X24937920D01*
Y19937920D01*
X62080D01*
Y62080D01*
X62280Y62280D02*
X24937720D01*
Y19937720D01*
X62280D01*
Y62280D01*
X62480Y62480D02*
X24937520D01*
Y19937520D01*
X62480D01*
Y62480D01*
X62680Y62680D02*
X24937320D01*
Y19937320D01*
X62680D01*
Y62680D01*
X62880Y62880D02*
X24937120D01*
Y19937120D01*
X62880D01*
Y62880D01*
X63080Y63080D02*
X24936920D01*
Y19936920D01*
X63080D01*
Y63080D01*
X63280Y63280D02*
X24936720D01*
Y19936720D01*
X63280D01*
Y63280D01*
X63480Y63480D02*
X24936520D01*
Y19936520D01*
X63480D01*
Y63480D01*
X63680Y63680D02*
X24936320D01*
Y19936320D01*
X63680D01*
Y63680D01*
X63880Y63880D02*
X24936120D01*
Y19936120D01*
X63880D01*
Y63880D01*
X64080Y64080D02*
X24935920D01*
Y19935920D01*
X64080D01*
Y64080D01*
X64280Y64280D02*
X24935720D01*
Y19935720D01*
X64280D01*
Y64280D01*
X64480Y64480D02*
X24935520D01*
Y19935520D01*
X64480D01*
Y64480D01*
X64680Y64680D02*
X24935320D01*
Y19935320D01*
X64680D01*
Y64680D01*
X64880Y64880D02*
X24935120D01*
Y19935120D01*
X64880D01*
Y64880D01*
X65080Y65080D02*
X24934920D01*
Y19934920D01*
X65080D01*
Y65080D01*
X65280Y65280D02*
X24934720D01*
Y19934720D01*
X65280D01*
Y65280D01*
X65480Y65480D02*
X24934520D01*
Y19934520D01*
X65480D01*
Y65480D01*
X65680Y65680D02*
X24934320D01*
Y19934320D01*
X65680D01*
Y65680D01*
X65880Y65880D02*
X24934120D01*
Y19934120D01*
X65880D01*
Y65880D01*
X66080Y66080D02*
X24933920D01*
Y19933920D01*
X66080D01*
Y66080D01*
X66280Y66280D02*
X24933720D01*
Y19933720D01*
X66280D01*
Y66280D01*
X66480Y66480D02*
X24933520D01*
Y19933520D01*
X66480D01*
Y66480D01*
X66680Y66680D02*
X24933320D01*
Y19933320D01*
X66680D01*
Y66680D01*
X66880Y66880D02*
X24933120D01*
Y19933120D01*
X66880D01*
Y66880D01*
X67080Y67080D02*
X24932920D01*
Y19932920D01*
X67080D01*
Y67080D01*
X67280Y67280D02*
X24932720D01*
Y19932720D01*
X67280D01*
Y67280D01*
X67480Y67480D02*
X24932520D01*
Y19932520D01*
X67480D01*
Y67480D01*
X67680Y67680D02*
X24932320D01*
Y19932320D01*
X67680D01*
Y67680D01*
X67880Y67880D02*
X24932120D01*
Y19932120D01*
X67880D01*
Y67880D01*
X68080Y68080D02*
X24931920D01*
Y19931920D01*
X68080D01*
Y68080D01*
X68280Y68280D02*
X24931720D01*
Y19931720D01*
X68280D01*
Y68280D01*
X68480Y68480D02*
X24931520D01*
Y19931520D01*
X68480D01*
Y68480D01*
X68680Y68680D02*
X24931320D01*
Y19931320D01*
X68680D01*
Y68680D01*
X68880Y68880D02*
X24931120D01*
Y19931120D01*
X68880D01*
Y68880D01*
X69080Y69080D02*
X24930920D01*
Y19930920D01*
X69080D01*
Y69080D01*
X69280Y69280D02*
X24930720D01*
Y19930720D01*
X69280D01*
Y69280D01*
X69480Y69480D02*
X24930520D01*
Y19930520D01*
X69480D01*
Y69480D01*
X69680Y69680D02*
X24930320D01*
Y19930320D01*
X69680D01*
Y69680D01*
X69880Y69880D02*
X24930120D01*
Y19930120D01*
X69880D01*
Y69880D01*
X70080Y70080D02*
X24929920D01*
Y19929920D01*
X70080D01*
Y70080D01*
X70280Y70280D02*
X24929720D01*
Y19929720D01*
X70280D01*
Y70280D01*
X70480Y70480D02*
X24929520D01*
Y19929520D01*
X70480D01*
Y70480D01*
X70680Y70680D02*
X24929320D01*
Y19929320D01*
X70680D01*
Y70680D01*
X70880Y70880D02*
X24929120D01*
Y19929120D01*
X70880D01*
Y70880D01*
X71080Y71080D02*
X24928920D01*
Y19928920D01*
X71080D01*
Y71080D01*
X71280Y71280D02*
X24928720D01*
Y19928720D01*
X71280D01*
Y71280D01*
X71480Y71480D02*
X24928520D01*
Y19928520D01*
X71480D01*
Y71480D01*
X71680Y71680D02*
X24928320D01*
Y19928320D01*
X71680D01*
Y71680D01*
X71880Y71880D02*
X24928120D01*
Y19928120D01*
X71880D01*
Y71880D01*
X72080Y72080D02*
X24927920D01*
Y19927920D01*
X72080D01*
Y72080D01*
X72280Y72280D02*
X24927720D01*
Y19927720D01*
X72280D01*
Y72280D01*
X72480Y72480D02*
X24927520D01*
Y19927520D01*
X72480D01*
Y72480D01*
X72680Y72680D02*
X24927320D01*
Y19927320D01*
X72680D01*
Y72680D01*
X72880Y72880D02*
X24927120D01*
Y19927120D01*
X72880D01*
Y72880D01*
X73080Y73080D02*
X24926920D01*
Y19926920D01*
X73080D01*
Y73080D01*
X73280Y73280D02*
X24926720D01*
Y19926720D01*
X73280D01*
Y73280D01*
X73480Y73480D02*
X24926520D01*
Y19926520D01*
X73480D01*
Y73480D01*
X73680Y73680D02*
X24926320D01*
Y19926320D01*
X73680D01*
Y73680D01*
X73880Y73880D02*
X24926120D01*
Y19926120D01*
X73880D01*
Y73880D01*
X74080Y74080D02*
X24925920D01*
Y19925920D01*
X74080D01*
Y74080D01*
X74280Y74280D02*
X24925720D01*
Y19925720D01*
X74280D01*
Y74280D01*
X74480Y74480D02*
X24925520D01*
Y19925520D01*
X74480D01*
Y74480D01*
X74680Y74680D02*
X24925320D01*
Y19925320D01*
X74680D01*
Y74680D01*
X74880Y74880D02*
X24925120D01*
Y19925120D01*
X74880D01*
Y74880D01*
X75080Y75080D02*
X24924920D01*
Y19924920D01*
X75080D01*
Y75080D01*
X75280Y75280D02*
X24924720D01*
Y19924720D01*
X75280D01*
Y75280D01*
X75480Y75480D02*
X24924520D01*
Y19924520D01*
X75480D01*
Y75480D01*
X75680Y75680D02*
X24924320D01*
Y19924320D01*
X75680D01*
Y75680D01*
X75880Y75880D02*
X24924120D01*
Y19924120D01*
X75880D01*
Y75880D01*
X76080Y76080D02*
X24923920D01*
Y19923920D01*
X76080D01*
Y76080D01*
X76280Y76280D02*
X24923720D01*
Y19923720D01*
X76280D01*
Y76280D01*
X76480Y76480D02*
X24923520D01*
Y19923520D01*
X76480D01*
Y76480D01*
X76680Y76680D02*
X24923320D01*
Y19923320D01*
X76680D01*
Y76680D01*
X76880Y76880D02*
X24923120D01*
Y19923120D01*
X76880D01*
Y76880D01*
X77080Y77080D02*
X24922920D01*
Y19922920D01*
X77080D01*
Y77080D01*
X77280Y77280D02*
X24922720D01*
Y19922720D01*
X77280D01*
Y77280D01*
X77480Y77480D02*
X24922520D01*
Y19922520D01*
X77480D01*
Y77480D01*
X77680Y77680D02*
X24922320D01*
Y19922320D01*
X77680D01*
Y77680D01*
X77880Y77880D02*
X24922120D01*
Y19922120D01*
X77880D01*
Y77880D01*
X78080Y78080D02*
X24921920D01*
Y19921920D01*
X78080D01*
Y78080D01*
X78280Y78280D02*
X24921720D01*
Y19921720D01*
X78280D01*
Y78280D01*
X78480Y78480D02*
X24921520D01*
Y19921520D01*
X78480D01*
Y78480D01*
X78680Y78680D02*
X24921320D01*
Y19921320D01*
X78680D01*
Y78680D01*
X78880Y78880D02*
X24921120D01*
Y19921120D01*
X78880D01*
Y78880D01*
X79080Y79080D02*
X24920920D01*
Y19920920D01*
X79080D01*
Y79080D01*
X79280Y79280D02*
X24920720D01*
Y19920720D01*
X79280D01*
Y79280D01*
X79480Y79480D02*
X24920520D01*
Y19920520D01*
X79480D01*
Y79480D01*
X79680Y79680D02*
X24920320D01*
Y19920320D01*
X79680D01*
Y79680D01*
X79880Y79880D02*
X24920120D01*
Y19920120D01*
X79880D01*
Y79880D01*
X80080Y80080D02*
X24919920D01*
Y19919920D01*
X80080D01*
Y80080D01*
X80280Y80280D02*
X24919720D01*
Y19919720D01*
X80280D01*
Y80280D01*
X80480Y80480D02*
X24919520D01*
Y19919520D01*
X80480D01*
Y80480D01*
X80680Y80680D02*
X24919320D01*
Y19919320D01*
X80680D01*
Y80680D01*
X80880Y80880D02*
X24919120D01*
Y19919120D01*
X80880D01*
Y80880D01*
X81080Y81080D02*
X24918920D01*
Y19918920D01*
X81080D01*
Y81080D01*
X81280Y81280D02*
X24918720D01*
Y19918720D01*
X81280D01*
Y81280D01*
X81480Y81480D02*
X24918520D01*
Y19918520D01*
X81480D01*
Y81480D01*
X81680Y81680D02*
X24918320D01*
Y19918320D01*
X81680D01*
Y81680D01*
X81880Y81880D02*
X24918120D01*
Y19918120D01*
X81880D01*
Y81880D01*
X82080Y82080D02*
X24917920D01*
Y19917920D01*
X82080D01*
Y82080D01*
X82280Y82280D02*
X24917720D01*
Y19917720D01*
X82280D01*
Y82280D01*
X82480Y82480D02*
X24917520D01*
Y19917520D01*
X82480D01*
Y82480D01*
X82680Y82680D02*
X24917320D01*
Y19917320D01*
X82680D01*
Y82680D01*
X82880Y82880D02*
X24917120D01*
Y19917120D01*
X82880D01*
Y82880D01*
X83080Y83080D02*
X24916920D01*
Y19916920D01*
X83080D01*
Y83080D01*
X83280Y83280D02*
X24916720D01*
Y19916720D01*
X83280D01*
Y83280D01*
X83480Y83480D02*
X24916520D01*
Y19916520D01*
X83480D01*
Y83480D01*
X83680Y83680D02*
X24916320D01*
Y19916320D01*
X83680D01*
Y83680D01*
X83880Y83880D02*
X24916120D01*
Y19916120D01*
X83880D01*
Y83880D01*
X84080Y84080D02*
X24915920D01*
Y19915920D01*
X84080D01*
Y84080D01*
X84280Y84280D02*
X24915720D01*
Y19915720D01*
X84280D01*
Y84280D01*
X84480Y84480D02*
X24915520D01*
Y19915520D01*
X84480D01*
Y84480D01*
X84680Y84680D02*
X24915320D01*
Y19915320D01*
X84680D01*
Y84680D01*
X84880Y84880D02*
X24915120D01*
Y19915120D01*
X84880D01*
Y84880D01*
X85080Y85080D02*
X24914920D01*
Y19914920D01*
X85080D01*
Y85080D01*
X85280Y85280D02*
X24914720D01*
Y19914720D01*
X85280D01*
Y85280D01*
X85480Y85480D02*
X24914520D01*
Y19914520D01*
X85480D01*
Y85480D01*
X85680Y85680D02*
X24914320D01*
Y19914320D01*
X85680D01*
Y85680D01*
X85880Y85880D02*
X24914120D01*
Y19914120D01*
X85880D01*
Y85880D01*
X86080Y86080D02*
X24913920D01*
Y19913920D01*
X86080D01*
Y86080D01*
X86280Y86280D02*
X24913720D01*
Y19913720D01*
X86280D01*
Y86280D01*
X86480Y86480D02*
X24913520D01*
Y19913520D01*
X86480D01*
Y86480D01*
X86680Y86680D02*
X24913320D01*
Y19913320D01*
X86680D01*
Y86680D01*
X86880Y86880D02*
X24913120D01*
Y19913120D01*
X86880D01*
Y86880D01*
X87080Y87080D02*
X24912920D01*
Y19912920D01*
X87080D01*
Y87080D01*
X87280Y87280D02*
X24912720D01*
Y19912720D01*
X87280D01*
Y87280D01*
X87480Y87480D02*
X24912520D01*
Y19912520D01*
X87480D01*
Y87480D01*
X87680Y87680D02*
X24912320D01*
Y19912320D01*
X87680D01*
Y87680D01*
X87880Y87880D02*
X24912120D01*
Y19912120D01*
X87880D01*
Y87880D01*
X88080Y88080D02*
X24911920D01*
Y19911920D01*
X88080D01*
Y88080D01*
X88280Y88280D02*
X24911720D01*
Y19911720D01*
X88280D01*
Y88280D01*
X88480Y88480D02*
X24911520D01*
Y19911520D01*
X88480D01*
Y88480D01*
X88680Y88680D02*
X24911320D01*
Y19911320D01*
X88680D01*
Y88680D01*
X88880Y88880D02*
X24911120D01*
Y19911120D01*
X88880D01*
Y88880D01*
X89080Y89080D02*
X24910920D01*
Y19910920D01*
X89080D01*
Y89080D01*
X89280Y89280D02*
X24910720D01*
Y19910720D01*
X89280D01*
Y89280D01*
X89480Y89480D02*
X24910520D01*
Y19910520D01*
X89480D01*
Y89480D01*
X89680Y89680D02*
X24910320D01*
Y19910320D01*
X89680D01*
Y89680D01*
X89880Y89880D02*
X24910120D01*
Y19910120D01*
X89880D01*
Y89880D01*
X90080Y90080D02*
X24909920D01*
Y19909920D01*
X90080D01*
Y90080D01*
X90280Y90280D02*
X24909720D01*
Y19909720D01*
X90280D01*
Y90280D01*
X90480Y90480D02*
X24909520D01*
Y19909520D01*
X90480D01*
Y90480D01*
X90680Y90680D02*
X24909320D01*
Y19909320D01*
X90680D01*
Y90680D01*
X90880Y90880D02*
X24909120D01*
Y19909120D01*
X90880D01*
Y90880D01*
X91080Y91080D02*
X24908920D01*
Y19908920D01*
X91080D01*
Y91080D01*
X91280Y91280D02*
X24908720D01*
Y19908720D01*
X91280D01*
Y91280D01*
X91480Y91480D02*
X24908520D01*
Y19908520D01*
X91480D01*
Y91480D01*
X91680Y91680D02*
X24908320D01*
Y19908320D01*
X91680D01*
Y91680D01*
X91880Y91880D02*
X24908120D01*
Y19908120D01*
X91880D01*
Y91880D01*
X92080Y92080D02*
X24907920D01*
Y19907920D01*
X92080D01*
Y92080D01*
X92280Y92280D02*
X24907720D01*
Y19907720D01*
X92280D01*
Y92280D01*
X92480Y92480D02*
X24907520D01*
Y19907520D01*
X92480D01*
Y92480D01*
X92680Y92680D02*
X24907320D01*
Y19907320D01*
X92680D01*
Y92680D01*
X92880Y92880D02*
X24907120D01*
Y19907120D01*
X92880D01*
Y92880D01*
X93080Y93080D02*
X24906920D01*
Y19906920D01*
X93080D01*
Y93080D01*
X93280Y93280D02*
X24906720D01*
Y19906720D01*
X93280D01*
Y93280D01*
X93480Y93480D02*
X24906520D01*
Y19906520D01*
X93480D01*
Y93480D01*
X93680Y93680D02*
X24906320D01*
Y19906320D01*
X93680D01*
Y93680D01*
X93880Y93880D02*
X24906120D01*
Y19906120D01*
X93880D01*
Y93880D01*
X94080Y94080D02*
X24905920D01*
Y19905920D01*
X94080D01*
Y94080D01*
X94280Y94280D02*
X24905720D01*
Y19905720D01*
X94280D01*
Y94280D01*
X94480Y94480D02*
X24905520D01*
Y19905520D01*
X94480D01*
Y94480D01*
X94680Y94680D02*
X24905320D01*
Y19905320D01*
X94680D01*
Y94680D01*
X94880Y94880D02*
X24905120D01*
Y19905120D01*
X94880D01*
Y94880D01*
X95080Y95080D02*
X24904920D01*
Y19904920D01*
X95080D01*
Y95080D01*
X95280Y95280D02*
X24904720D01*
Y19904720D01*
X95280D01*
Y95280D01*
X95480Y95480D02*
X24904520D01*
Y19904520D01*
X95480D01*
Y95480D01*
X95680Y95680D02*
X24904320D01*
Y19904320D01*
X95680D01*
Y95680D01*
X95880Y95880D02*
X24904120D01*
Y19904120D01*
X95880D01*
Y95880D01*
X96080Y96080D02*
X24903920D01*
Y19903920D01*
X96080D01*
Y96080D01*
X96280Y96280D02*
X24903720D01*
Y19903720D01*
X96280D01*
Y96280D01*
X96480Y96480D02*
X24903520D01*
Y19903520D01*
X96480D01*
Y96480D01*
X96680Y96680D02*
X24903320D01*
Y19903320D01*
X96680D01*
Y96680D01*
X96880Y96880D02*
X24903120D01*
Y19903120D01*
X96880D01*
Y96880D01*
X97080Y97080D02*
X24902920D01*
Y19902920D01*
X97080D01*
Y97080D01*
X97280Y97280D02*
X24902720D01*
Y19902720D01*
X97280D01*
Y97280D01*
X97480Y97480D02*
X24902520D01*
Y19902520D01*
X97480D01*
Y97480D01*
X97680Y97680D02*
X24902320D01*
Y19902320D01*
X97680D01*
Y97680D01*
X97880Y97880D02*
X24902120D01*
Y19902120D01*
X97880D01*
Y97880D01*
X98080Y98080D02*
X24901920D01*
Y19901920D01*
X98080D01*
Y98080D01*
X98280Y98280D02*
X24901720D01*
Y19901720D01*
X98280D01*
Y98280D01*
X98480Y98480D02*
X24901520D01*
Y19901520D01*
X98480D01*
Y98480D01*
X98680Y98680D02*
X24901320D01*
Y19901320D01*
X98680D01*
Y98680D01*
X98880Y98880D02*
X24901120D01*
Y19901120D01*
X98880D01*
Y98880D01*
X99080Y99080D02*
X24900920D01*
Y19900920D01*
X99080D01*
Y99080D01*
X99280Y99280D02*
X24900720D01*
Y19900720D01*
X99280D01*
Y99280D01*
X99480Y99480D02*
X24900520D01*
Y19900520D01*
X99480D01*
Y99480D01*
X99680Y99680D02*
X24900320D01*
Y19900320D01*
X99680D01*
Y99680D01*
X99880Y99880D02*
X24900120D01*
Y19900120D01*
X99880D01*
Y99880D01*
X100080Y100080D02*
X24899920D01*
Y19899920D01*
X100080D01*
Y100080D01*
X100280Y100280D02*
X24899720D01*
Y19899720D01*
X100280D01*
Y100280D01*
X100480Y100480D02*
X24899520D01*
Y19899520D01*
X100480D01*
Y100480D01*
X100680Y100680D02*
X24899320D01*
Y19899320D01*
X100680D01*
Y100680D01*
X100880Y100880D02*
X24899120D01*
Y19899120D01*
X100880D01*
Y100880D01*
X101080Y101080D02*
X24898920D01*
Y19898920D01*
X101080D01*
Y101080D01*
X101280Y101280D02*
X24898720D01*
Y19898720D01*
X101280D01*
Y101280D01*
X101480Y101480D02*
X24898520D01*
Y19898520D01*
X101480D01*
Y101480D01*
X101680Y101680D02*
X24898320D01*
Y19898320D01*
X101680D01*
Y101680D01*
X101880Y101880D02*
X24898120D01*
Y19898120D01*
X101880D01*
Y101880D01*
X102080Y102080D02*
X24897920D01*
Y19897920D01*
X102080D01*
Y102080D01*
X102280Y102280D02*
X24897720D01*
Y19897720D01*
X102280D01*
Y102280D01*
X102480Y102480D02*
X24897520D01*
Y19897520D01*
X102480D01*
Y102480D01*
X102680Y102680D02*
X24897320D01*
Y19897320D01*
X102680D01*
Y102680D01*
X102880Y102880D02*
X24897120D01*
Y19897120D01*
X102880D01*
Y102880D01*
X103080Y103080D02*
X24896920D01*
Y19896920D01*
X103080D01*
Y103080D01*
X103280Y103280D02*
X24896720D01*
Y19896720D01*
X103280D01*
Y103280D01*
X103480Y103480D02*
X24896520D01*
Y19896520D01*
X103480D01*
Y103480D01*
X103680Y103680D02*
X24896320D01*
Y19896320D01*
X103680D01*
Y103680D01*
X103880Y103880D02*
X24896120D01*
Y19896120D01*
X103880D01*
Y103880D01*
X104080Y104080D02*
X24895920D01*
Y19895920D01*
X104080D01*
Y104080D01*
X104280Y104280D02*
X24895720D01*
Y19895720D01*
X104280D01*
Y104280D01*
X104480Y104480D02*
X24895520D01*
Y19895520D01*
X104480D01*
Y104480D01*
X104680Y104680D02*
X24895320D01*
Y19895320D01*
X104680D01*
Y104680D01*
X104880Y104880D02*
X24895120D01*
Y19895120D01*
X104880D01*
Y104880D01*
X105080Y105080D02*
X24894920D01*
Y19894920D01*
X105080D01*
Y105080D01*
X105280Y105280D02*
X24894720D01*
Y19894720D01*
X105280D01*
Y105280D01*
X105480Y105480D02*
X24894520D01*
Y19894520D01*
X105480D01*
Y105480D01*
X105680Y105680D02*
X24894320D01*
Y19894320D01*
X105680D01*
Y105680D01*
X105880Y105880D02*
X24894120D01*
Y19894120D01*
X105880D01*
Y105880D01*
X106080Y106080D02*
X24893920D01*
Y19893920D01*
X106080D01*
Y106080D01*
X106280Y106280D02*
X24893720D01*
Y19893720D01*
X106280D01*
Y106280D01*
X106480Y106480D02*
X24893520D01*
Y19893520D01*
X106480D01*
Y106480D01*
X106680Y106680D02*
X24893320D01*
Y19893320D01*
X106680D01*
Y106680D01*
X106880Y106880D02*
X24893120D01*
Y19893120D01*
X106880D01*
Y106880D01*
X107080Y107080D02*
X24892920D01*
Y19892920D01*
X107080D01*
Y107080D01*
X107280Y107280D02*
X24892720D01*
Y19892720D01*
X107280D01*
Y107280D01*
X107480Y107480D02*
X24892520D01*
Y19892520D01*
X107480D01*
Y107480D01*
X107680Y107680D02*
X24892320D01*
Y19892320D01*
X107680D01*
Y107680D01*
X107880Y107880D02*
X24892120D01*
Y19892120D01*
X107880D01*
Y107880D01*
X108080Y108080D02*
X24891920D01*
Y19891920D01*
X108080D01*
Y108080D01*
X108280Y108280D02*
X24891720D01*
Y19891720D01*
X108280D01*
Y108280D01*
X108480Y108480D02*
X24891520D01*
Y19891520D01*
X108480D01*
Y108480D01*
X108680Y108680D02*
X24891320D01*
Y19891320D01*
X108680D01*
Y108680D01*
X108880Y108880D02*
X24891120D01*
Y19891120D01*
X108880D01*
Y108880D01*
X109080Y109080D02*
X24890920D01*
Y19890920D01*
X109080D01*
Y109080D01*
X109280Y109280D02*
X24890720D01*
Y19890720D01*
X109280D01*
Y109280D01*
X109480Y109480D02*
X24890520D01*
Y19890520D01*
X109480D01*
Y109480D01*
X109680Y109680D02*
X24890320D01*
Y19890320D01*
X109680D01*
Y109680D01*
X109880Y109880D02*
X24890120D01*
Y19890120D01*
X109880D01*
Y109880D01*
X110080Y110080D02*
X24889920D01*
Y19889920D01*
X110080D01*
Y110080D01*
X110280Y110280D02*
X24889720D01*
Y19889720D01*
X110280D01*
Y110280D01*
X110480Y110480D02*
X24889520D01*
Y19889520D01*
X110480D01*
Y110480D01*
X110680Y110680D02*
X24889320D01*
Y19889320D01*
X110680D01*
Y110680D01*
X110880Y110880D02*
X24889120D01*
Y19889120D01*
X110880D01*
Y110880D01*
X111080Y111080D02*
X24888920D01*
Y19888920D01*
X111080D01*
Y111080D01*
X111280Y111280D02*
X24888720D01*
Y19888720D01*
X111280D01*
Y111280D01*
X111480Y111480D02*
X24888520D01*
Y19888520D01*
X111480D01*
Y111480D01*
X111680Y111680D02*
X24888320D01*
Y19888320D01*
X111680D01*
Y111680D01*
X111880Y111880D02*
X24888120D01*
Y19888120D01*
X111880D01*
Y111880D01*
X112080Y112080D02*
X24887920D01*
Y19887920D01*
X112080D01*
Y112080D01*
X112280Y112280D02*
X24887720D01*
Y19887720D01*
X112280D01*
Y112280D01*
X112480Y112480D02*
X24887520D01*
Y19887520D01*
X112480D01*
Y112480D01*
X112680Y112680D02*
X24887320D01*
Y19887320D01*
X112680D01*
Y112680D01*
X112880Y112880D02*
X24887120D01*
Y19887120D01*
X112880D01*
Y112880D01*
X113080Y113080D02*
X24886920D01*
Y19886920D01*
X113080D01*
Y113080D01*
X113280Y113280D02*
X24886720D01*
Y19886720D01*
X113280D01*
Y113280D01*
X113480Y113480D02*
X24886520D01*
Y19886520D01*
X113480D01*
Y113480D01*
X113680Y113680D02*
X24886320D01*
Y19886320D01*
X113680D01*
Y113680D01*
X113880Y113880D02*
X24886120D01*
Y19886120D01*
X113880D01*
Y113880D01*
X114080Y114080D02*
X24885920D01*
Y19885920D01*
X114080D01*
Y114080D01*
X114280Y114280D02*
X24885720D01*
Y19885720D01*
X114280D01*
Y114280D01*
X114480Y114480D02*
X24885520D01*
Y19885520D01*
X114480D01*
Y114480D01*
X114680Y114680D02*
X24885320D01*
Y19885320D01*
X114680D01*
Y114680D01*
X114880Y114880D02*
X24885120D01*
Y19885120D01*
X114880D01*
Y114880D01*
X115080Y115080D02*
X24884920D01*
Y19884920D01*
X115080D01*
Y115080D01*
X115280Y115280D02*
X24884720D01*
Y19884720D01*
X115280D01*
Y115280D01*
X115480Y115480D02*
X24884520D01*
Y19884520D01*
X115480D01*
Y115480D01*
X115680Y115680D02*
X24884320D01*
Y19884320D01*
X115680D01*
Y115680D01*
X115880Y115880D02*
X24884120D01*
Y19884120D01*
X115880D01*
Y115880D01*
X116080Y116080D02*
X24883920D01*
Y19883920D01*
X116080D01*
Y116080D01*
X116280Y116280D02*
X24883720D01*
Y19883720D01*
X116280D01*
Y116280D01*
X116480Y116480D02*
X24883520D01*
Y19883520D01*
X116480D01*
Y116480D01*
X116680Y116680D02*
X24883320D01*
Y19883320D01*
X116680D01*
Y116680D01*
X116880Y116880D02*
X24883120D01*
Y19883120D01*
X116880D01*
Y116880D01*
X117080Y117080D02*
X24882920D01*
Y19882920D01*
X117080D01*
Y117080D01*
X117280Y117280D02*
X24882720D01*
Y19882720D01*
X117280D01*
Y117280D01*
X117480Y117480D02*
X24882520D01*
Y19882520D01*
X117480D01*
Y117480D01*
X117680Y117680D02*
X24882320D01*
Y19882320D01*
X117680D01*
Y117680D01*
X117880Y117880D02*
X24882120D01*
Y19882120D01*
X117880D01*
Y117880D01*
X118080Y118080D02*
X24881920D01*
Y19881920D01*
X118080D01*
Y118080D01*
X118280Y118280D02*
X24881720D01*
Y19881720D01*
X118280D01*
Y118280D01*
X118480Y118480D02*
X24881520D01*
Y19881520D01*
X118480D01*
Y118480D01*
X118680Y118680D02*
X24881320D01*
Y19881320D01*
X118680D01*
Y118680D01*
X118880Y118880D02*
X24881120D01*
Y19881120D01*
X118880D01*
Y118880D01*
X119080Y119080D02*
X24880920D01*
Y19880920D01*
X119080D01*
Y119080D01*
X119280Y119280D02*
X24880720D01*
Y19880720D01*
X119280D01*
Y119280D01*
X119480Y119480D02*
X24880520D01*
Y19880520D01*
X119480D01*
Y119480D01*
X119680Y119680D02*
X24880320D01*
Y19880320D01*
X119680D01*
Y119680D01*
X119880Y119880D02*
X24880120D01*
Y19880120D01*
X119880D01*
Y119880D01*
X120080Y120080D02*
X24879920D01*
Y19879920D01*
X120080D01*
Y120080D01*
X120280Y120280D02*
X24879720D01*
Y19879720D01*
X120280D01*
Y120280D01*
X120480Y120480D02*
X24879520D01*
Y19879520D01*
X120480D01*
Y120480D01*
X120680Y120680D02*
X24879320D01*
Y19879320D01*
X120680D01*
Y120680D01*
X120880Y120880D02*
X24879120D01*
Y19879120D01*
X120880D01*
Y120880D01*
X121080Y121080D02*
X24878920D01*
Y19878920D01*
X121080D01*
Y121080D01*
X121280Y121280D02*
X24878720D01*
Y19878720D01*
X121280D01*
Y121280D01*
X121480Y121480D02*
X24878520D01*
Y19878520D01*
X121480D01*
Y121480D01*
X121680Y121680D02*
X24878320D01*
Y19878320D01*
X121680D01*
Y121680D01*
X121880Y121880D02*
X24878120D01*
Y19878120D01*
X121880D01*
Y121880D01*
X122080Y122080D02*
X24877920D01*
Y19877920D01*
X122080D01*
Y122080D01*
X122280Y122280D02*
X24877720D01*
Y19877720D01*
X122280D01*
Y122280D01*
X122480Y122480D02*
X24877520D01*
Y19877520D01*
X122480D01*
Y122480D01*
X122680Y122680D02*
X24877320D01*
Y19877320D01*
X122680D01*
Y122680D01*
X122880Y122880D02*
X24877120D01*
Y19877120D01*
X122880D01*
Y122880D01*
X123080Y123080D02*
X24876920D01*
Y19876920D01*
X123080D01*
Y123080D01*
X123280Y123280D02*
X24876720D01*
Y19876720D01*
X123280D01*
Y123280D01*
X123480Y123480D02*
X24876520D01*
Y19876520D01*
X123480D01*
Y123480D01*
X123680Y123680D02*
X24876320D01*
Y19876320D01*
X123680D01*
Y123680D01*
X123880Y123880D02*
X24876120D01*
Y19876120D01*
X123880D01*
Y123880D01*
X124080Y124080D02*
X24875920D01*
Y19875920D01*
X124080D01*
Y124080D01*
X124280Y124280D02*
X24875720D01*
Y19875720D01*
X124280D01*
Y124280D01*
X124480Y124480D02*
X24875520D01*
Y19875520D01*
X124480D01*
Y124480D01*
X124680Y124680D02*
X24875320D01*
Y19875320D01*
X124680D01*
Y124680D01*
X124880Y124880D02*
X24875120D01*
Y19875120D01*
X124880D01*
Y124880D01*
X125080Y125080D02*
X24874920D01*
Y19874920D01*
X125080D01*
Y125080D01*
X125280Y125280D02*
X24874720D01*
Y19874720D01*
X125280D01*
Y125280D01*
X125480Y125480D02*
X24874520D01*
Y19874520D01*
X125480D01*
Y125480D01*
X125680Y125680D02*
X24874320D01*
Y19874320D01*
X125680D01*
Y125680D01*
X125880Y125880D02*
X24874120D01*
Y19874120D01*
X125880D01*
Y125880D01*
X126080Y126080D02*
X24873920D01*
Y19873920D01*
X126080D01*
Y126080D01*
X126280Y126280D02*
X24873720D01*
Y19873720D01*
X126280D01*
Y126280D01*
X126480Y126480D02*
X24873520D01*
Y19873520D01*
X126480D01*
Y126480D01*
X126680Y126680D02*
X24873320D01*
Y19873320D01*
X126680D01*
Y126680D01*
X126880Y126880D02*
X24873120D01*
Y19873120D01*
X126880D01*
Y126880D01*
X127080Y127080D02*
X24872920D01*
Y19872920D01*
X127080D01*
Y127080D01*
X127280Y127280D02*
X24872720D01*
Y19872720D01*
X127280D01*
Y127280D01*
X127480Y127480D02*
X24872520D01*
Y19872520D01*
X127480D01*
Y127480D01*
X127680Y127680D02*
X24872320D01*
Y19872320D01*
X127680D01*
Y127680D01*
X127880Y127880D02*
X24872120D01*
Y19872120D01*
X127880D01*
Y127880D01*
X128080Y128080D02*
X24871920D01*
Y19871920D01*
X128080D01*
Y128080D01*
X128280Y128280D02*
X24871720D01*
Y19871720D01*
X128280D01*
Y128280D01*
X128480Y128480D02*
X24871520D01*
Y19871520D01*
X128480D01*
Y128480D01*
X128680Y128680D02*
X24871320D01*
Y19871320D01*
X128680D01*
Y128680D01*
X128880Y128880D02*
X24871120D01*
Y19871120D01*
X128880D01*
Y128880D01*
X129080Y129080D02*
X24870920D01*
Y19870920D01*
X129080D01*
Y129080D01*
X129280Y129280D02*
X24870720D01*
Y19870720D01*
X129280D01*
Y129280D01*
X129480Y129480D02*
X24870520D01*
Y19870520D01*
X129480D01*
Y129480D01*
X129680Y129680D02*
X24870320D01*
Y19870320D01*
X129680D01*
Y129680D01*
X129880Y129880D02*
X24870120D01*
Y19870120D01*
X129880D01*
Y129880D01*
X130080Y130080D02*
X24869920D01*
Y19869920D01*
X130080D01*
Y130080D01*
X130280Y130280D02*
X24869720D01*
Y19869720D01*
X130280D01*
Y130280D01*
X130480Y130480D02*
X24869520D01*
Y19869520D01*
X130480D01*
Y130480D01*
X130680Y130680D02*
X24869320D01*
Y19869320D01*
X130680D01*
Y130680D01*
X130880Y130880D02*
X24869120D01*
Y19869120D01*
X130880D01*
Y130880D01*
X131080Y131080D02*
X24868920D01*
Y19868920D01*
X131080D01*
Y131080D01*
X131280Y131280D02*
X24868720D01*
Y19868720D01*
X131280D01*
Y131280D01*
X131480Y131480D02*
X24868520D01*
Y19868520D01*
X131480D01*
Y131480D01*
X131680Y131680D02*
X24868320D01*
Y19868320D01*
X131680D01*
Y131680D01*
X131880Y131880D02*
X24868120D01*
Y19868120D01*
X131880D01*
Y131880D01*
X132080Y132080D02*
X24867920D01*
Y19867920D01*
X132080D01*
Y132080D01*
X132280Y132280D02*
X24867720D01*
Y19867720D01*
X132280D01*
Y132280D01*
X132480Y132480D02*
X24867520D01*
Y19867520D01*
X132480D01*
Y132480D01*
X132680Y132680D02*
X24867320D01*
Y19867320D01*
X132680D01*
Y132680D01*
X132880Y132880D02*
X24867120D01*
Y19867120D01*
X132880D01*
Y132880D01*
X133080Y133080D02*
X24866920D01*
Y19866920D01*
X133080D01*
Y133080D01*
X133280Y133280D02*
X24866720D01*
Y19866720D01*
X133280D01*
Y133280D01*
X133480Y133480D02*
X24866520D01*
Y19866520D01*
X133480D01*
Y133480D01*
X133680Y133680D02*
X24866320D01*
Y19866320D01*
X133680D01*
Y133680D01*
X133880Y133880D02*
X24866120D01*
Y19866120D01*
X133880D01*
Y133880D01*
X134080Y134080D02*
X24865920D01*
Y19865920D01*
X134080D01*
Y134080D01*
X134280Y134280D02*
X24865720D01*
Y19865720D01*
X134280D01*
Y134280D01*
X134480Y134480D02*
X24865520D01*
Y19865520D01*
X134480D01*
Y134480D01*
X134680Y134680D02*
X24865320D01*
Y19865320D01*
X134680D01*
Y134680D01*
X134880Y134880D02*
X24865120D01*
Y19865120D01*
X134880D01*
Y134880D01*
X135080Y135080D02*
X24864920D01*
Y19864920D01*
X135080D01*
Y135080D01*
X135280Y135280D02*
X24864720D01*
Y19864720D01*
X135280D01*
Y135280D01*
X135480Y135480D02*
X24864520D01*
Y19864520D01*
X135480D01*
Y135480D01*
X135680Y135680D02*
X24864320D01*
Y19864320D01*
X135680D01*
Y135680D01*
X135880Y135880D02*
X24864120D01*
Y19864120D01*
X135880D01*
Y135880D01*
X136080Y136080D02*
X24863920D01*
Y19863920D01*
X136080D01*
Y136080D01*
X136280Y136280D02*
X24863720D01*
Y19863720D01*
X136280D01*
Y136280D01*
X136480Y136480D02*
X24863520D01*
Y19863520D01*
X136480D01*
Y136480D01*
X136680Y136680D02*
X24863320D01*
Y19863320D01*
X136680D01*
Y136680D01*
X136880Y136880D02*
X24863120D01*
Y19863120D01*
X136880D01*
Y136880D01*
X137080Y137080D02*
X24862920D01*
Y19862920D01*
X137080D01*
Y137080D01*
X137280Y137280D02*
X24862720D01*
Y19862720D01*
X137280D01*
Y137280D01*
X137480Y137480D02*
X24862520D01*
Y19862520D01*
X137480D01*
Y137480D01*
X137680Y137680D02*
X24862320D01*
Y19862320D01*
X137680D01*
Y137680D01*
X137880Y137880D02*
X24862120D01*
Y19862120D01*
X137880D01*
Y137880D01*
X138080Y138080D02*
X24861920D01*
Y19861920D01*
X138080D01*
Y138080D01*
X138280Y138280D02*
X24861720D01*
Y19861720D01*
X138280D01*
Y138280D01*
X138480Y138480D02*
X24861520D01*
Y19861520D01*
X138480D01*
Y138480D01*
X138680Y138680D02*
X24861320D01*
Y19861320D01*
X138680D01*
Y138680D01*
X138880Y138880D02*
X24861120D01*
Y19861120D01*
X138880D01*
Y138880D01*
X139080Y139080D02*
X24860920D01*
Y19860920D01*
X139080D01*
Y139080D01*
X139280Y139280D02*
X24860720D01*
Y19860720D01*
X139280D01*
Y139280D01*
X139480Y139480D02*
X24860520D01*
Y19860520D01*
X139480D01*
Y139480D01*
X139680Y139680D02*
X24860320D01*
Y19860320D01*
X139680D01*
Y139680D01*
X139880Y139880D02*
X24860120D01*
Y19860120D01*
X139880D01*
Y139880D01*
X140080Y140080D02*
X24859920D01*
Y19859920D01*
X140080D01*
Y140080D01*
X140280Y140280D02*
X24859720D01*
Y19859720D01*
X140280D01*
Y140280D01*
X140480Y140480D02*
X24859520D01*
Y19859520D01*
X140480D01*
Y140480D01*
X140680Y140680D02*
X24859320D01*
Y19859320D01*
X140680D01*
Y140680D01*
X140880Y140880D02*
X24859120D01*
Y19859120D01*
X140880D01*
Y140880D01*
X141080Y141080D02*
X24858920D01*
Y19858920D01*
X141080D01*
Y141080D01*
X141280Y141280D02*
X24858720D01*
Y19858720D01*
X141280D01*
Y141280D01*
X141480Y141480D02*
X24858520D01*
Y19858520D01*
X141480D01*
Y141480D01*
X141680Y141680D02*
X24858320D01*
Y19858320D01*
X141680D01*
Y141680D01*
X141880Y141880D02*
X24858120D01*
Y19858120D01*
X141880D01*
Y141880D01*
X142080Y142080D02*
X24857920D01*
Y19857920D01*
X142080D01*
Y142080D01*
X142280Y142280D02*
X24857720D01*
Y19857720D01*
X142280D01*
Y142280D01*
X142480Y142480D02*
X24857520D01*
Y19857520D01*
X142480D01*
Y142480D01*
X142680Y142680D02*
X24857320D01*
Y19857320D01*
X142680D01*
Y142680D01*
X142880Y142880D02*
X24857120D01*
Y19857120D01*
X142880D01*
Y142880D01*
X143080Y143080D02*
X24856920D01*
Y19856920D01*
X143080D01*
Y143080D01*
X143280Y143280D02*
X24856720D01*
Y19856720D01*
X143280D01*
Y143280D01*
X143480Y143480D02*
X24856520D01*
Y19856520D01*
X143480D01*
Y143480D01*
X143680Y143680D02*
X24856320D01*
Y19856320D01*
X143680D01*
Y143680D01*
X143880Y143880D02*
X24856120D01*
Y19856120D01*
X143880D01*
Y143880D01*
X144080Y144080D02*
X24855920D01*
Y19855920D01*
X144080D01*
Y144080D01*
X144280Y144280D02*
X24855720D01*
Y19855720D01*
X144280D01*
Y144280D01*
X144480Y144480D02*
X24855520D01*
Y19855520D01*
X144480D01*
Y144480D01*
X144680Y144680D02*
X24855320D01*
Y19855320D01*
X144680D01*
Y144680D01*
X144880Y144880D02*
X24855120D01*
Y19855120D01*
X144880D01*
Y144880D01*
X145080Y145080D02*
X24854920D01*
Y19854920D01*
X145080D01*
Y145080D01*
X145280Y145280D02*
X24854720D01*
Y19854720D01*
X145280D01*
Y145280D01*
X145480Y145480D02*
X24854520D01*
Y19854520D01*
X145480D01*
Y145480D01*
X145680Y145680D02*
X24854320D01*
Y19854320D01*
X145680D01*
Y145680D01*
X145880Y145880D02*
X24854120D01*
Y19854120D01*
X145880D01*
Y145880D01*
X146080Y146080D02*
X24853920D01*
Y19853920D01*
X146080D01*
Y146080D01*
X146280Y146280D02*
X24853720D01*
Y19853720D01*
X146280D01*
Y146280D01*
X146480Y146480D02*
X24853520D01*
Y19853520D01*
X146480D01*
Y146480D01*
X146680Y146680D02*
X24853320D01*
Y19853320D01*
X146680D01*
Y146680D01*
X146880Y146880D02*
X24853120D01*
Y19853120D01*
X146880D01*
Y146880D01*
X147080Y147080D02*
X24852920D01*
Y19852920D01*
X147080D01*
Y147080D01*
X147280Y147280D02*
X24852720D01*
Y19852720D01*
X147280D01*
Y147280D01*
X147480Y147480D02*
X24852520D01*
Y19852520D01*
X147480D01*
Y147480D01*
X147680Y147680D02*
X24852320D01*
Y19852320D01*
X147680D01*
Y147680D01*
X147880Y147880D02*
X24852120D01*
Y19852120D01*
X147880D01*
Y147880D01*
X148080Y148080D02*
X24851920D01*
Y19851920D01*
X148080D01*
Y148080D01*
X148280Y148280D02*
X24851720D01*
Y19851720D01*
X148280D01*
Y148280D01*
X148480Y148480D02*
X24851520D01*
Y19851520D01*
X148480D01*
Y148480D01*
X148680Y148680D02*
X24851320D01*
Y19851320D01*
X148680D01*
Y148680D01*
X148880Y148880D02*
X24851120D01*
Y19851120D01*
X148880D01*
Y148880D01*
X149080Y149080D02*
X24850920D01*
Y19850920D01*
X149080D01*
Y149080D01*
X149280Y149280D02*
X24850720D01*
Y19850720D01*
X149280D01*
Y149280D01*
G54D17*
X299280Y299280D02*
X24700720D01*
Y19700720D01*
X299280D01*
Y299280D01*
X599280Y599280D02*
X24400720D01*
Y19400720D01*
X599280D01*
Y599280D01*
G54D18*
X999280Y999280D02*
X24000720D01*
Y19000720D01*
X999280D01*
Y999280D01*
G54D19*
X1499280Y1499280D02*
X23500720D01*
Y18500720D01*
X1499280D01*
Y1499280D01*
X1999280Y1999280D02*
X23000720D01*
Y18000720D01*
X1999280D01*
Y1999280D01*
X2499280Y2499280D02*
X22500720D01*
Y17500720D01*
X2499280D01*
Y2499280D01*
X2999280Y2999280D02*
X22000720D01*
Y17000720D01*
X2999280D01*
Y2999280D01*
X3499280Y3499280D02*
X21500720D01*
Y16500720D01*
X3499280D01*
Y3499280D01*
X3999280Y3999280D02*
X21000720D01*
Y16000720D01*
X3999280D01*
Y3999280D01*
X4499280Y4499280D02*
X20500720D01*
Y15500720D01*
X4499280D01*
Y4499280D01*
X4999280Y4999280D02*
X20000720D01*
Y15000720D01*
X4999280D01*
Y4999280D01*
X5499280Y5499280D02*
X19500720D01*
Y14500720D01*
X5499280D01*
Y5499280D01*
X5999280Y5999280D02*
X19000720D01*
Y14000720D01*
X5999280D01*
Y5999280D01*
X6499280Y6499280D02*
X18500720D01*
Y13500720D01*
X6499280D01*
Y6499280D01*
X6999280Y6999280D02*
X18000720D01*
Y13000720D01*
X6999280D01*
Y6999280D01*
X7499280Y7499280D02*
X17500720D01*
Y12500720D01*
X7499280D01*
Y7499280D01*
X7999280Y7999280D02*
X17000720D01*
Y12000720D01*
X7999280D01*
Y7999280D01*
X8499280Y8499280D02*
X16500720D01*
Y11500720D01*
X8499280D01*
Y8499280D01*
X8999280Y8999280D02*
X16000720D01*
Y11000720D01*
X8999280D01*
Y8999280D01*
X9499280Y9499280D02*
X15500720D01*
Y10500720D01*
X9499280D01*
Y9499280D01*
X9999280Y9999280D02*
X15000720D01*
Y10000720D01*
X9999280D01*
Y9999280D01*
G54D10*
X5Y5D02*
X24999995D01*
Y19999995D01*
X5D01*
Y5D01*
M02*

